SplineFontDB: 3.2
FontName: LoveLetterTypewriter
FullName: Love Letter Typewriter
FamilyName: Love Letter Typewriter
Weight: Book
Copyright: 2.1.4 (c) 1994 by Blake Haber for Dixie's Delights
Version: Altsys Fontographer 4.0.4 10/9/94
ItalicAngle: 0
UnderlinePosition: -150
UnderlineWidth: 20
Ascent: 800
Descent: 200
InvalidEm: 0
sfntRevision: 0x00010000
LayerCount: 2
Layer: 0 1 "Back" 1
Layer: 1 1 "Fore" 0
XUID: [1021 809 1061663522 13188378]
StyleMap: 0x0040
FSType: 1
OS2Version: 1
OS2_WeightWidthSlopeOnly: 0
OS2_UseTypoMetrics: 0
CreationTime: 4647956631476791279
ModificationTime: 1574686116
PfmFamily: 81
TTFWeight: 400
TTFWidth: 5
LineGap: 0
VLineGap: 0
Panose: 0 0 4 0 0 0 0 0 0 0
OS2TypoAscent: 800
OS2TypoAOffset: 0
OS2TypoDescent: -225
OS2TypoDOffset: 0
OS2TypoLinegap: 0
OS2WinAscent: 800
OS2WinAOffset: 0
OS2WinDescent: 195
OS2WinDOffset: 0
HheadAscent: 800
HheadAOffset: 0
HheadDescent: -225
HheadDOffset: 0
OS2SubXSize: 700
OS2SubYSize: 650
OS2SubXOff: 0
OS2SubYOff: 143
OS2SupXSize: 700
OS2SupYSize: 650
OS2SupXOff: 0
OS2SupYOff: 453
OS2StrikeYSize: 50
OS2StrikeYPos: 259
OS2Vendor: 'Alts'
OS2CodePages: 80000001.00000000
OS2UnicodeRanges: 00000000.00000000.00000000.00000000
DEI: 91125
TtTable: prep
NPUSHB
 27
 16
 16
 15
 15
 14
 14
 13
 13
 12
 12
 11
 11
 10
 10
 9
 9
 8
 8
 3
 3
 2
 2
 1
 1
 0
 0
 1
SCANTYPE
PUSHW_1
 511
SCANCTRL
RCVT
ROUND[Grey]
WCVTP
RCVT
ROUND[Grey]
WCVTP
RCVT
ROUND[Grey]
WCVTP
RCVT
ROUND[Grey]
WCVTP
RCVT
ROUND[Grey]
WCVTP
RCVT
ROUND[Grey]
WCVTP
RCVT
ROUND[Grey]
WCVTP
RCVT
ROUND[Grey]
WCVTP
RCVT
ROUND[Grey]
WCVTP
RCVT
ROUND[Grey]
WCVTP
RCVT
ROUND[Grey]
WCVTP
RCVT
ROUND[Grey]
WCVTP
RCVT
ROUND[Grey]
WCVTP
PUSHB_4
 5
 4
 70
 0
CALL
PUSHB_4
 7
 6
 70
 0
CALL
PUSHB_2
 4
 4
RCVT
ROUND[Grey]
WCVTP
PUSHB_2
 6
 6
RCVT
ROUND[Grey]
WCVTP
EndTTInstrs
TtTable: fpgm
NPUSHB
 1
 0
FDEF
SROUND
RCVT
DUP
PUSHB_1
 3
CINDEX
RCVT
SWAP
SUB
ROUND[Grey]
RTG
SWAP
ROUND[Grey]
ADD
WCVTP
ENDF
EndTTInstrs
ShortTable: cvt  261
  -179
  -8
  520
  694
  81
  99
  92

StartChar: .notdef
Encoding: 65536 -1 0
Width: 500
Flags: W
LayerCount: 2
Fore
SplineSet
63 0 m 1,0,-1
 63 800 l 1,1,-1
 438 800 l 1,2,-1
 438 0 l 1,3,-1
 63 0 l 1,0,-1
125 63 m 1,4,-1
 375 63 l 1,5,-1
 375 738 l 1,6,-1
 125 738 l 1,7,-1
 125 63 l 1,4,-1
EndSplineSet
Validated: 1
EndChar

StartChar: exclam
Encoding: 33 33 4
Width: 355
GlyphClass: 2
Flags: W
LayerCount: 2
Fore
SplineSet
305 627 m 0,0,1
 305 617 305 617 301 605 c 0,2,3
 294 590 294 590 294 585 c 1,4,5
 275 577 275 577 242 561 c 1,6,7
 236 534 236 534 219 482 c 0,8,9
 216 475 216 475 224 453 c 128,-1,10
 232 431 232 431 232 425 c 1,11,12
 208 425 208 425 201 418 c 0,13,14
 201 416 201 416 199.5 411.5 c 128,-1,15
 198 407 198 407 198 405 c 0,16,17
 198 399 198 399 209 399 c 0,18,19
 221 399 221 399 225 402.5 c 128,-1,20
 229 406 229 406 231 406 c 2,21,-1
 231 327 l 1,22,23
 227 342 227 342 209 375 c 1,24,25
 200 363 200 363 200 339 c 0,26,27
 200 318 200 318 209 299 c 1,28,29
 183 272 183 272 179 272 c 0,30,31
 168 369 168 369 158 466 c 1,32,33
 142 557 142 557 82 618 c 1,34,-1
 82 646 l 1,35,36
 203 658 203 658 296 647 c 0,37,38
 305 646 305 646 305 627 c 0,0,1
281 19 m 1,39,-1
 263 0 l 1,40,-1
 116 0 l 1,41,-1
 106 9 l 1,42,-1
 106 62 l 1,43,44
 128 78 128 78 150 96 c 128,-1,45
 172 114 172 114 178 159 c 1,46,-1
 215 159 l 1,47,48
 235 143 235 143 270 77 c 1,49,50
 271 56 271 56 281 19 c 1,39,-1
212 521 m 1,51,-1
 212 550 l 1,52,-1
 198 550 l 1,53,-1
 198 521 l 1,54,-1
 212 521 l 1,51,-1
EndSplineSet
Validated: 1
EndChar

StartChar: quotedbl
Encoding: 34 34 5
Width: 380
GlyphClass: 2
Flags: W
LayerCount: 2
Fore
SplineSet
338 675 m 0,0,1
 338 628 338 628 311 538 c 0,2,3
 299 501 299 501 254 455 c 1,4,5
 226 487 226 487 189 599 c 1,6,7
 185 595 185 595 175 588.5 c 128,-1,8
 165 582 165 582 161 578 c 1,9,10
 161 572 161 572 168.5 553.5 c 128,-1,11
 176 535 176 535 176 525 c 0,12,13
 176 509 176 509 155 479 c 0,14,15
 131 443 131 443 127 432 c 1,16,17
 93 445 93 445 76 490 c 0,18,19
 50 559 50 559 50 679 c 0,20,21
 50 700 50 700 63 707 c 0,22,23
 81 716 81 716 99 724 c 1,24,25
 124 712 124 712 155 712 c 0,26,27
 173 712 173 712 211 718 c 128,-1,28
 249 724 249 724 268 723 c 0,29,30
 292 723 292 723 292 735 c 1,31,32
 338 689 338 689 338 675 c 0,0,1
EndSplineSet
Validated: 1
EndChar

StartChar: numbersign
Encoding: 35 35 6
Width: 608
GlyphClass: 2
Flags: W
LayerCount: 2
Fore
SplineSet
583 377 m 1,0,1
 565 352 565 352 544 345 c 2,2,3
 544 345 544 345 509 340 c 1,4,5
 446 302 446 302 446 233 c 0,6,7
 446 222 446 222 447 211 c 1,8,9
 460 201 460 201 522 187 c 0,10,11
 568 176 568 176 568 146 c 0,12,13
 568 105 568 105 505 84 c 0,14,15
 471 76 471 76 438 68 c 1,16,17
 413 54 413 54 369 24 c 1,18,19
 368 8 368 8 356 -23 c 0,20,21
 339 -63 339 -63 337 -71 c 0,22,23
 334 -83 334 -83 334 -110 c 0,24,25
 333 -143 333 -143 332 -151 c 1,26,27
 295 -194 295 -194 264 -194 c 0,28,29
 250 -194 250 -194 232 -175 c 1,30,-1
 232 -151 l 2,31,32
 232 -141 232 -141 264 -62.5 c 128,-1,33
 296 16 296 16 296 26 c 0,34,35
 296 35 296 35 288.5 46 c 128,-1,36
 281 57 281 57 282 65 c 1,37,38
 269 86 269 86 232 86 c 0,39,40
 223 86 223 86 203 61 c 0,41,42
 172 20 172 20 169 17 c 0,43,44
 175 -40 175 -40 144 -99 c 0,45,46
 126 -133 126 -133 77 -193 c 1,47,-1
 50 -193 l 1,48,-1
 32 -175 l 1,49,-1
 32 137 l 2,50,51
 32 147 32 147 40.5 160 c 128,-1,52
 49 173 49 173 49 181 c 1,53,54
 54 181 54 181 77.5 185 c 128,-1,55
 101 189 101 189 121 189 c 1,56,57
 121 188 121 188 123 239 c 0,58,59
 125 270 125 270 121 289 c 2,60,-1
 114 311 l 1,61,62
 106 302 106 302 92 302 c 0,63,64
 67 302 67 302 49.5 319.5 c 128,-1,65
 32 337 32 337 32 358 c 0,66,67
 32 390 32 390 54 400 c 0,68,69
 64 404 64 404 104 408 c 0,70,71
 138 411 138 411 153 423 c 0,72,73
 182 448 182 448 206 504 c 0,74,75
 225 554 225 554 245 603 c 1,76,77
 248 734 248 734 296 734 c 0,78,79
 311 734 311 734 326.5 714.5 c 128,-1,80
 342 695 342 695 346 674 c 0,81,82
 345 671 345 671 348.5 668.5 c 128,-1,83
 352 666 352 666 352 654 c 0,84,85
 352 632 352 632 325 583 c 0,86,87
 311 560 311 560 297 537 c 0,88,89
 295 532 295 532 300 520 c 0,90,91
 307 502 307 502 308 497 c 0,92,93
 288 472 288 472 288 446 c 0,94,95
 288 436 288 436 291 432.5 c 128,-1,96
 294 429 294 429 294 422 c 1,97,-1
 348 422 l 2,98,99
 360 422 360 422 360 435 c 0,100,101
 360 443 360 443 354 456 c 1,102,103
 372 470 372 470 388 497 c 0,104,105
 401 519 401 519 413 541 c 1,106,107
 425 590 425 590 436 640 c 0,108,109
 464 734 464 734 504 734 c 0,110,111
 516 734 516 734 530 717.5 c 128,-1,112
 544 701 544 701 544 686 c 0,113,114
 544 665 544 665 524 578.5 c 128,-1,115
 504 492 504 492 504 494 c 1,116,117
 504 461 504 461 514.5 450.5 c 128,-1,118
 525 440 525 440 583 412 c 1,119,-1
 583 377 l 1,0,1
352 242 m 0,120,121
 352 252 352 252 343 279 c 128,-1,122
 334 306 334 306 334 317 c 1,123,124
 327 317 327 317 322.5 321.5 c 128,-1,125
 318 326 318 326 308 326 c 0,126,127
 280 326 280 326 264 315 c 0,128,129
 255 308 255 308 239 286.5 c 128,-1,130
 223 265 223 265 208 252 c 1,131,-1
 208 192 l 1,132,133
 222 184 222 184 236 176 c 0,134,135
 254 166 254 166 264 166 c 0,136,137
 280 166 280 166 312 186 c 0,138,139
 352 211 352 211 352 242 c 0,120,121
EndSplineSet
Validated: 1
EndChar

StartChar: dollar
Encoding: 36 36 7
Width: 510
GlyphClass: 2
Flags: W
LayerCount: 2
Fore
SplineSet
249 -51 m 1,0,1
 231 -33 231 -33 219 -33 c 1,2,-1
 210 -87 l 2,3,4
 214 -87 214 -87 225 -91.5 c 128,-1,5
 236 -96 236 -96 240 -96 c 2,6,-1
 249 -51 l 1,0,1
473 228 m 0,7,8
 473 200 473 200 456 113 c 0,9,10
 453 113 453 113 430 136 c 1,11,12
 422 123 422 123 422 105 c 0,13,14
 423 79 423 79 422 73 c 1,15,16
 409 66 409 66 378 36 c 0,17,18
 351 9 351 9 330 1 c 1,19,20
 324 -27 324 -27 325 -74 c 0,21,22
 327 -135 327 -135 326 -149 c 0,23,24
 318 -176 318 -176 289 -176 c 0,25,26
 278 -176 278 -176 265.5 -171.5 c 128,-1,27
 253 -167 253 -167 251 -167 c 1,28,29
 251 -127 251 -127 236 -112 c 0,30,31
 232 -112 232 -112 226 -116 c 128,-1,32
 220 -120 220 -120 216 -120 c 0,33,34
 212 -126 212 -126 212 -133 c 0,35,36
 212 -142 212 -142 225 -166 c 1,37,38
 222 -166 222 -166 208.5 -171 c 128,-1,39
 195 -176 195 -176 185 -176 c 0,40,41
 173 -176 173 -176 167 -172.5 c 128,-1,42
 161 -169 161 -169 157 -166 c 0,43,44
 151 -150 151 -150 132 -118 c 0,45,46
 131 -109 131 -109 139 -97 c 0,47,48
 152 -79 152 -79 153 -77 c 0,49,50
 110 -22 110 -22 67 32 c 0,51,52
 18 96 18 96 18 109 c 2,53,-1
 18 238 l 1,54,55
 35 241 35 241 65 251 c 1,56,57
 64 255 64 255 57 259 c 1,58,59
 72 252 72 252 93 224 c 0,60,61
 117 192 117 192 138 178 c 1,62,63
 136 167 136 167 157 104 c 1,64,65
 166 126 166 126 166 153 c 0,66,67
 166 164 166 164 164 186.5 c 128,-1,68
 162 209 162 209 162 221 c 256,69,70
 162 233 162 233 163 243 c 0,71,72
 161 251 161 251 161 272 c 0,73,74
 161 300 161 300 167.5 319.5 c 128,-1,75
 174 339 174 339 174 350 c 0,76,77
 174 377 174 377 155 448 c 0,78,79
 153 448 153 448 142.5 440 c 128,-1,80
 132 432 132 432 121 432 c 0,81,82
 102 432 102 432 43 449 c 1,83,84
 40 456 40 456 26 557 c 1,85,86
 36 567 36 567 51 567 c 1,87,88
 56 575 56 575 54 590 c 0,89,90
 50 611 50 611 50 614 c 0,91,92
 67 618 67 618 98 630 c 1,93,94
 98 635 98 635 93.5 642 c 128,-1,95
 89 649 89 649 86 649 c 1,96,97
 90 658 90 658 106 668.5 c 128,-1,98
 122 679 122 679 140 681 c 1,99,100
 147 687 147 687 151 703 c 128,-1,101
 155 719 155 719 164 727 c 0,102,103
 169 727 169 727 185 726 c 0,104,105
 196 725 196 725 202 726 c 0,106,107
 211 728 211 728 220 735 c 0,108,109
 222 735 222 735 237 720 c 1,110,111
 251 733 251 733 251 742 c 1,112,113
 255 743 255 743 301 732 c 1,114,115
 320 710 320 710 323 670 c 1,116,117
 338 666 338 666 366 651 c 1,118,119
 369 634 369 634 406 606 c 1,120,121
 422 568 422 568 417 496 c 1,122,123
 393 490 393 490 369 467 c 1,124,125
 373 440 373 440 371 388 c 1,126,127
 377 380 377 380 391 375 c 0,128,129
 410 369 410 369 414 366 c 0,130,131
 419 327 419 327 453 310 c 1,132,133
 473 267 473 267 473 228 c 0,7,8
332 569 m 1,134,-1
 332 614 l 1,135,-1
 318 614 l 1,136,-1
 318 569 l 1,137,-1
 332 569 l 1,134,-1
289 532 m 0,138,139
 255 546 255 546 257 553 c 1,140,141
 276 566 276 566 276 578 c 0,142,143
 276 580 276 580 275 584 c 0,144,145
 275 589 275 589 275 591 c 0,146,147
 275 605 275 605 289 621 c 1,148,-1
 194 631 l 1,149,-1
 194 465 l 1,150,151
 226 462 226 462 250 489 c 0,152,153
 289 531 289 531 289 532 c 0,138,139
177 572 m 1,154,155
 173 576 173 576 163.5 582 c 128,-1,156
 154 588 154 588 150 592 c 1,157,158
 113 579 113 579 90 581 c 1,159,160
 98 577 98 577 118 571.5 c 128,-1,161
 138 566 138 566 146 562 c 1,162,163
 146 548 146 548 142 535.5 c 128,-1,164
 138 523 138 523 138 521 c 2,165,-1
 168 521 l 1,166,167
 168 554 168 554 177 572 c 1,154,155
425 186 m 1,168,-1
 425 279 l 1,169,170
 407 277 407 277 394 297 c 0,171,172
 384 313 384 313 383 327 c 1,173,174
 375 322 375 322 360 324 c 0,175,176
 340 327 340 327 339 327 c 0,177,178
 319 288 319 288 301 288 c 0,179,180
 275 288 275 288 257 307 c 1,181,182
 280 314 280 314 281 335 c 0,183,184
 283 363 283 363 289 370 c 1,185,-1
 278 480 l 1,186,187
 262 408 262 408 270 356 c 1,188,189
 266 349 266 349 261 344 c 1,190,191
 249 355 249 355 249 361 c 0,192,193
 244 376 244 376 228 383.5 c 128,-1,194
 212 391 212 391 195 399 c 1,195,196
 195 375 195 375 195 244 c 0,197,198
 194 113 194 113 194 89 c 1,199,-1
 240 89 l 1,200,201
 253 122 253 122 259 120 c 0,202,203
 276 103 276 103 276 96 c 1,204,205
 287 115 287 115 287 134 c 0,206,207
 287 155 287 155 273 171 c 1,208,209
 277 175 277 175 287 177.5 c 128,-1,210
 297 180 297 180 301 184 c 1,211,212
 310 171 310 171 315.5 148 c 128,-1,213
 321 125 321 125 324 120 c 1,214,215
 380 140 380 140 425 186 c 1,168,-1
253 60 m 1,216,-1
 253 60 l 1,217,-1
 253 60 l 1,218,-1
 253 60 l 1,216,-1
119 150 m 2,219,-1
 99 150 l 1,220,-1
 99 112 l 1,221,222
 123 120 123 120 123 140 c 0,223,224
 123 147 123 147 119 150 c 2,219,-1
60 113 m 1,225,-1
 60 142 l 1,226,-1
 46 142 l 1,227,-1
 46 113 l 1,228,-1
 60 113 l 1,225,-1
EndSplineSet
Validated: 1
EndChar

StartChar: percent
Encoding: 37 37 8
Width: 637
GlyphClass: 2
Flags: W
LayerCount: 2
Fore
SplineSet
612 208 m 0,0,1
 612 150 612 150 556 74 c 0,2,3
 495 -8 495 -8 432 -8 c 2,4,-1
 372 -8 l 2,5,6
 334 -8 334 -8 324 9 c 0,7,8
 319 24 319 24 313 40 c 128,-1,9
 307 56 307 56 276 56 c 0,10,11
 253 56 253 56 244 38 c 0,12,13
 242 29 242 29 239 19 c 1,14,15
 226 13 226 13 214 6 c 0,16,17
 197 -3 197 -3 189 -14 c 1,18,19
 188 -29 188 -29 175 -55 c 0,20,21
 174 -56 174 -56 117 -121 c 0,22,23
 91 -152 91 -152 64 -152 c 0,24,25
 49 -152 49 -152 34.5 -144 c 128,-1,26
 20 -136 20 -136 20 -124 c 0,27,28
 20 -114 20 -114 44 -76 c 0,29,30
 73 -30 73 -30 80.5 -10.5 c 128,-1,31
 88 9 88 9 99 52 c 0,32,33
 108 91 108 91 118 110 c 0,34,35
 126 126 126 126 149 148 c 0,36,37
 180 176 180 176 186 183 c 0,38,39
 204 205 204 205 223 258 c 0,40,41
 240 307 240 307 268 334 c 1,42,43
 273 352 273 352 240 352 c 0,44,45
 230 352 230 352 180 324 c 128,-1,46
 130 296 130 296 120 296 c 0,47,48
 88 296 88 296 6 378 c 1,49,50
 4 390 4 390 4 448 c 0,51,52
 4 452 4 452 2.5 468 c 128,-1,53
 1 484 1 484 1 494 c 0,54,55
 2 509 2 509 6 518 c 0,56,57
 35 578 35 578 109 644 c 0,58,59
 131 664 131 664 220 664 c 0,60,61
 229 664 229 664 282.5 652 c 128,-1,62
 336 640 336 640 344 640 c 0,63,64
 373 640 373 640 413.5 669 c 128,-1,65
 454 698 454 698 495 728 c 1,66,67
 510 720 510 720 525 704 c 128,-1,68
 540 688 540 688 540 680 c 0,69,70
 540 664 540 664 509 622.5 c 128,-1,71
 478 581 478 581 478 579 c 0,72,73
 456 485 456 485 396 412 c 1,74,75
 400 405 400 405 410.5 391 c 128,-1,76
 421 377 421 377 425 370 c 1,77,78
 447 373 447 373 465 373 c 0,79,80
 544 373 544 373 582 320 c 0,81,82
 612 277 612 277 612 208 c 0,0,1
252 516 m 0,83,84
 252 530 252 530 231 549 c 128,-1,85
 210 568 210 568 196 568 c 0,86,87
 178 568 178 568 135 522 c 0,88,89
 99 482 99 482 92 468 c 1,90,91
 105 450 105 450 117 433 c 128,-1,92
 129 416 129 416 152 416 c 0,93,94
 180 416 180 416 232 458 c 1,95,96
 233 464 233 464 243 487 c 0,97,98
 252 506 252 506 252 516 c 0,83,84
556 224 m 0,99,100
 556 233 556 233 551 247 c 128,-1,101
 546 261 546 261 546 263 c 1,102,103
 544 263 544 263 535.5 255.5 c 128,-1,104
 527 248 527 248 516 248 c 0,105,106
 506 248 506 248 494 264 c 128,-1,107
 482 280 482 280 472 280 c 0,108,109
 454 280 454 280 422.5 256.5 c 128,-1,110
 391 233 391 233 390 221 c 0,111,112
 387 200 387 200 379 166 c 0,113,114
 372 137 372 137 372 128 c 0,115,116
 372 116 372 116 393 98 c 128,-1,117
 414 80 414 80 428 80 c 0,118,119
 474 80 474 80 515 123.5 c 128,-1,120
 556 167 556 167 556 224 c 0,99,100
EndSplineSet
Validated: 1
EndChar

StartChar: ampersand
Encoding: 38 38 9
Width: 612
GlyphClass: 2
Flags: W
LayerCount: 2
Fore
SplineSet
256 555 m 0,0,1
 256 565 256 565 242.5 582 c 128,-1,2
 229 599 229 599 230 607 c 1,3,4
 212 588 212 588 176 562 c 1,5,6
 205 562 205 562 216 539 c 1,7,8
 201 523 201 523 178 526 c 1,9,10
 178 518 178 518 180 506 c 1,11,12
 204 504 204 504 229 455 c 1,13,14
 229 473 229 473 242.5 509.5 c 128,-1,15
 256 546 256 546 256 555 c 0,0,1
576 446 m 1,16,17
 576 429 576 429 571.5 383.5 c 128,-1,18
 567 338 567 338 567 320 c 1,19,-1
 539 320 l 1,20,-1
 524 335 l 1,21,22
 517 328 517 328 498 328 c 1,23,24
 491 375 491 375 464 375 c 0,25,26
 430 375 430 375 407 352 c 0,27,28
 402 347 402 347 398 333 c 128,-1,29
 394 319 394 319 391 314 c 1,30,31
 379 313 379 313 352 305 c 1,32,33
 352 285 352 285 376 285 c 1,34,35
 367 261 367 261 357 237 c 128,-1,36
 347 213 347 213 328 195 c 1,37,38
 337 186 337 186 356 151.5 c 128,-1,39
 375 117 375 117 388 103 c 0,40,41
 408 79 408 79 432 79 c 0,42,43
 444 79 444 79 451.5 83 c 128,-1,44
 459 87 459 87 462 87 c 0,45,46
 466 83 466 83 469.5 71 c 128,-1,47
 473 59 473 59 477 55 c 1,48,49
 501 66 501 66 501 97 c 0,50,51
 501 100 501 100 501 107.5 c 128,-1,52
 501 115 501 115 501 119 c 0,53,54
 501 149 501 149 509 175 c 1,55,56
 506 151 506 151 532 151 c 0,57,58
 549 151 549 151 565 167 c 1,59,60
 576 136 576 136 576 72 c 1,61,62
 564 68 564 68 549 52 c 128,-1,63
 534 36 534 36 532 27 c 1,64,65
 515 18 515 18 498 10 c 0,66,67
 476 -2 476 -2 461 -17 c 1,68,69
 398 23 398 23 338 26 c 1,70,71
 324 55 324 55 304 55 c 0,72,73
 294 55 294 55 242 23 c 128,-1,74
 190 -9 190 -9 180 -9 c 256,75,76
 170 -9 170 -9 170 -1 c 128,-1,77
 170 7 170 7 160 7 c 256,78,79
 150 7 150 7 146 3 c 128,-1,80
 142 -1 142 -1 132 -1 c 0,81,82
 73 -1 73 -1 40 65 c 0,83,84
 16 112 16 112 16 155 c 0,85,86
 16 208 16 208 54 253 c 1,87,88
 51 265 51 265 51 285 c 1,89,90
 66 293 66 293 91 316 c 1,91,92
 93 328 93 328 104 368 c 0,93,94
 112 400 112 400 112 411 c 0,95,96
 112 421 112 421 96 489 c 128,-1,97
 80 557 80 557 80 567 c 0,98,99
 80 591 80 591 101 612 c 1,100,101
 99 624 99 624 99 636 c 0,102,103
 99 719 99 719 196 719 c 0,104,105
 205 719 205 719 244 714 c 0,106,107
 291 709 291 709 310 708 c 1,108,109
 327 688 327 688 357 658 c 0,110,111
 357 655 357 655 368 631 c 0,112,113
 376 611 376 611 376 599 c 0,114,115
 376 520 376 520 340 480 c 1,116,117
 298 441 298 441 257 401 c 128,-1,118
 216 361 216 361 216 319 c 0,119,120
 216 300 216 300 222 295 c 1,121,122
 240 295 240 295 240 315 c 1,123,-1
 242 324 l 1,124,-1
 242 335 l 1,125,126
 256 324 256 324 256 293 c 1,127,128
 261 291 261 291 266 291 c 0,129,130
 272 291 272 291 287.5 296.5 c 128,-1,131
 303 302 303 302 314 302 c 1,132,133
 318 322 318 322 330 358 c 0,134,135
 334 358 334 358 342 354 c 128,-1,136
 350 350 350 350 354 350 c 0,137,138
 358 380 358 380 372 435 c 1,139,140
 378 435 378 435 401 451 c 0,141,142
 428 470 428 470 434 486 c 0,143,144
 436 486 436 486 451.5 478.5 c 128,-1,145
 467 471 467 471 476 471 c 0,146,147
 498 471 498 471 498 494 c 1,148,149
 512 489 512 489 537 473 c 0,150,151
 556 459 556 459 576 446 c 1,16,17
531 344 m 1,152,-1
 531 366 l 1,153,-1
 517 366 l 1,154,-1
 517 344 l 1,155,-1
 531 344 l 1,152,-1
412 411 m 1,156,-1
 412 411 l 1,157,-1
 412 411 l 1,158,-1
 412 411 l 1,156,-1
269 535 m 1,159,-1
 258 504 l 1,160,161
 269 510 269 510 269 535 c 1,159,-1
192 261 m 1,162,163
 147 280 147 280 141 295 c 1,164,165
 131 281 131 281 111 267 c 0,166,167
 84 249 84 249 81 245 c 0,168,169
 81 148 81 148 98 96 c 1,170,171
 123 94 123 94 148 93 c 0,172,173
 178 91 178 91 191 96 c 1,174,175
 196 130 196 130 195 182 c 0,176,177
 192 268 192 268 192 261 c 1,162,163
EndSplineSet
Validated: 1
EndChar

StartChar: quotesingle
Encoding: 39 39 10
Width: 267
GlyphClass: 2
Flags: W
LayerCount: 2
Fore
SplineSet
164 632 m 0,0,1
 164 568 164 568 153 464 c 0,2,3
 152 453 152 453 138.5 435.5 c 128,-1,4
 125 418 125 418 113 412 c 1,5,6
 94 412 94 412 87 423 c 1,7,8
 76 513 76 513 57 639 c 0,9,10
 54 646 54 646 50 652 c 0,11,12
 44 664 44 664 44 676 c 0,13,14
 44 740 44 740 108 740 c 0,15,16
 167 740 167 740 167 679 c 0,17,18
 167 670 167 670 165.5 654 c 128,-1,19
 164 638 164 638 164 632 c 0,0,1
EndSplineSet
Validated: 1
EndChar

StartChar: parenleft
Encoding: 40 40 11
Width: 259
GlyphClass: 2
Flags: W
LayerCount: 2
Fore
SplineSet
217 715 m 0,0,1
 217 706 217 706 190 658 c 0,2,3
 161 605 161 605 155 582 c 0,4,5
 125 451 125 451 120 427 c 0,6,7
 105 352 105 352 105 299 c 0,8,9
 105 233 105 233 117 183 c 0,10,11
 123 156 123 156 150 72 c 0,12,13
 209 -111 209 -111 209 -145 c 0,14,15
 209 -161 209 -161 197 -171 c 128,-1,16
 185 -181 185 -181 169 -181 c 0,17,18
 133 -181 133 -181 96 -118 c 0,19,20
 71 -75 71 -75 63 -42 c 1,21,22
 47 -10 47 -10 27 54 c 1,23,24
 9 186 9 186 9 295 c 0,25,26
 9 418 9 418 60 624 c 1,27,28
 68 635 68 635 87 664 c 1,29,30
 92 686 92 686 108 721 c 0,31,32
 117 733 117 733 137.5 744 c 128,-1,33
 158 755 158 755 173 755 c 0,34,35
 189 755 189 755 203 742 c 128,-1,36
 217 729 217 729 217 715 c 0,0,1
EndSplineSet
Validated: 1
EndChar

StartChar: parenright
Encoding: 41 41 12
Width: 288
GlyphClass: 2
Flags: W
LayerCount: 2
Fore
SplineSet
276 252 m 0,0,1
 276 240 276 240 271.5 234 c 128,-1,2
 267 228 267 228 262 223 c 1,3,4
 261 210 261 210 263 158 c 0,5,6
 264 117 264 117 257 95 c 0,7,8
 246 49 246 49 217 -42 c 1,9,10
 157 -180 157 -180 104 -180 c 0,11,12
 93 -180 93 -180 87 -176 c 128,-1,13
 81 -172 81 -172 79 -172 c 0,14,15
 68 -160 68 -160 68 -136 c 0,16,17
 68 -127 68 -127 95 -72 c 0,18,19
 124 -11 124 -11 129 9 c 0,20,21
 180 216 180 216 180 224 c 0,22,23
 180 347 180 347 166.5 406 c 128,-1,24
 153 465 153 465 108 598 c 0,25,26
 68 716 68 716 68 724 c 0,27,28
 68 756 68 756 104 756 c 0,29,30
 147 756 147 756 192.5 683 c 128,-1,31
 238 610 238 610 249 537 c 0,32,33
 259 474 259 474 268 366 c 0,34,35
 276 275 276 275 276 252 c 0,0,1
EndSplineSet
Validated: 1
EndChar

StartChar: asterisk
Encoding: 42 42 13
Width: 472
GlyphClass: 2
Flags: W
LayerCount: 2
Fore
SplineSet
438 614 m 0,0,1
 438 592 438 592 424 584 c 0,2,3
 391 569 391 569 323 527 c 1,4,5
 339 511 339 511 390 478 c 0,6,7
 425 455 425 455 425 435 c 0,8,9
 425 422 425 422 415 409 c 0,10,11
 403 393 403 393 387 393 c 0,12,13
 384 393 384 393 285 455 c 1,14,15
 258 445 258 445 258 394 c 0,16,17
 258 390 258 390 258 382 c 0,18,19
 259 375 259 375 259 371 c 0,20,21
 259 318 259 318 224 318 c 0,22,23
 194 318 194 318 194 351 c 0,24,25
 194 363 194 363 199.5 391.5 c 128,-1,26
 205 420 205 420 205 432 c 0,27,28
 205 459 205 459 182 459 c 0,29,30
 178 459 178 459 131.5 437 c 128,-1,31
 85 415 85 415 76 415 c 0,32,33
 59 415 59 415 44 435 c 0,34,35
 31 452 31 452 31 463 c 0,36,37
 31 481 31 481 91 507 c 128,-1,38
 151 533 151 533 151 536 c 0,39,40
 151 552 151 552 95.5 586.5 c 128,-1,41
 40 621 40 621 40 638 c 0,42,43
 40 654 40 654 56 668 c 0,44,45
 69 680 69 680 82 680 c 0,46,47
 102 680 102 680 127 660 c 0,48,49
 173 621 173 621 185 614 c 1,50,-1
 196 614 l 1,51,52
 206 624 206 624 205 655 c 0,53,54
 205 693 205 693 207 700 c 0,55,56
 208 716 208 716 210 745 c 1,57,58
 227 755 227 755 241 755 c 0,59,60
 267 755 267 755 275 726 c 0,61,62
 279 708 279 708 277 664.5 c 128,-1,63
 275 621 275 621 279 609 c 1,64,65
 275 605 275 605 286 605 c 0,66,67
 289 605 289 605 336.5 629.5 c 128,-1,68
 384 654 384 654 398 654 c 0,69,70
 438 654 438 654 438 614 c 0,0,1
EndSplineSet
Validated: 1
EndChar

StartChar: comma
Encoding: 44 44 14
Width: 437
GlyphClass: 2
Flags: W
LayerCount: 2
Fore
SplineSet
345 99 m 0,0,1
 345 44 345 44 318 -46 c 0,2,3
 312 -66 312 -66 247 -108 c 0,4,5
 197 -140 197 -140 192 -142 c 0,6,7
 184 -145 184 -145 149 -145 c 0,8,9
 115 -145 115 -145 97 -135 c 1,10,11
 100 -126 100 -126 167 -58 c 0,12,13
 193 -33 193 -33 193 -1 c 0,14,15
 193 9 193 9 181 27 c 0,16,17
 171 40 171 40 162 53 c 1,18,19
 154 56 154 56 138 56 c 1,20,21
 138 68 138 68 125.5 98.5 c 128,-1,22
 113 129 113 129 113 139 c 256,23,24
 113 149 113 149 126 177 c 0,25,26
 145 216 145 216 145 218 c 0,27,28
 159 231 159 231 213 231 c 0,29,30
 345 231 345 231 345 99 c 0,0,1
EndSplineSet
Validated: 1
EndChar

StartChar: period
Encoding: 46 46 15
Width: 387
GlyphClass: 2
Flags: W
LayerCount: 2
Fore
SplineSet
310 112 m 0,0,1
 310 -4 310 -4 222 -4 c 0,2,3
 199 -4 199 -4 170 21 c 0,4,5
 147 41 147 41 139 55 c 1,6,7
 128 62 128 62 107 79 c 1,8,9
 108 92 108 92 93 120 c 128,-1,10
 78 148 78 148 78 156 c 0,11,12
 78 198 78 198 111 225 c 128,-1,13
 144 252 144 252 186 252 c 0,14,15
 310 252 310 252 310 112 c 0,0,1
EndSplineSet
Validated: 1
EndChar

StartChar: slash
Encoding: 47 47 16
Width: 475
GlyphClass: 2
Flags: W
LayerCount: 2
Fore
SplineSet
532 725 m 2,0,1
 532 717 532 717 482 660 c 0,2,3
 426 598 426 598 414 573 c 0,4,5
 409 562 409 562 394 498 c 0,6,7
 380 442 380 442 361 412 c 1,8,9
 328 372 328 372 270 285 c 1,10,11
 245 220 245 220 193 93 c 0,12,13
 192 91 192 91 158 68 c 1,14,15
 139 -10 139 -10 102 -36 c 1,16,17
 102 -57 102 -57 97 -91 c 1,18,19
 90 -110 90 -110 35 -179 c 0,20,21
 28 -182 28 -182 22 -185 c 0,22,23
 12 -190 12 -190 0 -190 c 0,24,25
 -11 -190 -11 -190 -21 -185.5 c 128,-1,26
 -31 -181 -31 -181 -33 -181 c 0,27,28
 -44 -171 -44 -171 -44 -154 c 0,29,30
 -44 -110 -44 -110 74 80 c 0,31,32
 142 190 142 190 198 271 c 1,33,34
 190 293 190 293 199 309 c 0,35,36
 272 456 272 456 423 752 c 0,37,38
 436 778 436 778 480 778 c 0,39,40
 491 778 491 778 507.5 773.5 c 128,-1,41
 524 769 524 769 532 769 c 1,42,-1
 532 725 l 2,0,1
EndSplineSet
Validated: 1
EndChar

StartChar: zero
Encoding: 48 48 17
Width: 584
GlyphClass: 2
Flags: W
LayerCount: 2
Fore
SplineSet
551 311 m 1,0,1
 539 303 539 303 525 288 c 1,2,3
 528 280 528 280 528 276 c 0,4,5
 528 274 528 274 524.5 267.5 c 128,-1,6
 521 261 521 261 522 248 c 0,7,8
 523 204 523 204 500 156 c 1,9,10
 489 156 489 156 488 161 c 128,-1,11
 487 166 487 166 479 166 c 1,12,13
 484 154 484 154 484 141 c 0,14,15
 484 90 484 90 413 37 c 0,16,17
 346 -12 346 -12 292 -12 c 0,18,19
 280 -12 280 -12 275 -7.5 c 128,-1,20
 270 -3 270 -3 266 2 c 0,21,22
 262 3 262 3 256.5 -0.5 c 128,-1,23
 251 -4 251 -4 240 -4 c 0,24,25
 210 -4 210 -4 170 23 c 0,26,27
 96 71 96 71 42 199 c 0,28,29
 31 224 31 224 30 286 c 1,30,31
 26 196 26 196 32 356 c 0,32,33
 36 501 36 501 70 547 c 0,34,35
 73 551 73 551 75 569 c 128,-1,36
 77 587 77 587 83 595 c 0,37,38
 97 614 97 614 113 634 c 128,-1,39
 129 654 129 654 146 665 c 0,40,41
 157 672 157 672 183 677 c 128,-1,42
 209 682 209 682 218 686 c 0,43,44
 266 708 266 708 300 708 c 0,45,46
 320 708 320 708 343 700 c 0,47,48
 362 693 362 693 381 686 c 1,49,50
 398 685 398 685 430 672 c 0,51,52
 439 665 439 665 482 609 c 1,53,54
 478 596 478 596 481 587 c 1,55,56
 501 580 501 580 511 542 c 0,57,58
 520 511 520 511 517 489 c 1,59,60
 522 476 522 476 530 456 c 1,61,62
 527 450 527 450 520 440 c 1,63,64
 533 427 533 427 551 427 c 1,65,-1
 551 311 l 1,0,1
472 368 m 1,66,67
 472 421 472 421 468 442 c 1,68,69
 453 453 453 453 437 498 c 0,70,71
 418 551 418 551 406 569 c 0,72,73
 383 604 383 604 344 604 c 0,74,75
 333 604 333 604 322 600 c 128,-1,76
 311 596 311 596 304 596 c 0,77,78
 273 596 273 596 264 615 c 1,79,80
 294 630 294 630 294 643 c 1,81,82
 278 639 278 639 247.5 615 c 128,-1,83
 217 591 217 591 203 587 c 1,84,85
 202 580 202 580 196 562 c 128,-1,86
 190 544 190 544 190 535 c 256,87,88
 190 526 190 526 194 520 c 1,89,90
 192 512 192 512 186 508 c 1,91,92
 162 508 162 508 152 498 c 1,93,94
 152 401 152 401 141 353 c 0,95,96
 139 345 139 345 129.5 335.5 c 128,-1,97
 120 326 120 326 120 316 c 0,98,99
 120 305 120 305 133.5 288 c 128,-1,100
 147 271 147 271 149 263 c 0,101,102
 155 241 155 241 162 150 c 1,103,104
 180 141 180 141 218 109 c 0,105,106
 237 92 237 92 273 92 c 2,107,-1
 311 92 l 2,108,109
 353 92 353 92 404 111 c 1,110,111
 409 125 409 125 431 153 c 0,112,113
 451 178 451 178 453 192 c 2,114,-1
 466 296 l 2,115,116
 470 333 470 333 460 359 c 1,117,-1
 472 368 l 1,66,67
EndSplineSet
Validated: 1
EndChar

StartChar: one
Encoding: 49 49 18
Width: 591
GlyphClass: 2
Flags: W
LayerCount: 2
Fore
SplineSet
547 24 m 1,0,1
 524 18 524 18 408 11 c 0,2,3
 404 7 404 7 399.5 2.5 c 128,-1,4
 395 -2 395 -2 383 -2 c 0,5,6
 375 -2 375 -2 354.5 6 c 128,-1,7
 334 14 334 14 323 14 c 0,8,9
 313 14 313 14 311 6 c 128,-1,10
 309 -2 309 -2 299 -2 c 256,11,12
 289 -2 289 -2 269 6 c 128,-1,13
 249 14 249 14 239 14 c 256,14,15
 229 14 229 14 227 6 c 128,-1,16
 225 -2 225 -2 215 -2 c 0,17,18
 99 -2 99 -2 60 33 c 1,19,-1
 60 85 l 1,20,21
 90 94 90 94 152 101 c 0,22,23
 235 111 235 111 237 111 c 0,24,25
 252 133 252 133 272 179 c 0,26,27
 274 188 274 188 269 202 c 0,28,29
 264 213 264 213 259 225 c 0,30,31
 259 227 259 227 267 240 c 128,-1,32
 275 253 275 253 275 262 c 0,33,34
 275 306 275 306 264 322 c 1,35,36
 266 330 266 330 269 346 c 0,37,38
 267 350 267 350 265 383 c 0,39,40
 264 403 264 403 243 418 c 1,41,42
 251 423 251 423 267 436 c 1,43,-1
 267 481 l 1,44,45
 244 504 244 504 236 504 c 1,46,47
 244 512 244 512 259 537 c 1,48,49
 237 546 237 546 177 554.5 c 128,-1,50
 117 563 117 563 91 573 c 0,51,52
 48 590 48 590 35 627 c 1,53,54
 51 652 51 652 74 659 c 0,55,56
 85 662 85 662 115 662 c 0,57,58
 329 662 329 662 368 628 c 1,59,60
 368 612 368 612 365 572.5 c 128,-1,61
 362 533 362 533 362 510 c 0,62,63
 362 455 362 455 376 418 c 1,64,65
 369 406 369 406 364 379 c 0,66,67
 357 338 357 338 357 337 c 0,68,69
 356 332 356 332 364 328 c 128,-1,70
 372 324 372 324 379 324 c 1,71,-1
 363 304 l 1,72,73
 362 292 362 292 395 277 c 1,74,-1
 395 223 l 1,75,76
 383 216 383 216 363 201 c 1,77,78
 363 196 363 196 372.5 189 c 128,-1,79
 382 182 382 182 384 179 c 0,80,81
 383 172 383 172 383 166 c 0,82,83
 383 133 383 133 414 109.5 c 128,-1,84
 445 86 445 86 475 86 c 0,85,86
 485 86 485 86 489 90 c 128,-1,87
 493 94 493 94 503 94 c 0,88,89
 530 94 530 94 547 59 c 1,90,-1
 547 24 l 1,0,1
EndSplineSet
Validated: 1
EndChar

StartChar: two
Encoding: 50 50 19
Width: 577
GlyphClass: 2
Flags: W
LayerCount: 2
Fore
SplineSet
532 128 m 0,0,1
 532 81 532 81 503 61 c 0,2,3
 462 32 462 32 448 4 c 0,4,5
 445 2 445 2 433 -7 c 1,6,7
 377 -7 377 -7 199 10 c 0,8,9
 198 11 198 11 187.5 21.5 c 128,-1,10
 177 32 177 32 164 32 c 0,11,12
 152 32 152 32 145 23 c 0,13,14
 131 3 131 3 129 1 c 2,15,-1
 62 1 l 1,16,17
 44 19 44 19 44 48 c 0,18,19
 44 92 44 92 98 154 c 0,20,21
 140 200 140 200 182 245 c 1,22,23
 181 253 181 253 189 274.5 c 128,-1,24
 197 296 197 296 197 303 c 1,25,26
 229 302 229 302 255 314 c 0,27,28
 273 323 273 323 288 339 c 0,29,30
 301 352 301 352 300 352 c 1,31,32
 308 352 308 352 308 350 c 0,33,34
 308 349 308 349 308 348 c 2,35,36
 308 348 308 348 307 347 c 0,37,38
 308 344 308 344 316 344 c 0,39,40
 327 344 327 344 366.5 377 c 128,-1,41
 406 410 406 410 409 421 c 0,42,43
 420 461 420 461 420 488 c 0,44,45
 420 520 420 520 401 548 c 0,46,47
 402 551 402 551 407 558.5 c 128,-1,48
 412 566 412 566 412 571 c 0,49,50
 394 589 394 589 351 592 c 0,51,52
 347 592 347 592 292 592 c 256,53,54
 237 592 237 592 223 587.5 c 128,-1,55
 209 583 209 583 209 564 c 0,56,57
 209 561 209 561 210 547.5 c 128,-1,58
 211 534 211 534 211 524 c 0,59,60
 211 486 211 486 200 444 c 1,61,62
 188 438 188 438 175 421.5 c 128,-1,63
 162 405 162 405 161 393 c 1,64,65
 148 408 148 408 118 424 c 0,66,67
 83 443 83 443 61 441 c 1,68,69
 61 451 61 451 52.5 486.5 c 128,-1,70
 44 522 44 522 44 532 c 256,71,72
 44 542 44 542 58 562 c 0,73,74
 74 587 74 587 78 598 c 0,75,76
 95 644 95 644 141 671 c 0,77,78
 182 695 182 695 221 690 c 1,79,80
 257 712 257 712 296 712 c 0,81,82
 321 712 321 712 337 709 c 0,83,84
 339 708 339 708 343.5 694 c 128,-1,85
 348 680 348 680 360 680 c 0,86,87
 368 680 368 680 368 683 c 0,88,89
 368 684 368 684 368 684 c 2,90,91
 368 685 368 685 367 686 c 0,92,93
 368 688 368 688 376 688 c 0,94,95
 385 688 385 688 433.5 656 c 128,-1,96
 482 624 482 624 488 614 c 0,97,98
 489 614 489 614 494 574 c 1,99,100
 503 561 503 561 512 556 c 0,101,102
 513 552 513 552 518.5 534 c 128,-1,103
 524 516 524 516 524 504 c 0,104,105
 524 498 524 498 489 395 c 1,106,107
 477 375 477 375 449 377 c 0,108,109
 447 375 447 375 447 372 c 256,110,111
 447 369 447 369 452.5 357.5 c 128,-1,112
 458 346 458 346 456 339 c 0,113,114
 448 323 448 323 426 299 c 1,115,116
 406 297 406 297 362 278 c 1,117,118
 334 260 334 260 305 242 c 0,119,120
 270 218 270 218 250 195 c 1,121,122
 238 190 238 190 218 182 c 1,123,124
 212 170 212 170 196 141 c 1,125,126
 219 121 219 121 242 102 c 0,127,128
 268 80 268 80 280 80 c 2,129,-1
 356 80 l 2,130,131
 387 80 387 80 398 82 c 1,132,133
 413 117 413 117 446 181 c 0,134,135
 445 184 445 184 440.5 192.5 c 128,-1,136
 436 201 436 201 436 206 c 0,137,138
 455 224 455 224 468 224 c 0,139,140
 479 224 479 224 491.5 219.5 c 128,-1,141
 504 215 504 215 507 215 c 1,142,143
 507 198 507 198 519.5 167.5 c 128,-1,144
 532 137 532 137 532 128 c 0,0,1
EndSplineSet
Validated: 1
EndChar

StartChar: three
Encoding: 51 51 20
Width: 548
GlyphClass: 2
Flags: W
LayerCount: 2
Fore
SplineSet
515 263 m 0,0,1
 515 237 515 237 488 138 c 1,2,3
 478 126 478 126 461 106 c 1,4,5
 460 93 460 93 455 73 c 1,6,7
 449 70 449 70 432 54.5 c 128,-1,8
 415 39 415 39 401 34 c 0,9,10
 361 18 361 18 292 4 c 0,11,12
 231 -9 231 -9 211 -9 c 0,13,14
 200 -9 200 -9 86 34 c 0,15,16
 67 41 67 41 43 93 c 128,-1,17
 19 145 19 145 19 167 c 0,18,19
 19 211 19 211 38 232 c 0,20,21
 50 245 50 245 82 259 c 128,-1,22
 114 273 114 273 128 287 c 1,23,24
 159 251 159 251 187 237 c 1,25,-1
 187 185 l 1,26,27
 160 183 160 183 155.5 161.5 c 128,-1,28
 151 140 151 140 147 117 c 1,29,30
 191 87 191 87 231 87 c 0,31,32
 240 87 240 87 278 91 c 0,33,34
 321 96 321 96 342 97 c 1,35,36
 367 117 367 117 367 132 c 0,37,38
 367 135 367 135 366 138 c 1,39,40
 372 140 372 140 412 164 c 1,41,42
 401 186 401 186 398 256 c 0,43,44
 397 311 397 311 379 311 c 0,45,46
 371 311 371 311 371 309 c 0,47,48
 371 308 371 308 371 307 c 1,49,50
 372 307 372 307 372 306 c 0,51,52
 371 303 371 303 363 303 c 0,53,54
 356 303 356 303 339.5 323 c 128,-1,55
 323 343 323 343 307 343 c 0,56,57
 297 343 297 343 292.5 335.5 c 128,-1,58
 288 328 288 328 278 328 c 2,59,-1
 204 328 l 1,60,-1
 204 378 l 2,61,62
 204 420 204 420 247.5 466 c 128,-1,63
 291 512 291 512 291 543 c 0,64,65
 291 569 291 569 270 586 c 0,66,67
 253 599 253 599 235 599 c 0,68,69
 215 599 215 599 197 586 c 0,70,71
 195 585 195 585 152 546 c 1,72,73
 154 538 154 538 154 530 c 0,74,75
 154 497 154 497 133.5 476.5 c 128,-1,76
 113 456 113 456 77 456 c 1,77,78
 51 584 51 584 51 583 c 1,79,80
 51 630 51 630 62 652 c 0,81,82
 79 687 79 687 127 687 c 0,83,84
 130 687 130 687 215 681.5 c 128,-1,85
 300 676 300 676 341 676 c 0,86,87
 355 676 355 676 386 665.5 c 128,-1,88
 417 655 417 655 423 655 c 0,89,90
 435 655 435 655 441.5 662.5 c 128,-1,91
 448 670 448 670 450 670 c 1,92,93
 450 668 450 668 454.5 652.5 c 128,-1,94
 459 637 459 637 459 627 c 256,95,96
 459 617 459 617 415 555 c 128,-1,97
 371 493 371 493 371 483 c 0,98,99
 371 451 371 451 394 451 c 0,100,101
 401 451 401 451 410 455 c 1,102,103
 410 452 410 452 407 439 c 128,-1,104
 404 426 404 426 405 421 c 0,105,106
 436 385 436 385 467 350 c 0,107,108
 515 293 515 293 515 263 c 0,0,1
EndSplineSet
Validated: 1
EndChar

StartChar: four
Encoding: 52 52 21
Width: 594
GlyphClass: 2
Flags: W
LayerCount: 2
Fore
SplineSet
551 178 m 1,0,1
 542 169 542 169 523 169 c 0,2,3
 513 169 513 169 509 161 c 128,-1,4
 505 153 505 153 495 153 c 0,5,6
 489 153 489 153 471.5 161 c 128,-1,7
 454 169 454 169 443 169 c 0,8,9
 433 169 433 169 415 160 c 0,10,11
 386 145 386 145 382 143 c 0,12,13
 376 132 376 132 370 120 c 0,14,15
 361 106 361 106 351 101 c 1,16,17
 372 96 372 96 406 77 c 0,18,19
 407 76 407 76 417 56 c 0,20,21
 424 41 424 41 435 41 c 0,22,23
 462 41 462 41 495 20 c 1,24,25
 462 16 462 16 381 0 c 0,26,27
 309 -15 309 -15 299 -15 c 0,28,29
 243 -15 243 -15 176 12 c 1,30,31
 213 70 213 70 251 78 c 0,32,33
 273 82 273 82 295 87 c 0,34,35
 324 92 324 92 344 102 c 1,36,37
 331 118 331 118 305 114 c 1,38,39
 305 118 305 118 314.5 129 c 128,-1,40
 324 140 324 140 328 148 c 1,41,42
 290 162 290 162 227 162 c 0,43,44
 187 162 187 162 123 155 c 0,45,46
 42 147 42 147 33 146 c 1,47,-1
 33 224 l 1,48,49
 52 224 52 224 61 239 c 1,50,51
 59 252 59 252 66 279 c 1,52,53
 80 303 80 303 113 346 c 0,54,55
 151 396 151 396 162 412 c 1,56,57
 175 420 175 420 194 447 c 1,58,59
 235 569 235 569 330 672 c 1,60,-1
 365 672 l 1,61,62
 366 664 366 664 371.5 623 c 128,-1,63
 377 582 377 582 377 557 c 0,64,65
 377 518 377 518 369 486 c 0,66,67
 372 483 372 483 380 471 c 0,68,69
 382 467 382 467 378 453 c 0,70,71
 373 436 373 436 372 429 c 0,72,73
 372 423 372 423 376 413 c 128,-1,74
 380 403 380 403 380 399 c 0,75,76
 380 389 380 389 367 381 c 1,77,78
 371 377 371 377 383 370 c 128,-1,79
 395 363 395 363 399 359 c 0,80,81
 399 356 399 356 391 346.5 c 128,-1,82
 383 337 383 337 383 325 c 0,83,84
 383 314 383 314 400 288 c 0,85,86
 424 250 424 250 429 241 c 0,87,88
 432 242 432 242 449 256 c 0,89,90
 461 265 461 265 475 265 c 0,91,92
 495 265 495 265 498 260 c 0,93,94
 511 243 511 243 551 216 c 1,95,-1
 551 178 l 1,0,1
319 374 m 1,96,97
 315 378 315 378 300.5 387.5 c 128,-1,98
 286 397 286 397 282 401 c 1,99,100
 282 384 282 384 268 369 c 1,101,-1
 251 385 l 1,102,103
 243 367 243 367 215 322 c 0,104,105
 191 284 191 284 191 273 c 0,106,107
 191 253 191 253 203 241 c 1,108,109
 212 246 212 246 222 244 c 0,110,111
 240 241 240 241 243 241 c 0,112,113
 255 241 255 241 263.5 253.5 c 128,-1,114
 272 266 272 266 274 266 c 0,115,116
 283 257 283 257 283 241 c 1,117,118
 290 261 290 261 301 311 c 0,119,120
 312 358 312 358 319 374 c 1,96,97
EndSplineSet
Validated: 1
EndChar

StartChar: five
Encoding: 53 53 22
Width: 574
GlyphClass: 2
Flags: W
LayerCount: 2
Fore
SplineSet
532 249 m 0,0,1
 532 192 532 192 481 120 c 1,2,3
 489 98 489 98 488 96 c 0,4,5
 481 91 481 91 459 56 c 0,6,7
 441 29 441 29 420 29 c 0,8,9
 412 29 412 29 412 31 c 0,10,11
 412 32 412 32 412 33 c 1,12,13
 413 33 413 33 413 34 c 0,14,15
 412 37 412 37 404 37 c 0,16,17
 392 37 392 37 370 -1 c 1,18,19
 342 -3 342 -3 276 -3 c 0,20,21
 264 -3 264 -3 244.5 -4.5 c 128,-1,22
 225 -6 225 -6 216 -6 c 0,23,24
 161 -6 161 -6 80 53 c 0,25,26
 76 57 76 57 63.5 80 c 128,-1,27
 51 103 51 103 39 112 c 1,28,29
 36 121 36 121 36 141 c 0,30,31
 36 147 36 147 42 171.5 c 128,-1,32
 48 196 48 196 48 207 c 0,33,34
 48 213 48 213 47 218 c 0,35,36
 61 237 61 237 94 265 c 0,37,38
 98 267 98 267 119 272 c 0,39,40
 136 275 136 275 145 285 c 1,41,42
 159 256 159 256 159 245 c 0,43,44
 159 239 159 239 156 233 c 1,45,46
 170 216 170 216 195 220 c 1,47,48
 195 210 195 210 182 198 c 128,-1,49
 169 186 169 186 156 175 c 1,50,-1
 156 98 l 1,51,52
 170 84 170 84 175 84 c 0,53,54
 179 88 179 88 179.5 100.5 c 128,-1,55
 180 113 180 113 184 117 c 1,56,57
 195 106 195 106 195 75 c 1,58,59
 206 75 206 75 230 72 c 128,-1,60
 254 69 254 69 264 69 c 0,61,62
 273 69 273 69 302 77 c 128,-1,63
 331 85 331 85 343 86 c 1,64,65
 347 97 347 97 360 114 c 1,66,67
 366 111 366 111 370 111 c 0,68,69
 383 111 383 111 398 135 c 0,70,71
 420 170 420 170 436 185 c 1,72,73
 421 198 421 198 398 228 c 1,74,-1
 418 212 l 2,75,76
 423 212 423 212 437 226 c 1,77,-1
 437 279 l 1,78,79
 431 285 431 285 417 284 c 0,80,81
 405 283 405 283 398 277 c 1,82,83
 401 293 401 293 401 308 c 0,84,85
 401 348 401 348 383 362 c 1,86,87
 367 363 367 363 326.5 372 c 128,-1,88
 286 381 286 381 276 381 c 0,89,90
 253 381 253 381 145 317 c 1,91,92
 120 324 120 324 117 365 c 0,93,94
 112 434 112 434 110 440 c 0,95,96
 108 447 108 447 112 468 c 0,97,98
 116 494 116 494 116 505 c 0,99,100
 116 512 116 512 108 531 c 128,-1,101
 100 550 100 550 100 561 c 256,102,103
 100 572 100 572 106 574 c 128,-1,104
 112 576 112 576 113 578 c 0,105,106
 121 623 121 623 109 659 c 1,107,108
 104 659 104 659 130 661 c 0,109,110
 160 664 160 664 221 666 c 0,111,112
 308 668 308 668 450 668 c 1,113,114
 455 646 455 646 468 599 c 1,115,116
 451 588 451 588 388 578 c 0,117,118
 333 571 333 571 320 549 c 1,119,120
 301 581 301 581 272 581 c 0,121,122
 257 581 257 581 241 561 c 0,123,124
 220 534 220 534 212 529 c 1,125,126
 242 509 242 509 251 478 c 1,127,128
 298 471 298 471 345 465 c 0,129,130
 402 456 402 456 426 441 c 0,131,132
 445 429 445 429 468 395 c 128,-1,133
 491 361 491 361 504 352 c 1,134,135
 532 285 532 285 532 249 c 0,0,1
EndSplineSet
Validated: 1
EndChar

StartChar: six
Encoding: 54 54 23
Width: 531
GlyphClass: 2
Flags: W
LayerCount: 2
Fore
SplineSet
497 226 m 1,0,1
 497 216 497 216 492 200 c 0,2,3
 484 179 484 179 483.5 175 c 128,-1,4
 483 171 483 171 480 137 c 0,5,6
 478 114 478 114 470 102 c 0,7,8
 427 42 427 42 376 5 c 0,9,10
 366 -2 366 -2 340 -6 c 0,11,12
 308 -10 308 -10 300 -13 c 1,13,14
 296 -1 296 -1 291 12.5 c 128,-1,15
 286 26 286 26 277 34 c 1,16,17
 272 29 272 29 272 4 c 1,18,19
 270 4 270 4 263.5 -1 c 128,-1,20
 257 -6 257 -6 245 -6 c 0,21,22
 219 -6 219 -6 186 13 c 0,23,24
 147 37 147 37 108 60 c 1,25,26
 108 66 108 66 84 102 c 0,27,28
 41 166 41 166 41 322 c 0,29,30
 41 454 41 454 91 553 c 0,31,32
 158 682 158 682 289 682 c 0,33,34
 362 682 362 682 376 671 c 0,35,36
 407 646 407 646 438 621 c 0,37,38
 473 589 473 589 473 562 c 0,39,40
 473 536 473 536 449 492 c 0,41,42
 424 445 424 445 401 438 c 1,43,44
 437 412 437 412 465 358 c 128,-1,45
 493 304 493 304 493 260 c 0,46,47
 493 245 493 245 489 233 c 1,48,-1
 497 226 l 1,0,1
368 459 m 1,49,-1
 368 487 l 1,50,51
 344 539 344 539 344 593 c 1,52,53
 305 592 305 592 259 602 c 1,54,55
 246 569 246 569 230 562 c 1,56,57
 226 566 226 566 225 578 c 128,-1,58
 224 590 224 590 220 594 c 1,59,60
 211 567 211 567 154 529 c 1,61,-1
 154 485 l 1,62,63
 163 476 163 476 171.5 460 c 128,-1,64
 180 444 180 444 181 442 c 1,65,66
 207 467 207 467 224 472 c 0,67,68
 234 474 234 474 273 474 c 0,69,70
 283 474 283 474 299.5 470 c 128,-1,71
 316 466 316 466 325 466 c 0,72,73
 359 466 359 466 368 459 c 1,49,-1
425 186 m 0,74,75
 425 198 425 198 416 229 c 0,76,77
 405 267 405 267 403 280 c 1,78,79
 393 299 393 299 362 313 c 1,80,81
 360 335 360 335 359 338 c 0,82,83
 356 352 356 352 349 361 c 0,84,85
 316 387 316 387 284 386 c 2,86,-1
 258 386 l 1,87,88
 265 362 265 362 244 348 c 1,89,90
 189 344 189 344 172 329 c 0,91,92
 169 325 169 325 164 277 c 0,93,94
 161 238 161 238 129 231 c 1,95,96
 164 219 164 219 162 200 c 1,97,98
 146 184 146 184 146 181 c 0,99,100
 217 133 217 133 279 83 c 1,101,102
 274 102 274 102 300 123 c 1,103,104
 317 88 317 88 327 91 c 0,105,106
 425 165 425 165 425 186 c 0,74,75
360 32 m 1,107,-1
 360 46 l 1,108,-1
 331 46 l 1,109,-1
 331 32 l 1,110,-1
 360 32 l 1,107,-1
EndSplineSet
Validated: 1
EndChar

StartChar: seven
Encoding: 55 55 24
Width: 548
GlyphClass: 2
Flags: W
LayerCount: 2
Fore
SplineSet
526 636 m 1,0,1
 517 636 517 636 502 622 c 1,2,3
 502 610 502 610 517 610 c 1,4,5
 518 603 518 603 506 590 c 0,6,7
 491 575 491 575 488 566 c 0,8,9
 464 498 464 498 458 486 c 0,10,11
 433 435 433 435 399 421 c 1,12,13
 400 408 400 408 395 382 c 0,14,15
 388 364 388 364 360 331 c 0,16,17
 329 294 329 294 320 277 c 0,18,19
 270 187 270 187 270 111 c 0,20,21
 270 92 270 92 274 54 c 128,-1,22
 278 16 278 16 278 -3 c 1,23,24
 246 -21 246 -21 218 -21 c 256,25,26
 190 -21 190 -21 174 47 c 0,27,28
 174 58 174 58 179 76 c 0,29,30
 184 98 184 98 184 104 c 0,31,32
 188 152 188 152 201 249 c 1,33,34
 207 257 207 257 231 281 c 0,35,36
 231 286 231 286 222 293 c 0,37,38
 207 304 207 304 207 304 c 1,39,40
 220 308 220 308 238 329 c 0,41,42
 261 356 261 356 268 361 c 1,43,44
 266 378 266 378 272 411 c 1,45,46
 298 411 298 411 307.5 420.5 c 128,-1,47
 317 430 317 430 322 455 c 1,48,49
 332 456 332 456 359 473 c 1,50,-1
 359 540 l 1,51,52
 302 536 302 536 173 540 c 1,53,54
 165 513 165 513 165 437 c 1,55,56
 159 437 159 437 134 432 c 128,-1,57
 109 427 109 427 98 427 c 0,58,59
 74 427 74 427 57 437 c 1,60,61
 38 527 38 527 38 599 c 0,62,63
 38 699 38 699 114 699 c 0,64,65
 124 699 124 699 140.5 689 c 128,-1,66
 157 679 157 679 163 677 c 0,67,68
 175 675 175 675 204 677 c 0,69,70
 237 679 237 679 251 677 c 0,71,72
 272 675 272 675 320 663 c 0,73,74
 365 651 365 651 374 651 c 0,75,76
 398 651 398 651 442 661 c 0,77,78
 444 662 444 662 458 676.5 c 128,-1,79
 472 691 472 691 482 691 c 0,80,81
 500 691 500 691 526 665 c 1,82,-1
 526 636 l 1,0,1
EndSplineSet
Validated: 1
EndChar

StartChar: eight
Encoding: 56 56 25
Width: 558
GlyphClass: 2
Flags: W
LayerCount: 2
Fore
SplineSet
521 214 m 0,0,1
 502 181 502 181 502 175 c 0,2,3
 502 167 502 167 507 158 c 0,4,5
 505 154 505 154 500 116 c 0,6,7
 496 83 496 83 485 68 c 0,8,9
 461 32 461 32 424 13 c 128,-1,10
 387 -6 387 -6 273 -6 c 0,11,12
 109 -6 109 -6 86 100 c 1,13,14
 80 108 80 108 67 124 c 1,15,16
 49 164 49 164 49 198 c 0,17,18
 49 206 49 206 62.5 252.5 c 128,-1,19
 76 299 76 299 78 320 c 1,20,21
 89 327 89 327 121 374 c 1,22,23
 102 393 102 393 83.5 422.5 c 128,-1,24
 65 452 65 452 65 466 c 0,25,26
 65 496 65 496 93 570 c 0,27,28
 125 649 125 649 148.5 655 c 128,-1,29
 172 661 172 661 231 668 c 0,30,31
 285 674 285 674 301 674 c 0,32,33
 381 674 381 674 406 663 c 0,34,35
 443 646 443 646 471 598.5 c 128,-1,36
 499 551 499 551 494 526 c 0,37,38
 497 521 497 521 500 517 c 0,39,40
 505 510 505 510 505 498 c 0,41,42
 505 488 505 488 477 438 c 128,-1,43
 449 388 449 388 449 378 c 0,44,45
 449 370 449 370 469 338 c 0,46,47
 493 300 493 300 501 271 c 0,48,49
 503 267 503 267 500 255 c 0,50,51
 497 240 497 240 497 238 c 0,52,53
 497 233 497 233 506 226 c 0,54,55
 520 215 520 215 521 214 c 0,0,1
409 498 m 0,56,57
 409 519 409 519 397 534 c 0,58,59
 381 549 381 549 351 574 c 1,60,61
 334 578 334 578 317 583 c 0,62,63
 293 589 293 589 276 618 c 1,64,65
 275 594 275 594 239 578 c 0,66,67
 178 549 178 549 161 537 c 1,68,69
 161 520 161 520 169.5 485.5 c 128,-1,70
 178 451 178 451 178 435 c 1,71,72
 231 447 231 447 235 450 c 1,73,74
 259 418 259 418 309 418 c 0,75,76
 345 418 345 418 359 421 c 1,77,78
 371 440 371 440 395 463 c 0,79,80
 409 476 409 476 409 498 c 0,56,57
457 182 m 1,81,82
 440 190 440 190 417 206 c 1,83,84
 450 239 450 239 448 248 c 1,85,86
 401 291 401 291 399 292 c 0,87,88
 381 306 381 306 361 306 c 0,89,90
 351 306 351 306 347 302 c 128,-1,91
 343 298 343 298 333 298 c 256,92,93
 323 298 323 298 305 314 c 128,-1,94
 287 330 287 330 277 330 c 256,95,96
 267 330 267 330 231 311 c 0,97,98
 191 291 191 291 177 288 c 1,99,100
 180 282 180 282 180 277 c 0,101,102
 180 264 180 264 150.5 239.5 c 128,-1,103
 121 215 121 215 121 190 c 0,104,105
 121 178 121 178 124 164 c 0,106,107
 130 143 130 143 131 141 c 0,108,109
 133 127 133 127 156 108.5 c 128,-1,110
 179 90 179 90 193 90 c 0,111,112
 203 90 203 90 203 94 c 128,-1,113
 203 98 203 98 213 98 c 0,114,115
 224 98 224 98 232.5 86 c 128,-1,116
 241 74 241 74 249 62 c 1,117,118
 245 58 245 58 237 53.5 c 128,-1,119
 229 49 229 49 225 45 c 1,120,-1
 263 35 l 2,121,122
 263 38 263 38 260 58 c 0,123,124
 257 70 257 70 262 74 c 1,125,126
 255 74 255 74 328 74 c 0,127,128
 338 74 338 74 364.5 97 c 128,-1,129
 391 120 391 120 405 125 c 1,130,131
 410 148 410 148 423 168 c 1,132,133
 436 171 436 171 457 182 c 1,81,82
EndSplineSet
Validated: 1
EndChar

StartChar: nine
Encoding: 57 57 26
Width: 597
GlyphClass: 2
Flags: W
LayerCount: 2
Fore
SplineSet
556 341 m 0,0,1
 556 332 556 332 547 293 c 0,2,3
 537 251 537 251 536 236 c 1,4,5
 516 228 516 228 513 220 c 0,6,7
 508 170 508 170 488 98 c 1,8,9
 477 92 477 92 459 71 c 128,-1,10
 441 50 441 50 425 43 c 0,11,12
 424 42 424 42 365 8 c 0,13,14
 339 -7 339 -7 296 -7 c 0,15,16
 257 -7 257 -7 215 3 c 0,17,18
 212 3 212 3 202.5 18 c 128,-1,19
 193 33 193 33 182 38 c 0,20,21
 144 57 144 57 126 66 c 1,22,23
 125 83 125 83 116.5 119 c 128,-1,24
 108 155 108 155 108 165 c 0,25,26
 108 188 108 188 159 224 c 1,27,-1
 186 224 l 1,28,29
 190 220 190 220 189 207 c 256,30,31
 188 194 188 194 187 191 c 1,32,33
 207 183 207 183 240 164 c 1,34,35
 246 154 246 154 241 141 c 1,36,37
 266 105 266 105 296 105 c 0,38,39
 306 105 306 105 334 114 c 0,40,41
 370 127 370 127 382 130 c 0,42,43
 387 134 387 134 389 144 c 0,44,45
 390 150 390 150 391 157 c 1,46,47
 406 161 406 161 432 188 c 0,48,49
 467 223 467 223 476 230 c 1,50,-1
 476 284 l 1,51,52
 472 286 472 286 467 288 c 0,53,54
 459 294 459 294 459 303 c 256,55,56
 459 312 459 312 468 324 c 0,57,58
 474 329 474 329 456 329 c 0,59,60
 446 329 446 329 422 310 c 0,61,62
 394 289 394 289 386 286 c 128,-1,63
 378 283 378 283 366.5 262 c 128,-1,64
 355 241 355 241 344 241 c 0,65,66
 334 241 334 241 322 249 c 128,-1,67
 310 257 310 257 300 257 c 256,68,69
 290 257 290 257 258 249 c 128,-1,70
 226 241 226 241 216 241 c 0,71,72
 207 241 207 241 180 262 c 0,73,74
 150 286 150 286 134 291 c 0,75,76
 133 292 133 292 121 323 c 0,77,78
 116 330 116 330 96.5 338.5 c 128,-1,79
 77 347 77 347 70 355 c 1,80,81
 52 429 52 429 52 489 c 0,82,83
 52 578 52 578 122 639 c 0,84,85
 189 697 189 697 280 697 c 0,86,87
 302 697 302 697 324 688 c 0,88,89
 355 676 355 676 361 674 c 0,90,91
 385 671 385 671 434 653 c 0,92,93
 440 649 440 649 455 630 c 128,-1,94
 470 611 470 611 483 607 c 0,95,96
 483 603 483 603 460 580 c 1,97,98
 489 549 489 549 536 478 c 1,99,100
 556 435 556 435 556 341 c 0,0,1
459 427 m 1,101,-1
 459 528 l 1,102,103
 441 525 441 525 428.5 538.5 c 128,-1,104
 416 552 416 552 416 568 c 0,105,106
 416 576 416 576 419 582 c 1,107,108
 347 597 347 597 318 616 c 1,109,110
 318 590 318 590 298 592 c 1,111,112
 281 610 281 610 280 617 c 1,113,114
 282 600 282 600 263 585 c 1,115,116
 212 597 212 597 173 583 c 1,117,118
 170 567 170 567 157 522 c 0,119,120
 148 488 148 488 148 477 c 0,121,122
 148 473 148 473 153.5 465 c 128,-1,123
 159 457 159 457 158 427 c 1,124,125
 165 423 165 423 177 411 c 1,126,127
 179 403 179 403 175.5 388 c 128,-1,128
 172 373 172 373 173 370 c 0,129,130
 195 361 195 361 236 336 c 0,131,132
 260 321 260 321 296 321 c 0,133,134
 306 321 306 321 330 337 c 128,-1,135
 354 353 354 353 364 353 c 0,136,137
 372 353 372 353 372 350 c 0,138,139
 372 349 372 349 372 349 c 2,140,141
 371 348 371 348 371 347 c 0,142,143
 372 345 372 345 380 345 c 0,144,145
 392 345 392 345 408 360 c 0,146,147
 418 370 418 370 428 381 c 1,148,149
 414 394 414 394 414 402 c 0,150,151
 414 406 414 406 417 409 c 0,152,153
 441 404 441 404 459 427 c 1,101,-1
EndSplineSet
Validated: 1
EndChar

StartChar: colon
Encoding: 58 58 27
Width: 309
GlyphClass: 2
Flags: W
LayerCount: 2
Fore
SplineSet
226 354 m 0,0,1
 214 342 214 342 191 315 c 1,2,3
 169 310 169 310 146 310 c 0,4,5
 109 310 109 310 83 334 c 128,-1,6
 57 358 57 358 57 395 c 0,7,8
 57 506 57 506 203 521 c 1,9,10
 209 499 209 499 229 465 c 0,11,12
 251 426 251 426 251 403 c 0,13,14
 251 382 251 382 226 354 c 0,0,1
178 -26 m 1,15,-1
 74 -26 l 1,16,-1
 74 82 l 2,17,18
 74 112 74 112 104 133 c 0,19,20
 131 152 131 152 154 152 c 0,21,22
 195 152 195 152 219 128 c 1,23,-1
 234 206 l 1,24,25
 268 146 268 146 278 120 c 0,26,27
 290 89 290 89 290 55 c 1,28,-1
 240 55 l 1,29,30
 229 24 229 24 178 -26 c 1,15,-1
EndSplineSet
Validated: 1
EndChar

StartChar: semicolon
Encoding: 59 59 28
Width: 338
GlyphClass: 2
Flags: W
LayerCount: 2
Fore
SplineSet
180 307 m 0,0,1
 149 307 149 307 114 339 c 128,-1,2
 79 371 79 371 79 396 c 0,3,4
 79 423 79 423 107 462 c 0,5,6
 140 509 140 509 180 509 c 0,7,8
 222 509 222 509 248 464 c 0,9,10
 265 432 265 432 265 412 c 0,11,12
 265 390 265 390 242 353 c 0,13,14
 214 307 214 307 180 307 c 0,0,1
284 -32 m 0,15,16
 282 -49 282 -49 276 -86 c 0,17,18
 274 -88 274 -88 226 -141 c 0,19,20
 198 -173 198 -173 160 -173 c 0,21,22
 129 -173 129 -173 96 -140 c 1,23,-1
 96 -92 l 1,24,25
 135 -54 135 -54 135 -20 c 0,26,27
 135 -14 135 -14 115 27 c 128,-1,28
 95 68 95 68 95 84 c 0,29,30
 95 113 95 113 123 149 c 0,31,32
 153 189 153 189 184 189 c 0,33,34
 246 189 246 189 273 112 c 0,35,36
 289 65 289 65 289 12 c 0,37,38
 289 -1 289 -1 284 -32 c 0,15,16
EndSplineSet
Validated: 1
EndChar

StartChar: question
Encoding: 63 63 29
Width: 556
GlyphClass: 2
Flags: W
LayerCount: 2
Fore
SplineSet
295 184 m 0,0,1
 291 168 291 168 288 154 c 1,2,3
 248 150 248 150 248 208 c 0,4,5
 248 249 248 249 260 269 c 0,6,7
 263 274 263 274 265.5 297.5 c 128,-1,8
 268 321 268 321 273 334 c 1,9,10
 289 340 289 340 305 346 c 0,11,12
 328 357 328 357 340 374 c 0,13,14
 357 398 357 398 373.5 439 c 128,-1,15
 390 480 390 480 390 495 c 0,16,17
 390 544 390 544 343 577 c 0,18,19
 300 607 300 607 254 607 c 0,20,21
 158 607 158 607 158 555 c 0,22,23
 158 545 158 545 186 517 c 128,-1,24
 214 489 214 489 214 479 c 0,25,26
 214 451 214 451 194 429 c 128,-1,27
 174 407 174 407 150 407 c 0,28,29
 102 407 102 407 86 459 c 0,30,31
 78 484 78 484 78 539 c 0,32,33
 78 646 78 646 164 682 c 0,34,35
 212 703 212 703 314 703 c 0,36,37
 332 703 332 703 427 637 c 1,38,39
 447 602 447 602 467 581 c 1,40,41
 478 562 478 562 478 507 c 0,42,43
 478 447 478 447 433 390 c 1,44,45
 390 343 390 343 347 297 c 0,46,47
 299 241 299 241 295 184 c 0,0,1
280 122 m 1,48,49
 280 113 280 113 307 94.5 c 128,-1,50
 334 76 334 76 334 67 c 0,51,52
 334 46 334 46 309 18.5 c 128,-1,53
 284 -9 284 -9 274 -9 c 0,54,55
 260 -9 260 -9 237 12 c 128,-1,56
 214 33 214 33 214 47 c 0,57,58
 214 60 214 60 218.5 65.5 c 128,-1,59
 223 71 223 71 228 77 c 1,60,61
 230 100 230 100 254 109 c 128,-1,62
 278 118 278 118 280 122 c 1,48,49
EndSplineSet
Validated: 1
EndChar

StartChar: at
Encoding: 64 64 30
Width: 689
GlyphClass: 2
Flags: W
LayerCount: 2
Fore
SplineSet
644 435 m 0,0,1
 644 373 644 373 641 352 c 0,2,3
 635 292 635 292 608 238 c 1,4,-1
 608 225 l 1,5,6
 620 220 620 220 632 214 c 0,7,8
 639 211 639 211 639 191 c 0,9,10
 639 125 639 125 555 64 c 0,11,12
 487 13 487 13 423 -1 c 0,13,14
 394 -8 394 -8 333 -8 c 0,15,16
 59 -8 59 -8 46 254 c 0,17,18
 46 260 46 260 42 280.5 c 128,-1,19
 38 301 38 301 38 308 c 0,20,21
 38 455 38 455 126 572 c 0,22,23
 226 705 226 705 384 705 c 0,24,25
 588 705 588 705 642 520 c 0,26,27
 644 513 644 513 644 435 c 0,0,1
578 422 m 0,28,29
 578 455 578 455 555 511 c 1,30,31
 537 487 537 487 494 391 c 0,32,33
 445 283 445 283 445 249 c 0,34,35
 445 227 445 227 451 216 c 1,36,-1
 479 216 l 1,37,38
 513 233 513 233 545.5 299.5 c 128,-1,39
 578 366 578 366 578 422 c 0,28,29
537 154 m 1,40,-1
 509 154 l 2,41,42
 503 155 503 155 469.5 142.5 c 128,-1,43
 436 130 436 130 430 130 c 0,44,45
 402 130 402 130 385.5 142.5 c 128,-1,46
 369 155 369 155 369 155 c 2,47,48
 363 155 363 155 348 144 c 128,-1,49
 333 133 333 133 325 131 c 0,50,51
 305 124 305 124 272 124 c 0,52,53
 214 124 214 124 179.5 160 c 128,-1,54
 145 196 145 196 145 259 c 0,55,56
 145 272 145 272 150 309 c 0,57,58
 156 350 156 350 161 365 c 0,59,60
 189 441 189 441 238 504 c 0,61,62
 301 582 301 582 361 582 c 256,63,64
 421 582 421 582 452 527 c 1,65,66
 471 543 471 543 482 546 c 0,67,68
 486 547 486 547 504 547 c 0,69,70
 528 547 528 547 531 545 c 1,71,72
 507 585 507 585 452 604 c 0,73,74
 413 618 413 618 371 618 c 0,75,76
 249 618 249 618 167 510 c 0,77,78
 94 415 94 415 94 308 c 0,79,80
 94 196 94 196 167 131 c 0,81,82
 236 68 236 68 346 68 c 0,83,84
 401 68 401 68 459 93.5 c 128,-1,85
 517 119 517 119 537 154 c 1,40,-1
399 404 m 0,86,87
 399 481 399 481 349 481 c 0,88,89
 303 481 303 481 258 408 c 0,90,91
 216 340 216 340 216 285 c 0,92,93
 216 266 216 266 227 243 c 0,94,95
 242 211 242 211 267 211 c 0,96,97
 305 211 305 211 338 252 c 0,98,99
 357 276 357 276 392 345 c 0,100,101
 399 359 399 359 399 404 c 0,86,87
EndSplineSet
Validated: 1
EndChar

StartChar: A
Encoding: 65 65 31
Width: 669
GlyphClass: 2
Flags: W
LayerCount: 2
Fore
SplineSet
615 18 m 1,0,1
 585 2 585 2 504 2 c 0,2,3
 417 2 417 2 351 20 c 1,4,5
 360 33 360 33 404 75 c 0,6,7
 439 108 439 108 439 118 c 256,8,9
 439 128 439 128 434 143 c 128,-1,10
 429 158 429 158 428 165 c 0,11,12
 421 177 421 177 394 181 c 1,13,14
 390 195 390 195 369 208 c 1,15,16
 322 226 322 226 259 226 c 0,17,18
 247 226 247 226 243 221.5 c 128,-1,19
 239 217 239 217 237 216 c 0,20,21
 236 212 236 212 216 181 c 0,22,23
 198 154 198 154 198 142 c 0,24,25
 198 103 198 103 270 47 c 1,26,-1
 270 4 l 1,27,28
 185 2 185 2 147 2 c 0,29,30
 77 2 77 2 71 2 c 0,31,32
 22 8 22 8 22 38 c 0,33,34
 22 71 22 71 47 81 c 0,35,36
 80 95 80 95 91 120 c 0,37,38
 100 136 100 136 112 207 c 0,39,40
 114 215 114 215 128.5 237 c 128,-1,41
 143 259 143 259 147 272 c 0,42,43
 150 281 150 281 152 314 c 0,44,45
 154 344 154 344 161 360 c 0,46,47
 203 460 203 460 203 505 c 0,48,49
 203 518 203 518 201 529 c 1,50,51
 227 547 227 547 239 602 c 0,52,53
 256 681 256 681 259 689 c 0,54,55
 277 732 277 732 323 732 c 0,56,57
 376 732 376 732 376 624 c 0,58,59
 376 584 376 584 369 567 c 1,60,61
 372 561 372 561 387.5 544.5 c 128,-1,62
 403 528 403 528 404 520 c 0,63,64
 406 481 406 481 417 416 c 1,65,66
 438 348 438 348 459 280 c 0,67,68
 492 176 492 176 521 120 c 0,69,70
 529 105 529 105 615 39 c 1,71,-1
 615 18 l 1,0,1
375 327 m 1,72,73
 356 349 356 349 356 370 c 0,74,75
 356 376 356 376 358.5 390 c 128,-1,76
 361 404 361 404 361 415 c 0,77,78
 361 428 361 428 357 442 c 1,79,80
 350 442 350 442 333 446.5 c 128,-1,81
 316 451 316 451 307 451 c 0,82,83
 273 451 273 451 265 405 c 0,84,85
 253 336 253 336 247 325 c 1,86,87
 288 298 288 298 327 298 c 0,88,89
 359 298 359 298 375 327 c 1,72,73
EndSplineSet
Validated: 1
EndChar

StartChar: B
Encoding: 66 66 32
Width: 637
GlyphClass: 2
Flags: W
LayerCount: 2
Fore
SplineSet
590 234 m 0,0,1
 590 201 590 201 552 146 c 1,2,3
 560 124 560 124 560 106 c 0,4,5
 560 48 560 48 476 16 c 0,6,7
 427 -2 427 -2 314 -2 c 1,8,9
 319 -2 319 -2 213 3 c 0,10,11
 113 8 113 8 60 6 c 1,12,-1
 47 0 l 1,13,-1
 47 41 l 2,14,15
 46 54 46 54 55 81 c 128,-1,16
 64 108 64 108 73 121 c 0,17,18
 80 125 80 125 87 128 c 0,19,20
 101 135 101 135 108 148 c 0,21,22
 117 166 117 166 117 193 c 0,23,24
 117 205 117 205 114 235 c 0,25,26
 111 262 111 262 112 275 c 256,27,28
 113 288 113 288 123 332 c 0,29,30
 131 372 131 372 131 394 c 0,31,32
 131 415 131 415 124 466 c 1,33,-1
 134 470 l 2,34,35
 134 472 134 472 131 505 c 0,36,37
 128 531 128 531 131 545 c 1,38,39
 106 568 106 568 57 615 c 0,40,41
 47 626 47 626 46 656 c 1,42,43
 45 624 45 624 47 709 c 1,44,45
 74 726 74 726 118 726 c 0,46,47
 128 726 128 726 202 714 c 128,-1,48
 276 702 276 702 286 702 c 0,49,50
 295 702 295 702 328 706 c 128,-1,51
 361 710 361 710 370 710 c 256,52,53
 379 710 379 710 392.5 700.5 c 128,-1,54
 406 691 406 691 418 691 c 0,55,56
 551 691 551 691 551 502 c 0,57,58
 551 483 551 483 550 463 c 1,59,60
 534 453 534 453 519 442 c 0,61,62
 510 434 510 434 510 414 c 0,63,64
 510 404 510 404 550 324 c 128,-1,65
 590 244 590 244 590 234 c 0,0,1
454 530 m 1,66,67
 419 566 419 566 421 581 c 1,68,69
 398 581 398 581 354.5 589.5 c 128,-1,70
 311 598 311 598 306 598 c 0,71,72
 253 598 253 598 233.5 579.5 c 128,-1,73
 214 561 214 561 214 522 c 0,74,75
 214 460 214 460 268 440 c 0,76,77
 296 430 296 430 362 430 c 0,78,79
 395 430 395 430 417 465 c 0,80,81
 436 498 436 498 454 530 c 1,66,67
502 250 m 0,82,83
 502 262 502 262 487 282 c 0,84,85
 477 293 477 293 467 305 c 0,86,87
 452 326 452 326 416 339 c 0,88,89
 360 358 360 358 266 358 c 0,90,91
 245 358 245 358 226 335 c 0,92,93
 202 306 202 306 191 300 c 0,94,95
 191 297 191 297 198 284.5 c 128,-1,96
 205 272 205 272 204 268 c 0,97,98
 182 236 182 236 182 222 c 0,99,100
 182 189 182 189 204 176 c 1,101,102
 201 156 201 156 201 120 c 1,103,104
 235 86 235 86 322 86 c 0,105,106
 332 86 332 86 344 82 c 128,-1,107
 356 78 356 78 366 78 c 0,108,109
 380 78 380 78 415.5 101 c 128,-1,110
 451 124 451 124 459 136 c 0,111,112
 474 160 474 160 488 198 c 128,-1,113
 502 236 502 236 502 250 c 0,82,83
EndSplineSet
Validated: 1
EndChar

StartChar: C
Encoding: 67 67 33
Width: 637
GlyphClass: 2
Flags: W
LayerCount: 2
Fore
SplineSet
575 216 m 0,0,1
 575 195 575 195 531 95 c 0,2,3
 519 67 519 67 466.5 31.5 c 128,-1,4
 414 -4 414 -4 383 -4 c 0,5,6
 374 -4 374 -4 361.5 -8 c 128,-1,7
 349 -12 349 -12 339 -12 c 0,8,9
 326 -12 326 -12 322 -7.5 c 128,-1,10
 318 -3 318 -3 314 2 c 1,11,12
 264 -2 264 -2 227 19 c 0,13,14
 203 32 203 32 168 68.5 c 128,-1,15
 133 105 133 105 113 118 c 1,16,17
 108 163 108 163 84 264 c 0,18,19
 63 357 63 357 63 364 c 0,20,21
 63 373 63 373 82 464 c 0,22,23
 106 570 106 570 113 609 c 0,24,25
 113 613 113 613 128 624 c 128,-1,26
 143 635 143 635 148 643 c 0,27,28
 190 710 190 710 265 737 c 0,29,30
 274 740 274 740 319 740 c 0,31,32
 369 740 369 740 403.5 720 c 128,-1,33
 438 700 438 700 451 700 c 0,34,35
 468 700 468 700 515 716 c 1,36,37
 528 704 528 704 539.5 681.5 c 128,-1,38
 551 659 551 659 551 644 c 0,39,40
 551 578 551 578 533 421 c 1,41,42
 501 423 501 423 473 455 c 0,43,44
 449 483 449 483 425 511 c 1,45,46
 428 522 428 522 428 531 c 0,47,48
 428 570 428 570 386 593 c 0,49,50
 352 612 352 612 319 612 c 0,51,52
 310 612 310 612 260 594 c 0,53,54
 222 580 222 580 195 527 c 0,55,56
 159 456 159 456 159 412 c 0,57,58
 159 403 159 403 168.5 380 c 128,-1,59
 178 357 178 357 179 345 c 0,60,61
 181 309 181 309 184 234 c 1,62,63
 199 212 199 212 221 219 c 1,64,65
 215 198 215 198 215 180 c 0,66,67
 215 84 215 84 367 84 c 0,68,69
 377 84 377 84 393.5 88.5 c 128,-1,70
 410 93 410 93 416 94 c 1,71,72
 425 118 425 118 453 163 c 0,73,74
 485 216 485 216 497 241 c 1,75,76
 489 272 489 272 489 272 c 1,77,78
 495 290 495 290 531 308 c 1,79,80
 548 291 548 291 561.5 262 c 128,-1,81
 575 233 575 233 575 216 c 0,0,1
EndSplineSet
Validated: 1
EndChar

StartChar: D
Encoding: 68 68 34
Width: 665
GlyphClass: 2
Flags: W
LayerCount: 2
Fore
SplineSet
618 294 m 0,0,1
 618 269 618 269 607 252 c 0,2,3
 593 232 593 232 580 212 c 0,4,5
 576 206 576 206 576 190 c 0,6,7
 577 171 577 171 575 165 c 0,8,9
 562 154 562 154 540 124 c 1,10,11
 538 107 538 107 526 76 c 1,12,13
 516 62 516 62 489 50 c 0,14,15
 469 41 469 41 448 32 c 0,16,17
 420 18 420 18 406 13 c 0,18,19
 380 3 380 3 358 2 c 2,20,-1
 110 -6 l 2,21,22
 21 -6 21 -6 19 81 c 1,23,24
 39 85 39 85 79.5 85.5 c 128,-1,25
 120 86 120 86 140 90 c 0,26,27
 143 92 143 92 143 97 c 1,28,29
 143 96 143 96 132 126 c 1,30,31
 154 177 154 177 154 234 c 0,32,33
 154 254 154 254 142 288 c 128,-1,34
 130 322 130 322 129 340 c 0,35,36
 132 391 132 391 124 493 c 0,37,38
 123 501 123 501 125.5 516.5 c 128,-1,39
 128 532 128 532 128 538 c 0,40,41
 128 553 128 553 119 565 c 128,-1,42
 110 577 110 577 82.5 602.5 c 128,-1,43
 55 628 55 628 43 645 c 1,44,-1
 43 697 l 1,45,46
 52 688 52 688 76 688 c 0,47,48
 94 688 94 688 123 693 c 128,-1,49
 152 698 152 698 154 698 c 0,50,51
 192 698 192 698 286 687 c 0,52,53
 416 671 416 671 479 647 c 0,54,55
 492 642 492 642 502.5 620 c 128,-1,56
 513 598 513 598 515 576 c 1,57,58
 567 549 567 549 581 485 c 0,59,60
 583 472 583 472 588 376 c 1,61,62
 611 351 611 351 616 330 c 0,63,64
 618 323 618 323 618 294 c 0,0,1
514 314 m 0,65,66
 514 323 514 323 510 342 c 0,67,68
 507 358 507 358 507 367 c 128,-1,69
 507 376 507 376 496 387 c 128,-1,70
 485 398 485 398 484 400 c 0,71,72
 482 404 482 404 484 436 c 0,73,74
 486 458 486 458 470 473 c 0,75,76
 362 578 362 578 306 578 c 0,77,78
 264 578 264 578 253 559 c 0,79,80
 250 553 250 553 242.5 504 c 128,-1,81
 235 455 235 455 210 414 c 1,82,83
 239 385 239 385 239 374 c 0,84,85
 239 345 239 345 235 288.5 c 128,-1,86
 231 232 231 232 231 205 c 0,87,88
 231 169 231 169 236 141 c 0,89,90
 242 108 242 108 268 93 c 0,91,92
 300 74 300 74 338 74 c 0,93,94
 350 74 350 74 366 86 c 0,95,96
 389 102 389 102 392 104 c 0,97,98
 412 109 412 109 441 126 c 1,99,100
 490 194 490 194 503 230 c 0,101,102
 514 261 514 261 514 314 c 0,65,66
EndSplineSet
Validated: 1
EndChar

StartChar: E
Encoding: 69 69 35
Width: 637
GlyphClass: 2
Flags: W
LayerCount: 2
Fore
SplineSet
614 41 m 0,0,1
 614 28 614 28 594 12.5 c 128,-1,2
 574 -3 574 -3 562 -3 c 0,3,4
 530 -3 530 -3 362 -1 c 0,5,6
 331 -1 331 -1 330 2 c 0,7,8
 329 10 329 10 305 18 c 1,9,10
 309 21 309 21 290 21 c 0,11,12
 285 21 285 21 263 9 c 128,-1,13
 241 -3 241 -3 214 -3 c 0,14,15
 113 -3 113 -3 47 6 c 0,16,17
 47 9 47 9 42.5 15 c 128,-1,18
 38 21 38 21 38 33 c 0,19,20
 38 66 38 66 78 87.5 c 128,-1,21
 118 109 118 109 118 150 c 0,22,23
 118 163 118 163 115 178 c 1,24,25
 134 204 134 204 134 253 c 1,26,-1
 124 261 l 1,27,28
 117 275 117 275 131 298 c 1,29,30
 125 328 125 328 124 398 c 0,31,32
 124 464 124 464 115 496 c 0,33,34
 103 544 103 544 84 575 c 0,35,36
 81 580 81 580 49 620 c 0,37,38
 26 648 26 648 23 667 c 1,39,40
 56 676 56 676 149 681 c 0,41,42
 230 684 230 684 312 687 c 0,43,44
 343 688 343 688 417 695 c 0,45,46
 485 701 485 701 494 701 c 0,47,48
 582 701 582 701 582 625 c 0,49,50
 582 615 582 615 578 559 c 0,51,52
 572 492 572 492 571 471 c 1,53,54
 533 445 533 445 510 445 c 0,55,56
 482 445 482 445 465 489 c 0,57,58
 454 519 454 519 444 550 c 1,59,60
 430 554 430 554 399 567 c 1,61,62
 399 576 399 576 414 591 c 1,63,64
 392 591 392 591 349 594 c 128,-1,65
 306 597 306 597 298 597 c 0,66,67
 237 597 237 597 225 591 c 0,68,69
 198 578 198 578 198 517 c 0,70,71
 198 481 198 481 214.5 459 c 128,-1,72
 231 437 231 437 258 437 c 0,73,74
 300 437 300 437 307 447 c 0,75,76
 311 461 311 461 316 475 c 0,77,78
 329 497 329 497 380 516 c 1,79,80
 383 506 383 506 398 492 c 128,-1,81
 413 478 413 478 429 475 c 1,82,83
 426 449 426 449 426 417 c 0,84,85
 426 366 426 366 438 263 c 1,86,87
 393 244 393 244 378 229 c 1,88,89
 364 242 364 242 345 263 c 1,90,91
 341 276 341 276 344 288 c 1,92,93
 330 302 330 302 300.5 313.5 c 128,-1,94
 271 325 271 325 254 325 c 0,95,96
 198 325 198 325 198 193 c 0,97,98
 198 144 198 144 225.5 118.5 c 128,-1,99
 253 93 253 93 298 93 c 0,100,101
 311 93 311 93 340.5 109 c 128,-1,102
 370 125 370 125 378 125 c 0,103,104
 388 125 388 125 390 117 c 128,-1,105
 392 109 392 109 402 109 c 0,106,107
 434 109 434 109 492 147 c 1,108,109
 494 182 494 182 504 252 c 1,110,-1
 537 252 l 2,111,112
 550 253 550 253 568.5 242 c 128,-1,113
 587 231 587 231 595 219 c 0,114,115
 605 203 605 203 605 190 c 0,116,117
 605 182 605 182 598 168 c 128,-1,118
 591 154 591 154 592 145 c 0,119,120
 594 129 594 129 604 90 c 128,-1,121
 614 51 614 51 614 41 c 0,0,1
EndSplineSet
Validated: 1
EndChar

StartChar: F
Encoding: 70 70 36
Width: 637
GlyphClass: 2
Flags: W
LayerCount: 2
Fore
SplineSet
587 616 m 0,0,1
 587 604 587 604 582 599.5 c 128,-1,2
 577 595 577 595 572 591 c 1,3,4
 576 570 576 570 575 528 c 0,5,6
 574 480 574 480 575 463 c 0,7,8
 572 459 572 459 545 405 c 1,9,10
 536 403 536 403 514.5 412.5 c 128,-1,11
 493 422 493 422 484 437 c 1,12,-1
 464 437 l 1,13,14
 461 421 461 421 444 390 c 0,15,16
 443 386 443 386 450 374.5 c 128,-1,17
 457 363 457 363 455 358 c 0,18,19
 426 305 426 305 417 277 c 1,20,21
 370 281 370 281 359 312 c 0,22,23
 348 340 348 340 311 340 c 0,24,25
 290 340 290 340 268 326 c 1,26,27
 243 245 243 245 243 236 c 0,28,29
 243 216 243 216 260 170 c 0,30,31
 273 135 273 135 317 95 c 0,32,33
 355 60 355 60 355 40 c 0,34,35
 355 -4 355 -4 302 -4 c 0,36,37
 162 -4 162 -4 104 7 c 1,38,-1
 92 -2 l 1,39,-1
 92 55 l 2,40,41
 91 64 91 64 111.5 90 c 128,-1,42
 132 116 132 116 136 129 c 0,43,44
 163 229 163 229 163 232 c 0,45,46
 163 245 163 245 158.5 246 c 128,-1,47
 154 247 154 247 149 248 c 1,48,49
 149 267 149 267 151 316 c 0,50,51
 155 370 155 370 155 395 c 0,52,53
 155 425 155 425 152 448 c 0,54,55
 148 477 148 477 144 506 c 0,56,57
 136 543 136 543 120 566 c 0,58,59
 113 576 113 576 90 592 c 0,60,61
 64 611 64 611 53 622 c 1,62,63
 51 632 51 632 51 644 c 0,64,65
 51 669 51 669 69 681 c 1,66,67
 84 682 84 682 128 687 c 0,68,69
 168 692 168 692 179 692 c 0,70,71
 188 692 188 692 219 688 c 0,72,73
 256 682 256 682 271 681 c 0,74,75
 326 676 326 676 428 678 c 0,76,77
 432 678 432 678 451 679 c 128,-1,78
 470 680 470 680 483 680 c 0,79,80
 587 680 587 680 587 616 c 0,0,1
482 525 m 1,81,-1
 482 577 l 2,82,83
 482 590 482 590 470 603 c 128,-1,84
 458 616 458 616 446 620 c 1,85,86
 442 617 442 617 426 598 c 0,87,88
 417 588 417 588 407 588 c 0,89,90
 398 588 398 588 385 596 c 128,-1,91
 372 604 372 604 363 604 c 0,92,93
 352 604 352 604 341.5 596 c 128,-1,94
 331 588 331 588 323 588 c 0,95,96
 311 588 311 588 299 600 c 128,-1,97
 287 612 287 612 285 612 c 0,98,99
 251 563 251 563 251 544 c 0,100,101
 251 533 251 533 255.5 508.5 c 128,-1,102
 260 484 260 484 260 477 c 1,103,104
 272 477 272 477 293 468.5 c 128,-1,105
 314 460 314 460 323 460 c 0,106,107
 343 460 343 460 368 494 c 0,108,109
 400 538 400 538 414 548 c 1,110,111
 420 541 420 541 427.5 532.5 c 128,-1,112
 435 524 435 524 448 525 c 2,113,-1
 482 525 l 1,81,-1
EndSplineSet
Validated: 1
EndChar

StartChar: G
Encoding: 71 71 37
Width: 653
GlyphClass: 2
Flags: W
LayerCount: 2
Fore
SplineSet
634 344 m 1,0,1
 609 335 609 335 561 309 c 0,2,3
 550 299 550 299 547.5 276.5 c 128,-1,4
 545 254 545 254 544 233 c 1,5,6
 537 225 537 225 524 209 c 0,7,8
 523 203 523 203 523 198 c 0,9,10
 523 187 523 187 533 171 c 128,-1,11
 543 155 543 155 544 147 c 0,12,13
 545 130 545 130 534 93 c 0,14,15
 521 53 521 53 520 34 c 1,16,17
 509 15 509 15 487 15 c 0,18,19
 478 15 478 15 461 23 c 128,-1,20
 444 31 444 31 435 31 c 0,21,22
 425 31 425 31 383 15 c 128,-1,23
 341 -1 341 -1 331 -1 c 0,24,25
 206 -1 206 -1 146 60 c 0,26,27
 106 101 106 101 53 233 c 0,28,29
 51 238 51 238 51 245 c 0,30,31
 51 251 51 251 54 268 c 128,-1,32
 57 285 57 285 57 293 c 0,33,34
 57 300 57 300 56 306 c 0,35,36
 35 383 35 383 35 419 c 0,37,38
 35 428 35 428 44 471 c 0,39,40
 54 520 54 520 56 540 c 1,41,42
 86 619 86 619 142 677 c 0,43,44
 206 743 206 743 271 743 c 0,45,46
 281 743 281 743 357 719 c 128,-1,47
 433 695 433 695 443 695 c 0,48,49
 454 695 454 695 474 707 c 0,50,51
 489 717 489 717 504 726 c 1,52,53
 518 688 518 688 518 658 c 0,54,55
 518 641 518 641 512.5 614.5 c 128,-1,56
 507 588 507 588 507 572 c 2,57,-1
 507 453 l 1,58,59
 576 420 576 420 634 398 c 1,60,-1
 634 344 l 1,0,1
427 231 m 0,61,62
 427 250 427 250 417 259 c 0,63,64
 402 271 402 271 387 283 c 1,65,66
 403 299 403 299 392 310 c 1,67,68
 380 310 380 310 370 306.5 c 128,-1,69
 360 303 360 303 351 303 c 0,70,71
 319 303 319 303 299 323 c 1,72,-1
 299 394 l 1,73,74
 329 423 329 423 351 423 c 0,75,76
 357 423 357 423 369 415.5 c 128,-1,77
 381 408 381 408 393 408 c 0,78,79
 407 408 407 408 426 416 c 1,80,-1
 426 460 l 2,81,82
 427 472 427 472 418 476 c 0,83,84
 405 483 405 483 405 484 c 0,85,86
 407 496 407 496 407 507 c 0,87,88
 407 556 407 556 362 584 c 0,89,90
 327 607 327 607 287 607 c 0,91,92
 228 607 228 607 204 587 c 0,93,94
 188 573 188 573 171.5 550 c 128,-1,95
 155 527 155 527 155 515 c 256,96,97
 155 503 155 503 163.5 495 c 128,-1,98
 172 487 172 487 172 485 c 0,99,100
 145 475 145 475 145 442 c 0,101,102
 145 434 145 434 147 417.5 c 128,-1,103
 149 401 149 401 149 395 c 0,104,105
 149 384 149 384 140 351.5 c 128,-1,106
 131 319 131 319 131 311 c 0,107,108
 131 299 131 299 145 277 c 128,-1,109
 159 255 159 255 160 250 c 0,110,111
 162 242 162 242 159 226.5 c 128,-1,112
 156 211 156 211 156 208 c 0,113,114
 180 203 180 203 197 167 c 0,115,116
 212 135 212 135 243 135 c 0,117,118
 253 135 253 135 255 139 c 128,-1,119
 257 143 257 143 267 143 c 256,120,121
 277 143 277 143 305 127 c 128,-1,122
 333 111 333 111 343 111 c 0,123,124
 352 111 352 111 368.5 116 c 128,-1,125
 385 121 385 121 390 121 c 1,126,127
 427 221 427 221 427 231 c 0,61,62
EndSplineSet
Validated: 1
EndChar

StartChar: H
Encoding: 72 72 38
Width: 669
GlyphClass: 2
Flags: W
LayerCount: 2
Fore
SplineSet
619 631 m 0,0,1
 619 609 619 609 601 598 c 0,2,3
 578 584 578 584 572 574 c 0,4,5
 567 559 567 559 551 525 c 0,6,7
 549 522 549 522 545 502 c 0,8,9
 543 488 543 488 530 478 c 1,10,-1
 530 287 l 2,11,12
 530 279 530 279 537.5 263.5 c 128,-1,13
 545 248 545 248 543 240 c 1,14,15
 549 232 549 232 559 217 c 0,16,17
 560 214 560 214 553.5 204 c 128,-1,18
 547 194 547 194 547 183 c 0,19,20
 547 166 547 166 610 64 c 1,21,-1
 610 21 l 1,22,23
 564 -5 564 -5 511 -5 c 0,24,25
 501 -5 501 -5 425 3 c 128,-1,26
 349 11 349 11 339 11 c 256,27,28
 329 11 329 11 241 -1 c 128,-1,29
 153 -13 153 -13 143 -13 c 0,30,31
 19 -13 19 -13 19 39 c 0,32,33
 19 75 19 75 59 111.5 c 128,-1,34
 99 148 99 148 99 176 c 2,35,-1
 99 390 l 2,36,37
 99 419 99 419 72 573 c 1,38,39
 52 590 52 590 39 609 c 0,40,41
 29 623 29 623 19 638 c 1,42,-1
 19 666 l 1,43,44
 51 683 51 683 71 683 c 0,45,46
 194 683 194 683 223 680 c 0,47,48
 235 679 235 679 265.5 665 c 128,-1,49
 296 651 296 651 303 651 c 0,50,51
 313 651 313 651 393 667 c 128,-1,52
 473 683 473 683 483 683 c 0,53,54
 523 683 523 683 563 673 c 0,55,56
 619 659 619 659 619 631 c 0,0,1
450 485 m 1,57,58
 450 522 450 522 424 579 c 1,59,60
 414 575 414 575 404 575 c 0,61,62
 383 575 383 575 352 596 c 0,63,64
 313 622 313 622 301 627 c 1,65,66
 295 603 295 603 261 588 c 0,67,68
 203 563 203 563 201 561 c 0,69,70
 171 541 171 541 171 503 c 0,71,72
 171 451 171 451 267 451 c 0,73,74
 317 451 317 451 399 461 c 0,75,76
 432 465 432 465 450 485 c 1,57,58
459 227 m 0,77,78
 459 293 459 293 446 314 c 1,79,80
 376 339 376 339 311 339 c 0,81,82
 300 339 300 339 266 334 c 0,83,84
 229 329 229 329 213 328 c 1,85,86
 171 290 171 290 171 191 c 1,87,88
 202 91 202 91 227 91 c 0,89,90
 236 91 236 91 245 95 c 128,-1,91
 254 99 254 99 263 99 c 0,92,93
 275 99 275 99 300.5 87 c 128,-1,94
 326 75 326 75 335 75 c 0,95,96
 400 75 400 75 429.5 111.5 c 128,-1,97
 459 148 459 148 459 227 c 0,77,78
EndSplineSet
Validated: 1
EndChar

StartChar: I
Encoding: 73 73 39
Width: 621
GlyphClass: 2
Flags: W
LayerCount: 2
Fore
SplineSet
546 26 m 1,0,1
 525 1 525 1 415 1 c 2,2,-1
 183 1 l 2,3,4
 143 1 143 1 91 27 c 1,5,-1
 91 52 l 2,6,7
 91 64 91 64 100 74 c 0,8,9
 105 79 105 79 110 84 c 0,10,11
 139 96 139 96 245 98 c 1,12,13
 283 127 283 127 283 141 c 0,14,15
 283 151 283 151 271 217.5 c 128,-1,16
 259 284 259 284 259 294 c 2,17,-1
 259 516 l 2,18,19
 259 570 259 570 227 583 c 1,20,21
 192 590 192 590 157 597 c 0,22,23
 112 611 112 611 91 661 c 1,24,25
 107 681 107 681 179 681 c 0,26,27
 189 681 189 681 329 677 c 128,-1,28
 469 673 469 673 479 673 c 0,29,30
 505 673 505 673 538 654 c 1,31,32
 521 609 521 609 474 590 c 0,33,34
 436 576 436 576 399 562 c 1,35,36
 363 541 363 541 363 489 c 0,37,38
 363 481 363 481 373.5 454.5 c 128,-1,39
 384 428 384 428 384 413 c 0,40,41
 384 397 384 397 381.5 361 c 128,-1,42
 379 325 379 325 379 306 c 0,43,44
 379 257 379 257 391 222 c 0,45,46
 393 219 393 219 386 208 c 0,47,48
 379 194 379 194 379 185 c 0,49,50
 379 148 379 148 453 109 c 0,51,52
 500 86 500 86 546 63 c 1,53,-1
 546 26 l 1,0,1
EndSplineSet
Validated: 1
EndChar

StartChar: J
Encoding: 74 74 40
Width: 637
GlyphClass: 2
Flags: W
LayerCount: 2
Fore
SplineSet
592 623 m 1,0,1
 550 590 550 590 521 549 c 0,2,3
 515 540 515 540 508.5 510 c 128,-1,4
 502 480 502 480 490 463 c 1,5,6
 509 425 509 425 498 352 c 1,7,8
 500 328 500 328 500 304 c 0,9,10
 500 229 500 229 477 127 c 0,11,12
 474 114 474 114 457 86 c 0,13,14
 435 50 435 50 429 38 c 0,15,16
 415 10 415 10 382 -10 c 0,17,18
 365 -21 365 -21 276 -21 c 0,19,20
 207 -21 207 -21 193 -17 c 0,21,22
 137 -5 137 -5 109 47 c 1,23,24
 113 59 113 59 109 70 c 0,25,26
 89 100 89 100 81 111 c 0,27,28
 63 133 63 133 49 140 c 1,29,30
 45 151 45 151 45 165 c 0,31,32
 45 210 45 210 77.5 258.5 c 128,-1,33
 110 307 110 307 140 307 c 0,34,35
 150 307 150 307 171 284 c 0,36,37
 199 254 199 254 205 249 c 1,38,39
 208 237 208 237 205 230 c 0,40,41
 197 206 197 206 197 180 c 0,42,43
 197 134 197 134 218 102 c 0,44,45
 241 67 241 67 276 67 c 0,46,47
 287 67 287 67 312 84 c 0,48,49
 332 99 332 99 353 113 c 1,50,51
 353 118 353 118 342 124.5 c 128,-1,52
 331 131 331 131 328 134 c 0,53,54
 328 137 328 137 338 144 c 0,55,56
 354 154 354 154 360 161 c 0,57,58
 360 167 360 167 344 183 c 1,59,60
 351 190 351 190 365 217 c 128,-1,61
 379 244 379 244 392 257 c 1,62,63
 392 263 392 263 385 271 c 128,-1,64
 378 279 378 279 372 279 c 1,65,66
 387 279 387 279 397 296 c 1,67,68
 393 310 393 310 396 338 c 0,69,70
 400 374 400 374 400 375 c 0,71,72
 400 385 400 385 396 444 c 0,73,74
 391 516 391 516 389 542 c 1,75,76
 354 562 354 562 319 582 c 0,77,78
 256 618 256 618 256 643 c 0,79,80
 256 662 256 662 274 688 c 1,81,82
 403 697 403 697 412 699 c 1,83,84
 420 699 420 699 470 695 c 0,85,86
 527 690 527 690 557 688 c 1,87,88
 566 682 566 682 574 660 c 0,89,90
 585 633 585 633 592 623 c 1,0,1
EndSplineSet
Validated: 1
EndChar

StartChar: K
Encoding: 75 75 41
Width: 637
GlyphClass: 2
Flags: W
LayerCount: 2
Fore
SplineSet
606 641 m 1,0,1
 580 628 580 628 533 598 c 1,2,3
 503 573 503 573 384 442 c 0,4,5
 383 436 383 436 383 420 c 0,6,7
 383 373 383 373 402 347 c 0,8,9
 433 306 433 306 441 285 c 1,10,11
 437 271 437 271 440 255 c 1,12,13
 453 241 453 241 464 215 c 0,14,15
 472 194 472 194 480 174 c 0,16,17
 481 173 481 173 515 148 c 1,18,19
 535 97 535 97 606 62 c 1,20,-1
 606 26 l 1,21,22
 596 24 596 24 531 10 c 0,23,24
 482 0 482 0 471 0 c 0,25,26
 462 0 462 0 419.5 5 c 128,-1,27
 377 10 377 10 360 10 c 1,28,29
 360 27 360 27 351 36 c 1,30,31
 362 48 362 48 385.5 60.5 c 128,-1,32
 409 73 409 73 425 74 c 1,33,34
 439 93 439 93 439 128 c 0,35,36
 439 156 439 156 424 178 c 0,37,38
 394 221 394 221 381 250 c 1,39,40
 363 264 363 264 337 267 c 1,41,42
 329 286 329 286 305 321 c 1,43,44
 305 321 305 321 277 310 c 1,45,46
 214 246 214 246 184 194 c 0,47,48
 175 178 175 178 175 144 c 0,49,50
 175 102 175 102 206 80 c 0,51,52
 226 66 226 66 266 57.5 c 128,-1,53
 306 49 306 49 311 45 c 1,54,55
 280 0 280 0 159 0 c 0,56,57
 153 0 153 0 110 4.5 c 128,-1,58
 67 9 67 9 49 9 c 1,59,-1
 39 18 l 1,60,-1
 39 55 l 1,61,62
 77 91 77 91 135 118 c 1,63,64
 130 130 130 130 95 148 c 1,65,66
 107 160 107 160 121 180 c 1,67,68
 117 184 117 184 117 193 c 0,69,70
 117 197 117 197 118.5 207.5 c 128,-1,71
 120 218 120 218 120 224 c 0,72,73
 120 235 120 235 116 244 c 1,74,75
 128 276 128 276 128 295 c 0,76,77
 128 319 128 319 111 341 c 1,78,79
 135 365 135 365 135 392 c 256,80,81
 135 419 135 419 121 435 c 1,82,83
 124 447 124 447 124 467 c 1,84,85
 114 499 114 499 84 562 c 1,86,87
 66 587 66 587 31 645 c 1,88,89
 40 657 40 657 59 668.5 c 128,-1,90
 78 680 78 680 87 680 c 0,91,92
 98 680 98 680 109.5 672 c 128,-1,93
 121 664 121 664 131 664 c 0,94,95
 143 664 143 664 147.5 674 c 128,-1,96
 152 684 152 684 153 685 c 0,97,98
 173 688 173 688 235 688 c 0,99,100
 255 688 255 688 261 680 c 0,101,102
 276 658 276 658 303 637 c 1,103,104
 294 627 294 627 250 606 c 0,105,106
 210 588 210 588 205 572 c 1,107,108
 206 558 206 558 204 531 c 1,109,110
 181 437 181 437 183 373 c 1,111,112
 196 352 196 352 219 352 c 256,113,114
 242 352 242 352 280 411 c 0,115,116
 301 447 301 447 321 483 c 0,117,118
 321 484 321 484 354 525 c 0,119,120
 375 552 375 552 375 568 c 0,121,122
 375 586 375 586 364 596 c 0,123,124
 346 611 346 611 327 627 c 1,125,126
 338 648 338 648 338 664 c 0,127,128
 338 672 338 672 335 678 c 1,129,130
 426 696 426 696 471 696 c 0,131,132
 477 696 477 696 523.5 691.5 c 128,-1,133
 570 687 570 687 598 687 c 1,134,135
 598 685 598 685 602 668 c 128,-1,136
 606 651 606 651 606 641 c 1,0,1
EndSplineSet
Validated: 1
EndChar

StartChar: L
Encoding: 76 76 42
Width: 637
GlyphClass: 2
Flags: W
LayerCount: 2
Fore
SplineSet
594 224 m 0,0,1
 594 212 594 212 590 203 c 0,2,3
 587 198 587 198 583 192 c 1,4,5
 585 171 585 171 591 138 c 0,6,7
 596 124 596 124 580 103 c 1,8,9
 583 74 583 74 583 22 c 1,10,11
 538 -4 538 -4 438 -4 c 1,12,13
 442 -4 442 -4 359.5 -2 c 128,-1,14
 277 0 277 0 213 1 c 0,15,16
 121 1 121 1 68 -3 c 1,17,-1
 68 43 l 1,18,19
 84 47 84 47 171 97 c 1,20,21
 162 110 162 110 162 126 c 0,22,23
 162 137 162 137 167 157 c 128,-1,24
 172 177 172 177 172 187 c 0,25,26
 172 201 172 201 164 214 c 0,27,28
 161 216 161 216 161 221 c 256,29,30
 161 226 161 226 166.5 236.5 c 128,-1,31
 172 247 172 247 172 249 c 0,32,33
 170 284 170 284 167 304 c 1,34,35
 169 339 169 339 159 408 c 1,36,37
 169 435 169 435 168 438 c 0,38,39
 146 457 146 457 146 488 c 0,40,41
 146 495 146 495 147.5 509.5 c 128,-1,42
 149 524 149 524 149 532 c 0,43,44
 149 557 149 557 136 574 c 0,45,46
 121 595 121 595 77 599 c 1,47,48
 52 620 52 620 43 665 c 1,49,50
 47 672 47 672 52.5 678 c 128,-1,51
 58 684 58 684 70 684 c 0,52,53
 198 684 198 684 301 676 c 0,54,55
 343 673 343 673 378 650 c 1,56,57
 375 628 375 628 345 599 c 0,58,59
 305 561 305 561 296 549 c 0,60,61
 293 549 293 549 270 572 c 1,62,63
 245 560 245 560 245 534 c 0,64,65
 245 530 245 530 246 521.5 c 128,-1,66
 247 513 247 513 247 508 c 0,67,68
 247 490 247 490 234 479 c 1,69,-1
 234 287 l 2,70,71
 234 267 234 267 274 127 c 1,72,-1
 242 97 l 1,73,74
 281 76 281 76 338 76 c 0,75,76
 507 76 507 76 544 115 c 0,77,78
 548 121 548 121 548 134 c 0,79,80
 548 163 548 163 522 168 c 1,81,82
 543 174 543 174 543 199 c 0,83,84
 543 211 543 211 537.5 235 c 128,-1,85
 532 259 532 259 532 266 c 0,86,87
 532 289 532 289 574 332 c 1,88,-1
 586 321 l 1,89,90
 584 314 584 314 584 303 c 0,91,92
 584 288 584 288 589 259.5 c 128,-1,93
 594 231 594 231 594 224 c 0,0,1
EndSplineSet
Validated: 1
EndChar

StartChar: M
Encoding: 77 77 43
Width: 669
GlyphClass: 2
Flags: W
LayerCount: 2
Fore
SplineSet
627 82 m 0,0,1
 627 6 627 6 571 6 c 0,2,3
 507 6 507 6 446 26 c 1,4,5
 444 33 444 33 435 49 c 1,6,-1
 435 77 l 2,7,8
 438 77 438 77 444.5 73.5 c 128,-1,9
 451 70 451 70 463 70 c 0,10,11
 525 70 525 70 525 157 c 1,12,13
 525 154 525 154 524 189 c 1,14,15
 528 189 528 189 536.5 185.5 c 128,-1,16
 545 182 545 182 549 182 c 0,17,18
 563 196 563 196 563 201 c 0,19,20
 557 207 557 207 532 207 c 1,21,22
 524 231 524 231 524 266 c 0,23,24
 524 274 524 274 524 291 c 0,25,26
 525 307 525 307 525 315 c 0,27,28
 525 369 525 369 501 399 c 1,29,30
 480 398 480 398 474 379 c 0,31,32
 466 350 466 350 461 345 c 1,33,34
 447 345 447 345 429 322.5 c 128,-1,35
 411 300 411 300 408 284 c 0,36,37
 409 264 409 264 407 225 c 1,38,39
 397 213 397 213 380 193 c 0,40,41
 379 190 379 190 383 186 c 128,-1,42
 387 182 387 182 387 170 c 0,43,44
 387 164 387 164 382.5 127.5 c 128,-1,45
 378 91 378 91 378 73 c 1,46,47
 368 62 368 62 351 62 c 0,48,49
 331 62 331 62 317 80 c 1,50,51
 311 95 311 95 307 132 c 0,52,53
 301 190 301 190 301 195 c 128,-1,54
 301 200 301 200 290 210 c 0,55,56
 274 225 274 225 269 232 c 128,-1,57
 264 239 264 239 258.5 263 c 128,-1,58
 253 287 253 287 248 297 c 0,59,60
 234 328 234 328 197 399 c 1,61,-1
 168 399 l 1,62,63
 155 387 155 387 154 363 c 2,64,-1
 154 116 l 1,65,66
 166 102 166 102 214 80 c 0,67,68
 250 64 250 64 250 34 c 1,69,70
 242 16 242 16 210 6 c 0,71,72
 185 -2 185 -2 163 -2 c 0,73,74
 131 -2 131 -2 94 9 c 0,75,76
 43 22 43 22 43 46 c 0,77,78
 43 67 43 67 83 108 c 1,79,-1
 83 497 l 2,80,81
 82 538 82 538 53 625 c 0,82,83
 52 626 52 626 47.5 633 c 128,-1,84
 43 640 43 640 43 651 c 2,85,-1
 43 685 l 1,86,87
 60 694 60 694 95 694 c 0,88,89
 139 694 139 694 175.5 671.5 c 128,-1,90
 212 649 212 649 215 611 c 0,91,92
 220 564 220 564 212 532 c 1,93,94
 238 522 238 522 244 488 c 0,95,96
 246 476 246 476 244 435 c 0,97,98
 247 426 247 426 261 415 c 128,-1,99
 275 404 275 404 279 396 c 0,100,101
 287 380 287 380 291 350 c 0,102,103
 296 314 296 314 300 301 c 1,104,105
 310 294 310 294 322 286 c 128,-1,106
 334 278 334 278 347 278 c 0,107,108
 385 278 385 278 390 322 c 0,109,110
 396 371 396 371 427 381 c 1,111,112
 427 394 427 394 411 411 c 1,113,114
 438 431 438 431 438 491 c 0,115,116
 438 501 438 501 437 531 c 0,117,118
 436 553 436 553 437 564 c 1,119,120
 448 572 448 572 464 588 c 1,121,122
 473 641 473 641 472 660 c 1,123,124
 513 694 513 694 547 694 c 0,125,126
 586 694 586 694 626 667 c 1,127,128
 601 622 601 622 574 565 c 0,129,130
 547 505 547 505 547 490 c 0,131,132
 547 479 547 479 555 474 c 0,133,134
 567 468 567 468 568 466 c 0,135,136
 562 458 562 458 562 441 c 0,137,138
 562 427 562 427 562 413 c 0,139,140
 561 397 561 397 554 387 c 1,141,142
 570 375 570 375 591 348 c 1,143,144
 600 316 600 316 580 305 c 1,145,146
 584 284 584 284 587 227 c 0,147,148
 590 174 590 174 596 147 c 0,149,150
 598 142 598 142 613 116 c 0,151,152
 627 94 627 94 627 82 c 0,0,1
EndSplineSet
Validated: 1
EndChar

StartChar: N
Encoding: 78 78 44
Width: 669
GlyphClass: 2
Flags: W
LayerCount: 2
Fore
SplineSet
654 603 m 1,0,1
 601 590 601 590 603 534 c 1,2,3
 592 529 592 529 576 508 c 1,4,5
 570 480 570 480 588 447 c 1,6,7
 575 259 575 259 577 222 c 0,8,9
 579 157 579 157 591 29 c 1,10,11
 586 22 586 22 580.5 16 c 128,-1,12
 575 10 575 10 563 10 c 0,13,14
 553 10 553 10 531 20 c 0,15,16
 505 33 505 33 495 36 c 1,17,18
 499 47 499 47 499 58 c 0,19,20
 499 85 499 85 458 148 c 0,21,22
 454 153 454 153 451.5 175 c 128,-1,23
 449 197 449 197 444 205 c 128,-1,24
 439 213 439 213 408 235 c 128,-1,25
 377 257 377 257 369 276 c 0,26,27
 365 285 365 285 363.5 311.5 c 128,-1,28
 362 338 362 338 356 348 c 0,29,30
 337 380 337 380 311 408 c 0,31,32
 271 451 271 451 265 458 c 1,33,-1
 245 458 l 1,34,35
 237 448 237 448 230 437.5 c 128,-1,36
 223 427 223 427 223 415 c 2,37,-1
 223 111 l 1,38,39
 267 67 267 67 326 40 c 1,40,41
 326 24 326 24 300 4 c 1,42,43
 259 4 259 4 172.5 -1 c 128,-1,44
 86 -6 86 -6 79 -6 c 0,45,46
 47 -6 47 -6 47 26 c 0,47,48
 47 75 47 75 67 75 c 0,49,50
 71 75 71 75 81 73.5 c 128,-1,51
 91 72 91 72 97 72 c 0,52,53
 128 72 128 72 148 119 c 0,54,55
 155 137 155 137 157 238 c 0,56,57
 158 353 158 353 164 391 c 0,58,59
 175 464 175 464 175 470 c 256,60,61
 175 476 175 476 158.5 517 c 128,-1,62
 142 558 142 558 140 580 c 1,63,64
 126 593 126 593 97 605 c 0,65,66
 72 616 72 616 47 627 c 1,67,-1
 47 673 l 1,68,69
 75 690 75 690 135 690 c 0,70,71
 189 690 189 690 215 682 c 0,72,73
 262 667 262 667 273 622 c 1,74,75
 273 622 273 622 267 607 c 0,76,77
 263 596 263 596 265 592 c 0,78,79
 278 584 278 584 299 560 c 1,80,81
 307 544 307 544 312 504 c 1,82,83
 339 492 339 492 366 440 c 0,84,85
 390 396 390 396 400 352 c 1,86,87
 427 320 427 320 453 287 c 0,88,89
 486 246 486 246 501 217 c 1,90,91
 515 217 515 217 524 231 c 1,92,93
 522 251 522 251 522 285 c 1,94,95
 535 292 535 292 535 310 c 0,96,97
 529 448 529 448 529 476 c 256,98,99
 529 504 529 504 535 510 c 1,100,101
 532 515 532 515 525 556 c 1,102,103
 486 580 486 580 408 636 c 1,104,-1
 408 673 l 1,105,106
 442 679 442 679 507 682 c 0,107,108
 608 686 608 686 616 687 c 0,109,110
 620 689 620 689 654 672 c 1,111,-1
 654 603 l 1,0,1
EndSplineSet
Validated: 1
EndChar

StartChar: O
Encoding: 79 79 45
Width: 637
GlyphClass: 2
Flags: W
LayerCount: 2
Fore
SplineSet
579 395 m 0,0,1
 579 297 579 297 551 226 c 0,2,3
 493 73 493 73 438 34 c 0,4,5
 422 22 422 22 386.5 10.5 c 128,-1,6
 351 -1 351 -1 335 -1 c 2,7,-1
 275 -1 l 2,8,9
 226 -1 226 -1 117 113 c 1,10,11
 116 125 116 125 112 145 c 1,12,13
 96 163 96 163 77 194 c 1,14,15
 59 279 59 279 59 371 c 0,16,17
 59 501 59 501 117 598 c 0,18,19
 189 719 189 719 327 719 c 0,20,21
 404 719 404 719 417 697 c 1,22,23
 429 696 429 696 448 692 c 1,24,25
 457 685 457 685 470 675 c 0,26,27
 535 596 535 596 548 501 c 1,28,29
 555 493 555 493 567 477 c 1,30,31
 568 468 568 468 574 435 c 0,32,33
 579 407 579 407 579 395 c 0,0,1
499 355 m 0,34,35
 499 374 499 374 485 372 c 1,36,37
 497 406 497 406 495 413 c 0,38,39
 488 442 488 442 480 471 c 0,40,41
 462 532 462 532 439 570 c 0,42,43
 407 623 407 623 371 623 c 0,44,45
 298 623 298 623 230 595 c 1,46,47
 214 563 214 563 214 542 c 0,48,49
 214 537 214 537 216 532 c 1,50,51
 209 525 209 525 196 518 c 128,-1,52
 183 511 183 511 181 506 c 0,53,54
 181 459 181 459 176 364 c 0,55,56
 175 357 175 357 165 341 c 128,-1,57
 155 325 155 325 155 315 c 0,58,59
 155 303 155 303 162.5 295.5 c 128,-1,60
 170 288 170 288 176 282 c 1,61,62
 178 251 178 251 180 220 c 0,63,64
 185 186 185 186 197 169 c 0,65,66
 250 101 250 101 288 101 c 0,67,68
 294 101 294 101 310.5 102 c 128,-1,69
 327 103 327 103 339 103 c 0,70,71
 403 103 403 103 423 115 c 1,72,73
 427 128 427 128 448 155 c 128,-1,74
 469 182 469 182 472 196 c 0,75,76
 499 339 499 339 499 355 c 0,34,35
EndSplineSet
Validated: 1
EndChar

StartChar: P
Encoding: 80 80 46
Width: 637
GlyphClass: 2
Flags: W
LayerCount: 2
Fore
SplineSet
599 497 m 0,0,1
 599 459 599 459 580 420 c 0,2,3
 570 398 570 398 533 340 c 1,4,5
 520 337 520 337 486.5 313 c 128,-1,6
 453 289 453 289 443 289 c 256,7,8
 433 289 433 289 393 293 c 128,-1,9
 353 297 353 297 343 297 c 0,10,11
 254 297 254 297 254 220 c 0,12,13
 254 201 254 201 259 174 c 0,14,15
 260 171 260 171 253 157.5 c 128,-1,16
 246 144 246 144 246 135 c 1,17,18
 250 131 250 131 260.5 124 c 128,-1,19
 271 117 271 117 275 113 c 1,20,-1
 289 129 l 2,21,22
 292 129 292 129 298.5 116.5 c 128,-1,23
 305 104 305 104 316 99 c 0,24,25
 349 84 349 84 358 77 c 0,26,27
 375 65 375 65 375 45 c 0,28,29
 375 -7 375 -7 283 -7 c 0,30,31
 229 -7 229 -7 56 11 c 0,32,33
 56 13 56 13 51.5 19.5 c 128,-1,34
 47 26 47 26 47 37 c 0,35,36
 47 68 47 68 85 82 c 0,37,38
 131 98 131 98 140 119 c 0,39,40
 156 156 156 156 159 230 c 1,41,42
 159 234 159 234 159 313 c 0,43,44
 159 343 159 343 145 453 c 1,45,46
 150 473 150 473 151 517 c 1,47,48
 143 536 143 536 132 580 c 1,49,50
 123 588 123 588 95 595 c 128,-1,51
 67 602 67 602 57 610 c 0,52,53
 39 624 39 624 39 653 c 0,54,55
 39 664 39 664 45 675 c 0,56,57
 54 691 54 691 56 697 c 1,58,59
 184 698 184 698 403 686 c 0,60,61
 446 684 446 684 469 680 c 0,62,63
 514 672 514 672 530.5 654.5 c 128,-1,64
 547 637 547 637 571 607 c 0,65,66
 582 588 582 588 591 549 c 0,67,68
 599 516 599 516 599 497 c 0,0,1
510 536 m 1,69,70
 504 540 504 540 462 577 c 0,71,72
 434 601 434 601 423 601 c 0,73,74
 413 601 413 601 407 597 c 128,-1,75
 401 593 401 593 391 593 c 0,76,77
 380 593 380 593 357.5 609 c 128,-1,78
 335 625 335 625 327 625 c 0,79,80
 308 625 308 625 312 622 c 1,81,82
 304 611 304 611 289 595 c 1,83,84
 263 589 263 589 223 576 c 1,85,-1
 223 526 l 2,86,87
 223 514 223 514 229 510 c 0,88,89
 232 508 232 508 236 508 c 0,90,91
 238 494 238 494 235 470 c 0,92,93
 231 441 231 441 231 435 c 1,94,95
 295 417 295 417 309 393 c 0,96,97
 318 377 318 377 367 377 c 0,98,99
 429 377 429 377 467 417.5 c 128,-1,100
 505 458 505 458 510 536 c 1,69,70
EndSplineSet
Validated: 1
EndChar

StartChar: Q
Encoding: 81 81 47
Width: 637
GlyphClass: 2
Flags: W
LayerCount: 2
Fore
SplineSet
587 -35 m 0,0,1
 587 -63 587 -63 569.5 -87 c 128,-1,2
 552 -111 552 -111 527 -111 c 0,3,4
 510 -111 510 -111 502 -102 c 0,5,6
 488 -88 488 -88 477 -82 c 1,7,8
 465 -81 465 -81 445.5 -75.5 c 128,-1,9
 426 -70 426 -70 421 -38 c 0,10,11
 418 -36 418 -36 387 -16 c 0,12,13
 362 1 362 1 351 1 c 0,14,15
 341 1 341 1 335 -3 c 128,-1,16
 329 -7 329 -7 319 -7 c 0,17,18
 308 -7 308 -7 261 11 c 0,19,20
 221 27 221 27 181 43 c 0,21,22
 169 52 169 52 160 74 c 1,23,24
 117 114 117 114 84 190.5 c 128,-1,25
 51 267 51 267 51 337 c 0,26,27
 51 349 51 349 55 359 c 0,28,29
 58 366 58 366 61 373 c 0,30,31
 64 446 64 446 65 460 c 0,32,33
 70 503 70 503 88 558 c 0,34,35
 88 559 88 559 95 598 c 0,36,37
 101 628 101 628 109 639 c 0,38,39
 130 667 130 667 148 678 c 0,40,41
 180 699 180 699 188 706 c 0,42,43
 208 723 208 723 227 740 c 0,44,45
 236 745 236 745 287 745 c 0,46,47
 343 745 343 745 366 736 c 0,48,49
 377 732 377 732 396 714 c 128,-1,50
 415 696 415 696 446 685 c 1,51,52
 470 642 470 642 484 598 c 0,53,54
 488 594 488 594 511 580 c 1,55,56
 511 573 511 573 522 554 c 128,-1,57
 533 535 533 535 535 525 c 0,58,59
 555 441 555 441 555 381 c 0,60,61
 555 373 555 373 553.5 351 c 128,-1,62
 552 329 552 329 552 318 c 128,-1,63
 552 307 552 307 540 287.5 c 128,-1,64
 528 268 528 268 516 250 c 0,65,66
 513 246 513 246 515 222 c 128,-1,67
 517 198 517 198 512 188 c 128,-1,68
 507 178 507 178 484 145 c 0,69,70
 467 120 467 120 467 109 c 0,71,72
 467 75 467 75 497 18 c 1,73,74
 522 17 522 17 568 13 c 1,75,76
 587 -2 587 -2 587 -35 c 0,0,1
482 453 m 1,77,78
 465 459 465 459 444 470 c 1,79,80
 440 485 440 485 424 533 c 0,81,82
 411 572 411 572 411 581 c 1,83,84
 412 590 412 590 413 608 c 0,85,86
 413 622 413 622 409 632 c 0,87,88
 406 632 406 632 402 628.5 c 128,-1,89
 398 625 398 625 387 625 c 0,90,91
 375 625 375 625 366.5 636 c 128,-1,92
 358 647 358 647 356 647 c 1,93,94
 356 630 356 630 343 617 c 1,95,96
 331 628 331 628 326 643 c 0,97,98
 325 649 325 649 307 649 c 0,99,100
 294 649 294 649 264 629 c 0,101,102
 240 614 240 614 216 598 c 1,103,104
 219 583 219 583 181 550 c 1,105,106
 181 526 181 526 176 486 c 1,107,108
 171 479 171 479 149 468 c 1,109,110
 139 393 139 393 139 393 c 2,111,112
 139 381 139 381 144 348.5 c 128,-1,113
 149 316 149 316 149 306 c 1,114,115
 184 294 184 294 197 257 c 1,116,117
 244 273 244 273 263 273 c 0,118,119
 274 273 274 273 287 262 c 128,-1,120
 300 251 300 251 301 251 c 0,121,122
 321 250 321 250 357 246 c 1,123,124
 380 232 380 232 380 217 c 1,125,-1
 416 217 l 1,126,127
 449 266 449 266 474 282 c 1,128,-1
 474 311 l 1,129,130
 463 311 463 311 452.5 317.5 c 128,-1,131
 442 324 442 324 442 331 c 1,132,133
 457 341 457 341 472 352 c 0,134,135
 475 355 475 355 475 377 c 0,136,137
 475 397 475 397 470 404 c 0,138,139
 461 411 461 411 451 418 c 128,-1,140
 441 425 441 425 442 435 c 1,141,142
 458 440 458 440 482 453 c 1,77,78
370 107 m 1,143,144
 365 132 365 132 323 172 c 0,145,146
 285 209 285 209 279 209 c 0,147,148
 267 209 267 209 236 190 c 0,149,150
 202 170 202 170 195 168 c 1,151,-1
 195 129 l 1,152,153
 227 125 227 125 279 107 c 128,-1,154
 331 89 331 89 339 89 c 0,155,156
 351 89 351 89 370 107 c 1,143,144
EndSplineSet
Validated: 1
EndChar

StartChar: R
Encoding: 82 82 48
Width: 685
GlyphClass: 2
Flags: W
LayerCount: 2
Fore
SplineSet
654 73 m 1,0,1
 649 68 649 68 633 33 c 0,2,3
 620 5 620 5 610 5 c 0,4,5
 571 5 571 5 548 10 c 0,6,7
 546 9 546 9 541 1 c 0,8,9
 538 -3 538 -3 526 -3 c 0,10,11
 517 -3 517 -3 492 9 c 128,-1,12
 467 21 467 21 458 21 c 0,13,14
 448 21 448 21 448 13 c 128,-1,15
 448 5 448 5 438 5 c 0,16,17
 426 5 426 5 423 13 c 0,18,19
 420 25 420 25 419 26 c 0,20,21
 409 23 409 23 392 25 c 0,22,23
 368 29 368 29 362 29 c 0,24,25
 353 29 353 29 328 13 c 128,-1,26
 303 -3 303 -3 294 -3 c 1,27,28
 298 -3 298 -3 119 22 c 1,29,-1
 119 80 l 2,30,31
 118 89 118 89 135.5 109 c 128,-1,32
 153 129 153 129 155 138 c 0,33,34
 166 177 166 177 166 265 c 1,35,36
 166 248 166 248 131 551 c 1,37,38
 121 563 121 563 105 583 c 1,39,40
 78 641 78 641 79 666 c 2,41,-1
 79 708 l 1,42,43
 86 708 86 708 101.5 700.5 c 128,-1,44
 117 693 117 693 126 693 c 0,45,46
 136 693 136 693 168 701 c 128,-1,47
 200 709 200 709 210 709 c 0,48,49
 321 709 321 709 395 706 c 1,50,51
 404 700 404 700 418 686 c 1,52,53
 489 686 489 686 524 665 c 0,54,55
 536 658 536 658 556 600 c 0,56,57
 574 546 574 546 574 533 c 0,58,59
 574 500 574 500 526 429 c 0,60,61
 482 364 482 364 454 344 c 0,62,63
 454 341 454 341 456 330 c 0,64,65
 457 329 457 329 470 296 c 0,66,67
 478 277 478 277 490 267 c 1,68,69
 488 255 488 255 488 234 c 1,70,71
 497 217 497 217 523 199 c 1,72,73
 520 190 520 190 520 181 c 0,74,75
 520 155 520 155 548 133 c 0,76,77
 565 120 565 120 606 101 c 0,78,79
 644 83 644 83 654 73 c 1,0,1
478 537 m 0,80,81
 478 613 478 613 286 613 c 0,82,83
 276 613 276 613 253 608.5 c 128,-1,84
 230 604 230 604 224 604 c 1,85,86
 219 573 219 573 221 522 c 0,87,88
 223 453 223 453 223 446 c 1,89,90
 280 437 280 437 370 437 c 0,91,92
 389 437 389 437 432 471 c 0,93,94
 478 509 478 509 478 537 c 0,80,81
418 234 m 1,95,96
 397 239 397 239 382 296 c 0,97,98
 367 349 367 349 338 349 c 0,99,100
 272 349 272 349 230 337 c 1,101,102
 254 326 254 326 254 310 c 0,103,104
 254 299 254 299 238 274.5 c 128,-1,105
 222 250 222 250 222 237 c 0,106,107
 222 225 222 225 231 217 c 0,108,109
 237 212 237 212 244 207 c 1,110,111
 254 169 254 169 271 96 c 1,112,113
 280 91 280 91 297.5 88 c 128,-1,114
 315 85 315 85 321 82 c 128,-1,115
 327 79 327 79 346 60 c 0,116,117
 362 45 362 45 371 45 c 2,118,-1
 412 45 l 1,119,120
 428 65 428 65 428 92 c 0,121,122
 428 109 428 109 419 145 c 0,123,124
 410 178 410 178 411 194 c 1,125,126
 399 213 399 213 400 215 c 0,127,128
 405 222 405 222 418 234 c 1,95,96
EndSplineSet
Validated: 1
EndChar

StartChar: S
Encoding: 83 83 49
Width: 637
GlyphClass: 2
Flags: W
LayerCount: 2
Fore
SplineSet
551 178 m 0,0,1
 551 111 551 111 493 52.5 c 128,-1,2
 435 -6 435 -6 371 -6 c 0,3,4
 362 -6 362 -6 312.5 6 c 128,-1,5
 263 18 263 18 251 18 c 0,6,7
 222 18 222 18 213 15 c 0,8,9
 194 10 194 10 172 -13 c 1,10,-1
 104 -13 l 1,11,-1
 104 197 l 2,12,13
 102 219 102 219 107 249 c 0,14,15
 113 290 113 290 127 290 c 0,16,17
 162 290 162 290 175 262 c 0,18,19
 180 251 180 251 184 207 c 0,20,21
 187 200 187 200 219 175 c 1,22,23
 216 136 216 136 248 115 c 0,24,25
 275 98 275 98 315 98 c 0,26,27
 323 98 323 98 356 102 c 0,28,29
 393 106 393 106 409 107 c 1,30,31
 424 125 424 125 455 159 c 1,32,-1
 455 212 l 1,33,34
 434 223 434 223 422 254 c 0,35,36
 408 294 408 294 401 303 c 1,37,38
 300 296 300 296 199 361 c 0,39,40
 87 433 87 433 87 542 c 0,41,42
 87 625 87 625 141 667 c 0,43,44
 190 706 190 706 275 706 c 0,45,46
 283 706 283 706 329 694 c 128,-1,47
 375 682 375 682 383 682 c 0,48,49
 411 682 411 682 459 714 c 1,50,51
 473 704 473 704 491 679 c 1,52,53
 495 654 495 654 495 610 c 0,54,55
 495 603 495 603 490 552 c 0,56,57
 486 498 486 498 485 471 c 1,58,-1
 493 459 l 1,59,-1
 424 459 l 1,60,61
 399 524 399 524 401 541 c 1,62,63
 364 602 364 602 291 602 c 0,64,65
 241 602 241 602 226 578 c 0,66,67
 215 561 215 561 215 514 c 0,68,69
 215 461 215 461 272 431 c 0,70,71
 322 409 322 409 372 387 c 0,72,73
 381 382 381 382 408.5 380.5 c 128,-1,74
 436 379 436 379 445 374 c 0,75,76
 462 359 462 359 491 333 c 1,77,78
 491 323 491 323 500 307 c 1,79,80
 522 302 522 302 531 287 c 1,81,82
 533 272 533 272 542 228 c 0,83,84
 551 188 551 188 551 178 c 0,0,1
EndSplineSet
Validated: 1
EndChar

StartChar: T
Encoding: 84 84 50
Width: 545
GlyphClass: 2
Flags: W
LayerCount: 2
Fore
SplineSet
500 557 m 0,0,1
 500 551 500 551 496 508.5 c 128,-1,2
 492 466 492 466 492 443 c 1,3,4
 479 438 479 438 467 433 c 128,-1,5
 455 428 455 428 451 418 c 1,6,7
 439 417 439 417 417 453 c 1,8,9
 424 495 424 495 418 571 c 1,10,11
 401 580 401 580 376 617 c 1,12,13
 376 617 376 617 369 602 c 0,14,15
 364 593 364 593 352 593 c 0,16,17
 341 593 341 593 338.5 600.5 c 128,-1,18
 336 608 336 608 335 610 c 0,19,20
 330 610 330 610 326 602 c 0,21,22
 318 588 318 588 318 588 c 1,23,24
 317 575 317 575 313 535 c 0,25,26
 308 499 308 499 308 489 c 0,27,28
 308 443 308 443 334 135 c 1,29,30
 347 121 347 121 389.5 90 c 128,-1,31
 432 59 432 59 452 38 c 1,32,33
 446 14 446 14 424 6 c 0,34,35
 411 1 411 1 380 1 c 0,36,37
 370 1 370 1 282 -3 c 128,-1,38
 194 -7 194 -7 184 -7 c 0,39,40
 152 -7 152 -7 125 19 c 1,41,-1
 125 73 l 1,42,43
 163 87 163 87 201 101 c 0,44,45
 252 124 252 124 252 149 c 0,46,47
 252 154 252 154 245 188 c 0,48,49
 239 218 239 218 241 237 c 0,50,51
 239 240 239 240 231 252 c 1,52,53
 226 288 226 288 242 319 c 0,54,55
 245 326 245 326 242 346 c 0,56,57
 239 369 239 369 241 381 c 1,58,59
 235 389 235 389 223 404 c 1,60,61
 225 422 225 422 228 439 c 128,-1,62
 231 456 231 456 245 471 c 1,63,-1
 245 532 l 1,64,65
 223 566 223 566 221 568 c 0,66,67
 206 585 206 585 184 585 c 0,68,69
 145 585 145 585 145 533 c 2,70,-1
 145 530 l 2,71,72
 145 513 145 513 142 508 c 0,73,74
 138 492 138 492 126 476 c 0,75,76
 125 473 125 473 132.5 465.5 c 128,-1,77
 140 458 140 458 140 446 c 2,78,-1
 140 412 l 1,79,80
 135 406 135 406 130 399.5 c 128,-1,81
 125 393 125 393 112 393 c 0,82,83
 92 393 92 393 45 427 c 1,84,85
 61 488 61 488 57 525 c 0,86,87
 48 616 48 616 86 661 c 1,88,89
 106 673 106 673 172 673 c 0,90,91
 282 673 282 673 441 665 c 0,92,93
 500 662 500 662 500 557 c 0,0,1
EndSplineSet
Validated: 1
EndChar

StartChar: U
Encoding: 85 85 51
Width: 637
GlyphClass: 2
Flags: W
LayerCount: 2
Fore
SplineSet
602 669 m 0,0,1
 602 660 602 660 586 636 c 0,2,3
 567 608 567 608 564 596 c 0,4,5
 551 551 551 551 548 421 c 0,6,7
 547 334 547 334 545 246 c 1,8,9
 537 131 537 131 502 75 c 0,10,11
 495 63 495 63 454 33 c 0,12,13
 410 1 410 1 394 1 c 2,14,-1
 298 1 l 2,15,16
 284 1 284 1 245 13 c 128,-1,17
 206 25 206 25 188 36 c 0,18,19
 182 39 182 39 159 100 c 0,20,21
 156 107 156 107 136.5 123.5 c 128,-1,22
 117 140 117 140 116 149 c 0,23,24
 111 188 111 188 100 268 c 0,25,26
 99 274 99 274 111 294 c 1,27,28
 117 419 117 419 92 588 c 1,29,30
 75 616 75 616 66 628 c 0,31,32
 49 651 49 651 35 659 c 1,33,-1
 35 688 l 1,34,35
 162 701 162 701 280 689 c 1,36,37
 286 684 286 684 286 669 c 256,38,39
 286 654 286 654 280 642 c 1,40,41
 261 642 261 642 254 649 c 1,42,43
 244 640 244 640 238 611 c 0,44,45
 237 610 237 610 218 602 c 0,46,47
 205 597 205 597 199 588 c 1,48,49
 186 506 186 506 186 485 c 1,50,-1
 196 478 l 1,51,52
 185 381 185 381 204 247 c 1,53,54
 215 232 215 232 233 232 c 1,55,56
 233 225 233 225 221.5 215.5 c 128,-1,57
 210 206 210 206 210 197 c 0,58,59
 210 162 210 162 228 145 c 0,60,61
 261 114 261 114 279 81 c 1,62,63
 284 87 284 87 309 137 c 1,64,65
 319 131 319 131 334 129 c 0,66,67
 346 127 346 127 357 125 c 1,68,69
 359 119 359 119 362.5 112 c 128,-1,70
 366 105 366 105 378 105 c 256,71,72
 390 105 390 105 400 109 c 0,73,74
 406 112 406 112 412 115 c 0,75,76
 449 156 449 156 463 191 c 0,77,78
 466 195 466 195 457 207 c 0,79,80
 446 223 446 223 444 227 c 0,81,82
 474 273 474 273 474 321 c 0,83,84
 474 330 474 330 470 392 c 0,85,86
 465 466 465 466 463 492 c 0,87,88
 461 496 461 496 452 507 c 0,89,90
 451 514 451 514 463 533 c 1,91,92
 448 568 448 568 458 588 c 1,93,94
 422 612 422 612 347 659 c 1,95,-1
 347 695 l 1,96,97
 406 697 406 697 464 699 c 0,98,99
 539 701 539 701 593 696 c 0,100,101
 593 693 593 693 597.5 687 c 128,-1,102
 602 681 602 681 602 669 c 0,0,1
EndSplineSet
Validated: 1
EndChar

StartChar: V
Encoding: 86 86 52
Width: 637
GlyphClass: 2
Flags: W
LayerCount: 2
Fore
SplineSet
594 667 m 1,0,1
 592 655 592 655 568 628 c 0,2,3
 538 595 538 595 532 584 c 0,4,5
 528 577 528 577 516 537 c 128,-1,6
 504 497 504 497 492 480 c 1,7,8
 495 472 495 472 495 456 c 1,9,10
 483 442 483 442 479 397 c 0,11,12
 476 358 476 358 444 336 c 1,13,14
 442 285 442 285 442 274 c 0,15,16
 439 239 439 239 431 216 c 1,17,18
 420 206 420 206 404 177 c 1,19,20
 397 124 397 124 389 72 c 0,21,22
 376 -2 376 -2 342 -2 c 0,23,24
 311 -2 311 -2 300.5 16.5 c 128,-1,25
 290 35 290 35 280 86 c 0,26,27
 272 131 272 131 263 176 c 1,28,29
 255 190 255 190 245 193 c 1,30,31
 234 224 234 224 223 289 c 1,32,33
 210 301 210 301 196 329 c 1,34,35
 191 385 191 385 163 455 c 0,36,37
 137 512 137 512 111 570 c 0,38,39
 113 573 113 573 117 584 c 1,40,41
 107 589 107 589 83 618 c 128,-1,42
 59 647 59 647 43 654 c 1,43,44
 40 678 40 678 52 701 c 1,45,46
 176 694 176 694 296 694 c 1,47,-1
 306 684 l 1,48,-1
 306 654 l 1,49,50
 284 647 284 647 257 623 c 0,51,52
 225 594 225 594 219 591 c 0,53,54
 218 587 218 587 218 574 c 0,55,56
 218 566 218 566 238.5 533.5 c 128,-1,57
 259 501 259 501 260 483 c 1,58,59
 272 467 272 467 290 467 c 1,60,61
 282 462 282 462 274 456 c 128,-1,62
 266 450 266 450 266 438 c 0,63,64
 266 428 266 428 277 407 c 0,65,66
 293 376 293 376 295 371 c 0,67,68
 300 358 300 358 302.5 320 c 128,-1,69
 305 282 305 282 313 260 c 1,70,71
 320 261 320 261 327 254 c 1,72,73
 342 259 342 259 360 284 c 0,74,75
 361 289 361 289 362 325 c 0,76,77
 362 338 362 338 364 347 c 1,78,79
 372 355 372 355 392 380 c 0,80,81
 396 390 396 390 391 402 c 1,82,83
 396 434 396 434 401 467 c 0,84,85
 410 509 410 509 442 538 c 1,86,87
 427 549 427 549 427 559 c 0,88,89
 427 564 427 564 432 575.5 c 128,-1,90
 437 587 437 587 437 594 c 0,91,92
 437 608 437 608 424 623 c 0,93,94
 415 635 415 635 388 646 c 0,95,96
 355 660 355 660 346 665 c 1,97,98
 364 683 364 683 364 701 c 1,99,100
 387 697 387 697 443.5 699.5 c 128,-1,101
 500 702 500 702 526 698 c 0,102,103
 570 692 570 692 594 667 c 1,0,1
EndSplineSet
Validated: 1
EndChar

StartChar: W
Encoding: 87 87 53
Width: 669
GlyphClass: 2
Flags: W
LayerCount: 2
Fore
SplineSet
638 608 m 2,0,1
 639 584 639 584 611 464 c 1,2,3
 601 456 601 456 584 440 c 1,4,5
 585 402 585 402 564 238 c 1,6,7
 555 245 555 245 548 245 c 1,8,9
 538 236 538 236 531 186 c 0,10,11
 532 184 532 184 547 162 c 1,12,13
 532 140 532 140 533 87 c 0,14,15
 534 22 534 22 531 7 c 1,16,17
 516 -13 516 -13 464 -26 c 1,18,19
 459 -1 459 -1 452 136 c 1,20,21
 445 148 445 148 433 167 c 1,22,23
 436 179 436 179 436 199 c 1,24,25
 414 212 414 212 410 260 c 0,26,27
 405 317 405 317 400 326 c 1,28,29
 391 326 391 326 389.5 317.5 c 128,-1,30
 388 309 388 309 387 300 c 1,31,32
 380 293 380 293 380 277 c 1,33,34
 376 281 376 281 367.5 293 c 128,-1,35
 359 305 359 305 355 309 c 1,36,37
 345 271 345 271 315 193 c 0,38,39
 317 189 317 189 323 177 c 1,40,41
 309 151 309 151 304 78 c 0,42,43
 298 0 298 0 285 -34 c 1,44,-1
 232 -34 l 1,45,46
 206 132 206 132 164 288 c 1,47,48
 151 308 151 308 137 345 c 1,49,50
 132 376 132 376 124 440 c 1,51,52
 117 448 117 448 105 464 c 1,53,54
 108 488 108 488 116 534 c 1,55,56
 101 551 101 551 82 592 c 0,57,58
 68 621 68 621 58 621 c 0,59,60
 47 621 47 621 46 620 c 0,61,62
 43 613 43 613 43 613 c 1,63,-1
 31 623 l 1,64,-1
 31 660 l 1,65,66
 84 693 84 693 114 693 c 0,67,68
 172 693 172 693 214 669 c 1,69,-1
 235 685 l 1,70,71
 243 674 243 674 248.5 647 c 128,-1,72
 254 620 254 620 262 608 c 1,73,74
 242 604 242 604 198 584 c 1,75,76
 195 474 195 474 208 386 c 1,77,78
 217 370 217 370 250 361 c 1,79,80
 247 351 247 351 252 333 c 1,81,-1
 280 333 l 2,82,83
 281 335 281 335 293 357 c 0,84,85
 302 374 302 374 302 384 c 0,86,87
 302 400 302 400 282 406 c 1,88,89
 280 411 280 411 288 421 c 0,90,91
 294 428 294 428 300 435 c 1,92,93
 311 489 311 489 305 510 c 1,94,95
 316 518 316 518 324 531 c 0,96,97
 325 535 325 535 318.5 547.5 c 128,-1,98
 312 560 312 560 313 564 c 0,99,100
 340 576 340 576 343 605 c 0,101,102
 348 656 348 656 352 668 c 1,103,104
 390 668 390 668 468 680.5 c 128,-1,105
 546 693 546 693 550 693 c 0,106,107
 584 693 584 693 638 675 c 1,108,-1
 638 608 l 2,0,1
593 470 m 1,109,-1
 593 532 l 1,110,-1
 579 532 l 1,111,-1
 579 470 l 1,112,-1
 593 470 l 1,109,-1
542 533 m 0,113,114
 542 577 542 577 533 597 c 1,115,116
 529 596 529 596 516.5 595.5 c 128,-1,117
 504 595 504 595 497 595 c 0,118,119
 436 595 436 595 421 652 c 1,120,-1
 383 652 l 1,121,-1
 383 583 l 1,122,123
 422 563 422 563 422 545 c 0,124,125
 422 532 422 532 412 511 c 128,-1,126
 402 490 402 490 391 479 c 1,127,128
 396 480 396 480 400 480 c 0,129,130
 426 480 426 480 432 435 c 0,131,132
 439 375 439 375 440 374 c 0,133,134
 461 369 461 369 492 372 c 0,135,136
 531 375 531 375 534 375 c 2,137,-1
 510 401 l 1,138,139
 539 431 539 431 539 472 c 0,140,141
 539 494 539 494 531 513 c 0,142,143
 532 515 532 515 537 518 c 128,-1,144
 542 521 542 521 542 533 c 0,113,114
262 307 m 1,145,-1
 232 307 l 2,146,147
 232 304 232 304 250 285 c 1,148,149
 258 293 258 293 262 307 c 1,145,-1
EndSplineSet
Validated: 1
EndChar

StartChar: X
Encoding: 88 88 54
Width: 686
GlyphClass: 2
Flags: W
LayerCount: 2
Fore
SplineSet
646 -2 m 1,0,-1
 501 -2 l 2,1,2
 490 -2 490 -2 459.5 6.5 c 128,-1,3
 429 15 429 15 419 15 c 256,4,5
 409 15 409 15 406.5 6.5 c 128,-1,6
 404 -2 404 -2 394 -2 c 0,7,8
 385 -2 385 -2 376.5 10.5 c 128,-1,9
 368 23 368 23 356 23 c 0,10,11
 345 23 345 23 281.5 6 c 128,-1,12
 218 -11 218 -11 207 -11 c 0,13,14
 155 -11 155 -11 47 25 c 1,15,16
 50 41 50 41 75 61 c 0,17,18
 93 76 93 76 111 91 c 1,19,20
 111 63 111 63 117 57 c 1,21,22
 129 86 129 86 151 146 c 1,23,24
 162 151 162 151 179 165 c 1,25,26
 181 181 181 181 239 267 c 1,27,28
 236 281 236 281 244 310 c 1,29,30
 258 330 258 330 272 351 c 128,-1,31
 286 372 286 372 286 396 c 0,32,33
 286 406 286 406 284 416 c 1,34,35
 268 423 268 423 243 452.5 c 128,-1,36
 218 482 218 482 201 492 c 1,37,38
 192 521 192 521 179 576 c 1,39,40
 137 597 137 597 117 634 c 1,41,-1
 100 617 l 1,42,43
 92 634 92 634 83 650 c 0,44,45
 72 673 72 673 73 684 c 1,46,-1
 604 684 l 1,47,48
 622 648 622 648 622 644 c 0,49,50
 543 603 543 603 511 572 c 0,51,52
 476 538 476 538 462 506 c 0,53,54
 452 482 452 482 450 441 c 1,55,56
 437 429 437 429 425 417 c 0,57,58
 411 402 411 402 411 388 c 0,59,60
 411 377 411 377 426 357 c 0,61,62
 447 331 447 331 450 325.5 c 128,-1,63
 453 320 453 320 455 297.5 c 128,-1,64
 457 275 457 275 463 268 c 0,65,66
 481 245 481 245 542 183 c 0,67,68
 548 177 548 177 558 155 c 0,69,70
 569 129 569 129 574 121 c 1,71,72
 570 108 570 108 573 98 c 1,73,74
 586 94 586 94 599.5 80.5 c 128,-1,75
 613 67 613 67 614 54 c 0,76,77
 611 48 611 48 618 40 c 1,78,79
 624 53 624 53 646 74 c 1,80,-1
 646 -2 l 1,0,-1
385 566 m 0,81,82
 385 581 385 581 366.5 599.5 c 128,-1,83
 348 618 348 618 336 616 c 1,84,85
 328 602 328 602 319 588 c 0,86,87
 309 569 309 569 309 557 c 0,88,89
 309 546 309 546 319 530 c 0,90,91
 333 510 333 510 357 498 c 1,92,93
 385 555 385 555 385 566 c 0,81,82
469 76 m 1,94,-1
 469 107 l 1,95,96
 445 107 445 107 437 128 c 1,97,98
 435 147 435 147 432 166 c 1,99,100
 415 175 415 175 387 205 c 128,-1,101
 359 235 359 235 344 242 c 1,102,103
 342 250 342 250 351 268 c 1,104,-1
 319 268 l 1,105,106
 302 252 302 252 277 216 c 1,107,108
 273 189 273 189 264 140 c 0,109,110
 262 137 262 137 238 116 c 0,111,112
 223 102 223 102 225 94 c 0,113,114
 239 78 239 78 281 63.5 c 128,-1,115
 323 49 323 49 360 49 c 0,116,117
 371 49 371 49 377.5 57.5 c 128,-1,118
 384 66 384 66 394 66 c 256,119,120
 404 66 404 66 404 57.5 c 128,-1,121
 404 49 404 49 415 49 c 0,122,123
 428 49 428 49 444 59 c 0,124,125
 456 68 456 68 469 76 c 1,94,-1
EndSplineSet
Validated: 1
EndChar

StartChar: Y
Encoding: 89 89 55
Width: 573
GlyphClass: 2
Flags: W
LayerCount: 2
Fore
SplineSet
606 660 m 1,0,1
 601 650 601 650 551.5 616.5 c 128,-1,2
 502 583 502 583 491 554 c 0,3,4
 484 534 484 534 456 521 c 1,5,6
 452 502 452 502 443 459 c 0,7,8
 442 451 442 451 427.5 435 c 128,-1,9
 413 419 413 419 411 411 c 0,10,11
 405 370 405 370 395 315 c 1,12,13
 385 303 385 303 368 274 c 0,14,15
 364 264 364 264 364 249 c 0,16,17
 364 239 364 239 365.5 222 c 128,-1,18
 367 205 367 205 367 199 c 0,19,20
 367 109 367 109 365 142 c 1,21,22
 367 103 367 103 383 103 c 0,23,24
 391 103 391 103 391 106 c 0,25,26
 391 107 391 107 391 107 c 2,27,28
 390 108 390 108 390 109 c 0,29,30
 391 111 391 111 399 111 c 1,31,32
 397 111 397 111 400 102 c 0,33,34
 404 90 404 90 419 81 c 0,35,36
 442 67 442 67 487 59 c 1,37,38
 471 59 471 59 454 42 c 1,39,40
 453 31 453 31 463.5 20.5 c 128,-1,41
 474 10 474 10 487 7 c 1,42,43
 418 -1 418 -1 151 2 c 1,44,-1
 151 34 l 2,45,46
 151 47 151 47 155 57 c 0,47,48
 158 63 158 63 161 70 c 1,49,50
 209 102 209 102 287 134 c 1,51,52
 287 149 287 149 290.5 181 c 128,-1,53
 294 213 294 213 294 228 c 0,54,55
 294 272 294 272 273 300 c 0,56,57
 270 307 270 307 287 323 c 1,58,-1
 274 336 l 1,59,60
 263 328 263 328 256 328 c 1,61,62
 240 398 240 398 169 492 c 1,63,64
 164 559 164 559 137 573 c 0,65,66
 103 587 103 587 69 601 c 0,67,68
 31 621 31 621 31 659 c 0,69,70
 31 682 31 682 56 698 c 0,71,72
 78 711 78 711 103 711 c 0,73,74
 113 711 113 711 127 699 c 128,-1,75
 141 687 141 687 151 687 c 0,76,77
 163 687 163 687 169.5 695 c 128,-1,78
 176 703 176 703 176 703 c 1,79,-1
 195 687 l 1,80,81
 198 693 198 693 202 698 c 128,-1,82
 206 703 206 703 219 703 c 0,83,84
 230 703 230 703 257 686 c 0,85,86
 289 667 289 667 298 663 c 1,87,88
 319 674 319 674 319 678 c 0,89,90
 319 680 319 680 316 685 c 128,-1,91
 313 690 313 690 311 694 c 1,92,-1
 340 694 l 2,93,94
 341 693 341 693 345 684 c 0,95,96
 347 679 347 679 359 679 c 0,97,98
 369 679 369 679 405 691 c 128,-1,99
 441 703 441 703 451 703 c 0,100,101
 463 703 463 703 502.5 691 c 128,-1,102
 542 679 542 679 551 679 c 0,103,104
 562 679 562 679 570 687 c 128,-1,105
 578 695 578 695 580 695 c 0,106,107
 584 691 584 691 593 677.5 c 128,-1,108
 602 664 602 664 606 660 c 1,0,1
407 567 m 0,109,110
 407 584 407 584 375.5 611.5 c 128,-1,111
 344 639 344 639 330 639 c 2,112,-1
 257 639 l 1,113,-1
 239 621 l 1,114,-1
 239 563 l 1,115,116
 243 541 243 541 263 507 c 0,117,118
 286 470 286 470 289 459 c 1,119,120
 311 449 311 449 339 431 c 1,121,122
 407 544 407 544 407 567 c 0,109,110
EndSplineSet
Validated: 1
EndChar

StartChar: Z
Encoding: 90 90 56
Width: 573
GlyphClass: 2
Flags: W
LayerCount: 2
Fore
SplineSet
506 120 m 1,0,-1
 494 107 l 2,1,2
 490 98 490 98 503 77 c 1,3,4
 488 41 488 41 498 10 c 1,5,6
 405 -3 405 -3 279 -3 c 0,7,8
 272 -3 272 -3 254.5 -9.5 c 128,-1,9
 237 -16 237 -16 226 -16 c 0,10,11
 220 -16 220 -16 166 -7.5 c 128,-1,12
 112 1 112 1 85 1 c 1,13,-1
 67 20 l 1,14,15
 78 38 78 38 85 78 c 0,16,17
 89 82 89 82 101.5 87.5 c 128,-1,18
 114 93 114 93 123 102 c 0,19,20
 123 107 123 107 107 123 c 0,21,22
 107 127 107 127 116.5 137.5 c 128,-1,23
 126 148 126 148 128 150 c 0,24,25
 137 184 137 184 172 194 c 0,26,27
 175 195 175 195 181 204 c 1,28,29
 177 221 177 221 201 256 c 0,30,31
 221 283 221 283 240 310 c 0,32,33
 242 318 242 318 245 335 c 1,34,35
 259 344 259 344 275 368 c 0,36,37
 288 388 288 388 301 408 c 0,38,39
 362 537 362 537 362 548 c 0,40,41
 362 567 362 567 346 579.5 c 128,-1,42
 330 592 330 592 310 592 c 0,43,44
 300 592 300 592 298 584 c 128,-1,45
 296 576 296 576 286 576 c 0,46,47
 278 576 278 576 257.5 584 c 128,-1,48
 237 592 237 592 226 592 c 0,49,50
 216 592 216 592 201 579.5 c 128,-1,51
 186 567 186 567 172 554 c 1,52,53
 168 531 168 531 164 508 c 1,54,55
 166 516 166 516 166 470 c 0,56,57
 166 436 166 436 144 417 c 1,58,-1
 117 417 l 1,59,60
 102 427 102 427 92 472 c 0,61,62
 83 509 83 509 83 533 c 2,63,-1
 83 638 l 1,64,65
 100 649 100 649 134 661 c 1,66,67
 167 664 167 664 358 664 c 0,68,69
 370 664 370 664 418 655 c 0,70,71
 481 642 481 642 498 639 c 1,72,73
 498 632 498 632 489.5 608 c 128,-1,74
 481 584 481 584 479 571 c 1,75,76
 469 563 469 563 452 547 c 1,77,78
 446 511 446 511 408 449 c 0,79,80
 374 394 374 394 375 371 c 1,81,82
 363 363 363 363 343 334 c 0,83,84
 323 302 323 302 308 290 c 1,85,86
 307 278 307 278 303 258 c 1,87,88
 287 242 287 242 226 147 c 0,89,90
 226 142 226 142 235 137 c 0,91,92
 248 128 248 128 250 126 c 0,93,94
 251 123 251 123 240 116 c 0,95,96
 226 107 226 107 218 100 c 1,97,98
 236 80 236 80 263 80 c 2,99,-1
 402 80 l 2,100,101
 423 80 423 80 423 101 c 0,102,103
 423 110 423 110 419 126 c 0,104,105
 420 127 420 127 445 131 c 0,106,107
 458 134 458 134 458 144 c 0,108,109
 458 186 458 186 435 212 c 0,110,111
 428 224 428 224 428 231 c 1,112,113
 434 230 434 230 470 248 c 1,114,115
 483 248 483 248 495 229 c 1,116,117
 493 220 493 220 496 201 c 0,118,119
 499 177 499 177 499 169 c 0,120,121
 499 157 499 157 495 148 c 1,122,123
 499 143 499 143 502 139 c 0,124,125
 506 132 506 132 506 120 c 1,0,-1
401 42 m 1,126,127
 401 47 401 47 390 55.5 c 128,-1,128
 379 64 379 64 372 64 c 1,129,-1
 363 42 l 1,130,-1
 401 42 l 1,126,127
EndSplineSet
Validated: 1
EndChar

StartChar: underscore
Encoding: 95 95 57
Width: 442
GlyphClass: 2
Flags: W
LayerCount: 2
Fore
SplineSet
504 -130 m 0,0,1
 504 -145 504 -145 483 -171 c 1,2,3
 385 -190 385 -190 308 -190 c 1,4,5
 312 -190 312 -190 263 -188 c 0,6,7
 198 -185 198 -185 60 -182 c 0,8,9
 17 -181 17 -181 6 -142 c 0,10,11
 1 -125 1 -125 1 -63 c 1,12,-1
 444 -70 l 2,13,14
 467 -71 467 -71 488 -98 c 0,15,16
 504 -119 504 -119 504 -130 c 0,0,1
EndSplineSet
Validated: 1
EndChar

StartChar: a
Encoding: 97 97 58
Width: 616
GlyphClass: 2
Flags: W
LayerCount: 2
Fore
SplineSet
565 91 m 0,0,1
 565 54 565 54 521 24 c 0,2,3
 485 -1 485 -1 457 -1 c 0,4,5
 449 -1 449 -1 418 15 c 128,-1,6
 387 31 387 31 373 31 c 0,7,8
 363 31 363 31 317 7 c 128,-1,9
 271 -17 271 -17 261 -17 c 0,10,11
 166 -17 166 -17 109.5 26.5 c 128,-1,12
 53 70 53 70 53 151 c 0,13,14
 53 177 53 177 93 236 c 0,15,16
 131 291 131 291 125 322 c 1,17,18
 107 334 107 334 88 346 c 0,19,20
 77 355 77 355 77 379 c 0,21,22
 77 389 77 389 94 422 c 0,23,24
 114 463 114 463 120 478 c 1,25,26
 139 487 139 487 146 491 c 0,27,28
 164 501 164 501 177 516 c 1,29,30
 261 527 261 527 265 527 c 0,31,32
 343 527 343 527 382.5 490 c 128,-1,33
 422 453 422 453 452 354 c 1,34,35
 448 350 448 350 440 346 c 128,-1,36
 432 342 432 342 428 338 c 0,37,38
 427 324 427 324 457 309 c 0,39,40
 457 306 457 306 456 278 c 0,41,42
 454 246 454 246 454 222 c 0,43,44
 454 103 454 103 493 103 c 0,45,46
 511 103 511 103 535 151 c 1,47,48
 547 145 547 145 556 126 c 128,-1,49
 565 107 565 107 565 91 c 0,0,1
340 396 m 1,50,51
 331 405 331 405 316 415 c 0,52,53
 304 423 304 423 304 431 c 1,54,55
 304 415 304 415 281 415 c 0,56,57
 270 415 270 415 259.5 419 c 128,-1,58
 249 423 249 423 241 423 c 0,59,60
 229 423 229 423 204 409 c 0,61,62
 174 393 174 393 165 390 c 1,63,-1
 165 346 l 1,64,65
 177 330 177 330 189 314 c 0,66,67
 204 295 204 295 217 295 c 0,68,69
 226 295 226 295 257.5 308 c 128,-1,70
 289 321 289 321 299 322 c 1,71,72
 311 341 311 341 324 361.5 c 128,-1,73
 337 382 337 382 340 396 c 1,50,51
388 228 m 1,74,75
 367 241 367 241 339 268 c 1,76,77
 331 270 331 270 320 255 c 1,78,-1
 285 263 l 2,79,80
 273 263 273 263 268 257.5 c 128,-1,81
 263 252 263 252 262 251 c 0,82,83
 248 229 248 229 245 225 c 0,84,85
 233 207 233 207 222 201 c 0,86,87
 200 192 200 192 178.5 183 c 128,-1,88
 157 174 157 174 157 135 c 0,89,90
 157 116 157 116 198 89.5 c 128,-1,91
 239 63 239 63 265 63 c 0,92,93
 298 63 298 63 319 85 c 0,94,95
 352 119 352 119 369 129 c 0,96,97
 369 133 369 133 375 155 c 0,98,99
 380 171 380 171 377 181 c 0,100,101
 366 199 366 199 366 201 c 0,102,103
 378 217 378 217 388 228 c 1,74,75
EndSplineSet
Validated: 1
EndChar

StartChar: b
Encoding: 98 98 59
Width: 601
GlyphClass: 2
Flags: W
LayerCount: 2
Fore
SplineSet
549 261 m 0,0,1
 549 223 549 223 535 206 c 0,2,3
 518 187 518 187 517 179 c 0,4,5
 519 156 519 156 513 112 c 1,6,7
 498 69 498 69 439 29 c 128,-1,8
 380 -11 380 -11 341 -11 c 0,9,10
 331 -11 331 -11 329 -3 c 128,-1,11
 327 5 327 5 317 5 c 0,12,13
 314 5 314 5 267.5 1.5 c 128,-1,14
 221 -2 221 -2 193 -2 c 0,15,16
 173 -2 173 -2 160 -1 c 0,17,18
 121 4 121 4 93 24 c 1,19,20
 98 66 98 66 103 281 c 1,21,22
 94 313 94 313 95 314 c 0,23,24
 109 356 109 356 109 381 c 1,25,-1
 98 390 l 1,26,27
 98 420 98 420 103 482 c 0,28,29
 107 514 107 514 82 567 c 0,30,31
 75 574 75 574 56 581 c 0,32,33
 28 591 28 591 24 593 c 0,34,35
 14 620 14 620 -17 632 c 0,36,37
 -44 643 -44 643 -44 661 c 0,38,39
 -44 681 -44 681 -26 717 c 1,40,41
 -8 717 -8 717 32 721 c 128,-1,42
 72 725 72 725 81 725 c 0,43,44
 89 725 89 725 105 718 c 0,45,46
 118 712 118 712 126 714 c 1,47,48
 140 709 140 709 155 709 c 1,49,50
 157 700 157 700 157 687 c 0,51,52
 157 670 157 670 153 641 c 128,-1,53
 149 612 149 612 149 605 c 0,54,55
 149 577 149 577 177.5 535.5 c 128,-1,56
 206 494 206 494 231 477 c 1,57,58
 238 489 238 489 264 504 c 0,59,60
 302 526 302 526 312 533 c 1,61,62
 355 508 355 508 402 498 c 1,63,64
 405 486 405 486 427 463 c 1,65,66
 439 461 439 461 464 449 c 1,67,68
 466 443 466 443 468 436 c 0,69,70
 474 424 474 424 495 421 c 1,71,72
 503 403 503 403 529 361 c 0,73,74
 544 337 544 337 544 317 c 0,75,76
 544 302 544 302 537 281 c 0,77,78
 538 280 538 280 543.5 276.5 c 128,-1,79
 549 273 549 273 549 261 c 0,0,1
476 224 m 1,80,-1
 476 292 l 1,81,82
 439 304 439 304 426 373 c 1,83,84
 421 371 421 371 414 371 c 0,85,86
 393 371 393 371 358.5 396 c 128,-1,87
 324 421 324 421 321 421 c 0,88,89
 310 421 310 421 271 404 c 0,90,91
 228 383 228 383 213 380 c 1,92,93
 213 359 213 359 215 354 c 1,94,95
 202 338 202 338 189 323 c 0,96,97
 181 308 181 308 181 229 c 256,98,99
 181 150 181 150 209 117 c 0,100,101
 243 77 243 77 337 77 c 0,102,103
 355 77 355 77 406 130 c 0,104,105
 435 160 435 160 465 191 c 1,106,107
 466 203 466 203 476 224 c 1,80,-1
EndSplineSet
Validated: 1
EndChar

StartChar: c
Encoding: 99 99 60
Width: 537
GlyphClass: 2
Flags: W
LayerCount: 2
Fore
SplineSet
502 369 m 0,0,1
 502 358 502 358 433 289 c 1,2,3
 414 321 414 321 382 332 c 1,4,5
 400 358 400 358 395 395 c 0,6,7
 392 396 392 396 379 413 c 0,8,9
 369 425 369 425 358 425 c 0,10,11
 348 425 348 425 347.5 421 c 128,-1,12
 347 417 347 417 338 417 c 0,13,14
 327 417 327 417 322 427 c 0,15,16
 313 443 313 443 305 449 c 1,17,18
 250 408 250 408 220 399 c 1,19,20
 217 383 217 383 201 356 c 1,21,22
 164 326 164 326 164 286 c 0,23,24
 164 279 164 279 165 265.5 c 128,-1,25
 166 252 166 252 166 244 c 128,-1,26
 166 236 166 236 169 200 c 0,27,28
 174 158 174 158 175 143 c 1,29,30
 248 97 248 97 286 97 c 0,31,32
 294 97 294 97 306.5 105 c 128,-1,33
 319 113 319 113 330 113 c 0,34,35
 346 113 346 113 362 97 c 1,36,37
 380 108 380 108 411 135 c 1,38,39
 414 148 414 148 424 169 c 1,40,-1
 485 160 l 2,41,42
 485 156 485 156 475 149 c 0,43,44
 462 139 462 139 455 132 c 1,45,46
 457 115 457 115 449.5 87 c 128,-1,47
 442 59 442 59 432 44 c 1,48,49
 425 44 425 44 408 30 c 0,50,51
 387 14 387 14 379 11 c 0,52,53
 353 1 353 1 294 1 c 0,54,55
 177 1 177 1 112 83 c 0,56,57
 54 156 54 156 54 265 c 0,58,59
 54 276 54 276 62 312 c 0,60,61
 73 359 73 359 75 366 c 0,62,63
 76 370 76 370 90 381 c 128,-1,64
 104 392 104 392 107 399 c 0,65,66
 120 427 120 427 136 478 c 1,67,68
 147 483 147 483 175 498 c 1,69,70
 183 509 183 509 199 525 c 1,71,72
 244 553 244 553 302 553 c 0,73,74
 312 553 312 553 356 525 c 128,-1,75
 400 497 400 497 410 497 c 0,76,77
 421 497 421 497 427 501 c 128,-1,78
 433 505 433 505 436 505 c 0,79,80
 446 487 446 487 446 453 c 1,81,82
 446 457 446 457 474 426.5 c 128,-1,83
 502 396 502 396 502 369 c 0,0,1
EndSplineSet
Validated: 1
EndChar

StartChar: d
Encoding: 100 100 61
Width: 687
GlyphClass: 2
Flags: W
LayerCount: 2
Fore
SplineSet
637 19 m 1,0,1
 624 24 624 24 595 22 c 0,2,3
 550 18 550 18 554 18 c 1,4,5
 476 18 476 18 458 50 c 1,6,7
 450 38 450 38 404 29 c 0,8,9
 362 21 362 21 355 -5 c 1,10,11
 351 -1 351 -1 346.5 6.5 c 128,-1,12
 342 14 342 14 338 18 c 1,13,14
 325 6 325 6 325 -4 c 1,15,16
 318 -6 318 -6 306 1 c 128,-1,17
 294 8 294 8 289 18 c 1,18,19
 289 18 289 18 282 3 c 0,20,21
 278 -6 278 -6 266 -6 c 0,22,23
 256 -6 256 -6 256 2 c 128,-1,24
 256 10 256 10 246 10 c 0,25,26
 238 10 238 10 238 8 c 0,27,28
 238 7 238 7 238 6 c 2,29,30
 238 6 238 6 239 5 c 0,31,32
 238 2 238 2 230 2 c 0,33,34
 219 2 219 2 201 16 c 0,35,36
 178 33 178 33 169 37 c 1,37,-1
 161 37 l 1,38,39
 154 57 154 57 72 149 c 1,40,41
 74 156 74 156 74 165 c 0,42,43
 74 182 74 182 68 215 c 128,-1,44
 62 248 62 248 62 254 c 0,45,46
 62 263 62 263 67 292 c 0,47,48
 73 327 73 327 75 343 c 0,49,50
 76 350 76 350 89.5 363 c 128,-1,51
 103 376 103 376 108 384 c 1,52,53
 109 405 109 405 121 449 c 1,54,55
 155 462 155 462 196 494 c 0,56,57
 242 530 242 530 248 554 c 1,58,59
 255 552 255 552 265 539 c 0,60,61
 278 521 278 521 284 516 c 1,62,63
 338 513 338 513 346 512 c 0,64,65
 388 505 388 505 418 482 c 1,66,67
 430 498 430 498 470 527 c 1,68,69
 453 557 453 557 459 573 c 1,70,71
 438 593 438 593 416 613.5 c 128,-1,72
 394 634 394 634 382 634 c 0,73,74
 373 634 373 634 358 630 c 128,-1,75
 343 626 343 626 334 626 c 0,76,77
 286 626 286 626 247 653 c 1,78,-1
 247 712 l 1,79,80
 333 714 333 714 373 714 c 0,81,82
 383 714 383 714 385.5 722 c 128,-1,83
 388 730 388 730 398 730 c 0,84,85
 415 730 415 730 461 718 c 0,86,87
 513 703 513 703 538 689 c 1,88,89
 539 680 539 680 545 647 c 0,90,91
 550 618 550 618 550 606 c 0,92,93
 550 598 550 598 543.5 572 c 128,-1,94
 537 546 537 546 536 534 c 0,95,96
 534 505 534 505 533 476 c 0,97,98
 529 438 529 438 518 421 c 1,99,100
 516 403 516 403 550 391 c 1,101,102
 533 379 533 379 529 368 c 0,103,104
 526 361 526 361 525 339 c 0,105,106
 525 326 525 326 518 317 c 1,107,-1
 518 160 l 1,108,109
 526 154 526 154 550 115 c 0,110,111
 570 83 570 83 590 83 c 0,112,113
 600 83 600 83 612 90 c 1,114,115
 616 63 616 63 637 48 c 1,116,-1
 637 19 l 1,0,1
470 167 m 1,117,118
 436 179 436 179 438 197 c 1,119,120
 445 204 445 204 469 204 c 1,121,122
 469 213 469 213 456 224 c 0,123,124
 441 239 441 239 438 245 c 1,125,126
 469 261 469 261 469 273 c 1,127,128
 436 286 436 286 438 292 c 0,129,130
 442 296 442 296 454 302 c 128,-1,131
 466 308 466 308 470 312 c 1,132,133
 439 314 439 314 431 345 c 0,134,135
 428 365 428 365 426 385 c 1,136,137
 393 398 393 398 380 434 c 1,138,139
 368 429 368 429 341 431 c 0,140,141
 275 433 275 433 239 433 c 1,142,143
 242 419 242 419 223 399 c 0,144,145
 208 384 208 384 193 368 c 1,146,147
 184 320 184 320 152 285 c 1,148,149
 152 243 152 243 150 172 c 1,150,151
 180 143 180 143 181 141 c 0,152,153
 195 125 195 125 200 107 c 0,154,155
 202 107 202 107 206.5 110.5 c 128,-1,156
 211 114 211 114 222 114 c 0,157,158
 234 114 234 114 260 97 c 0,159,160
 280 82 280 82 300 67 c 1,161,162
 298 79 298 79 302.5 92.5 c 128,-1,163
 307 106 307 106 318 106 c 0,164,165
 328 106 328 106 347 102 c 128,-1,166
 366 98 366 98 374 98 c 0,167,168
 384 98 384 98 388 106 c 128,-1,169
 392 114 392 114 402 114 c 0,170,171
 421 114 421 114 436 132 c 0,172,173
 461 160 461 160 470 167 c 1,117,118
EndSplineSet
Validated: 1
EndChar

StartChar: e
Encoding: 101 101 62
Width: 563
GlyphClass: 2
Flags: W
LayerCount: 2
Fore
SplineSet
505 301 m 0,0,1
 505 280 505 280 493 260 c 0,2,3
 478 237 478 237 457 237 c 1,4,5
 467 237 467 237 412 239 c 0,6,7
 377 240 377 240 357 237 c 0,8,9
 355 236 355 236 341.5 244.5 c 128,-1,10
 328 253 328 253 317 253 c 0,11,12
 308 253 308 253 291.5 245 c 128,-1,13
 275 237 275 237 265 237 c 256,14,15
 255 237 255 237 215 245 c 128,-1,16
 175 253 175 253 165 253 c 0,17,18
 152 253 152 253 143 223 c 0,19,20
 137 200 137 200 137 189 c 0,21,22
 137 147 137 147 209 109 c 0,23,24
 270 77 270 77 305 77 c 0,25,26
 314 77 314 77 344 81 c 128,-1,27
 374 85 374 85 386 86 c 1,28,29
 390 97 390 97 412 132 c 0,30,31
 428 157 428 157 425 179 c 1,32,33
 480 183 480 183 504 169 c 1,34,35
 481 152 481 152 477 111 c 1,36,37
 469 96 469 96 438 90 c 1,38,39
 426 83 426 83 421 54 c 1,40,41
 380 28 380 28 339 1 c 0,42,43
 330 -3 330 -3 285 -3 c 0,44,45
 279 -3 279 -3 266 -5 c 0,46,47
 255 -6 255 -6 249 -5 c 0,48,49
 240 -4 240 -4 234 -1 c 0,50,51
 200 16 200 16 138 55 c 0,52,53
 136 57 136 57 119 80 c 0,54,55
 104 99 104 99 92 104 c 1,56,57
 49 271 49 271 49 317 c 0,58,59
 49 327 49 327 57.5 349.5 c 128,-1,60
 66 372 66 372 67 379 c 1,61,62
 95 392 95 392 110 410 c 1,63,64
 115 454 115 454 157 489 c 1,65,66
 271 517 271 517 309 517 c 0,67,68
 322 517 322 517 354 505.5 c 128,-1,69
 386 494 386 494 406.5 481.5 c 128,-1,70
 427 469 427 469 445 440 c 0,71,72
 455 423 455 423 474 377 c 1,73,74
 471 364 471 364 474 355 c 1,75,76
 498 341 498 341 503 329 c 0,77,78
 505 324 505 324 505 301 c 0,0,1
384 411 m 1,79,80
 355 421 355 421 301 421 c 0,81,82
 298 421 298 421 194 409 c 1,83,84
 177 380 177 380 153 336 c 1,85,86
 160 329 160 329 178 319 c 1,87,88
 194 323 194 323 208 323 c 0,89,90
 234 323 234 323 256 308 c 128,-1,91
 278 293 278 293 277 293 c 1,92,93
 288 293 288 293 310 305 c 128,-1,94
 332 317 332 317 341 317 c 256,95,96
 350 317 350 317 365.5 309 c 128,-1,97
 381 301 381 301 383 301 c 0,98,99
 388 321 388 321 386 356 c 0,100,101
 384 419 384 419 384 411 c 1,79,80
EndSplineSet
Validated: 1
EndChar

StartChar: f
Encoding: 102 102 63
Width: 616
GlyphClass: 2
Flags: W
LayerCount: 2
Fore
SplineSet
594 540 m 1,0,1
 562 515 562 515 551 481 c 1,2,3
 536 517 536 517 501 533 c 1,4,5
 500 552 500 552 496 595 c 1,6,7
 485 606 485 606 436 616 c 0,8,9
 393 625 393 625 371 625 c 0,10,11
 326 625 326 625 313 594 c 0,12,13
 307 580 307 580 307 545 c 0,14,15
 307 506 307 506 319 473 c 1,16,17
 324 480 324 480 324 488 c 1,18,19
 331 488 331 488 349.5 492.5 c 128,-1,20
 368 497 368 497 379 497 c 0,21,22
 389 497 389 497 391 485 c 128,-1,23
 393 473 393 473 403 473 c 0,24,25
 414 473 414 473 418.5 476.5 c 128,-1,26
 423 480 423 480 425 480 c 1,27,28
 425 478 425 478 429.5 463.5 c 128,-1,29
 434 449 434 449 434 435 c 1,30,31
 418 429 418 429 411 424 c 0,32,33
 392 413 392 413 385 394 c 0,34,35
 381 394 381 394 357 417 c 0,36,37
 352 417 352 417 346 408 c 0,38,39
 336 395 336 395 335 393 c 2,40,-1
 319 409 l 1,41,42
 307 394 307 394 306 342 c 1,43,44
 307 370 307 370 307 257 c 0,45,46
 307 254 307 254 305 227 c 128,-1,47
 303 200 303 200 303 181 c 0,48,49
 303 97 303 97 335 97 c 1,50,51
 328 97 328 97 375 94 c 0,52,53
 404 92 404 92 424 97 c 1,54,55
 443 78 443 78 443 61 c 0,56,57
 443 1 443 1 319 1 c 0,58,59
 309 1 309 1 221 -3 c 128,-1,60
 133 -7 133 -7 123 -7 c 0,61,62
 108 -7 108 -7 84 19 c 1,63,-1
 84 80 l 1,64,65
 93 78 93 78 117 90 c 128,-1,66
 141 102 141 102 157 117 c 1,67,68
 152 121 152 121 171 121 c 0,69,70
 183 121 183 121 185 116 c 0,71,72
 190 105 190 105 190 105 c 1,73,74
 206 122 206 122 195 167 c 0,75,76
 198 169 198 169 224 172 c 0,77,78
 243 175 243 175 243 185 c 0,79,80
 243 196 243 196 238 211 c 0,81,82
 232 233 232 233 231 236 c 128,-1,83
 230 239 230 239 213 245 c 0,84,85
 213 247 213 247 208 284 c 0,86,87
 205 310 205 310 208 324 c 1,88,89
 183 352 183 352 187 379 c 1,90,91
 149 390 149 390 111 401 c 0,92,93
 43 424 43 424 43 449 c 0,94,95
 43 470 43 470 69 485 c 0,96,97
 90 497 90 497 107 497 c 0,98,99
 117 497 117 497 117 493 c 128,-1,100
 117 489 117 489 127 489 c 0,101,102
 145 489 145 489 184 519 c 1,103,104
 190 543 190 543 197 591 c 1,105,106
 210 600 210 600 237 652 c 0,107,108
 241 660 241 660 274 684 c 0,109,110
 313 713 313 713 335 713 c 0,111,112
 345 713 345 713 347 705 c 128,-1,113
 349 697 349 697 359 697 c 256,114,115
 369 697 369 697 377 705 c 128,-1,116
 385 713 385 713 395 713 c 0,117,118
 415 713 415 713 448 707 c 0,119,120
 492 698 492 698 513 685 c 0,121,122
 548 663 548 663 583 599 c 1,123,124
 582 583 582 583 594 540 c 1,0,1
EndSplineSet
Validated: 1
EndChar

StartChar: g
Encoding: 103 103 64
Width: 635
GlyphClass: 2
Flags: W
LayerCount: 2
Fore
SplineSet
178 110 m 1,0,-1
 178 163 l 1,1,-1
 164 163 l 1,2,-1
 164 110 l 1,3,-1
 178 110 l 1,0,-1
583 459 m 1,4,5
 588 422 588 422 558 407 c 0,6,7
 541 398 541 398 493 392 c 0,8,9
 451 387 451 387 439 377 c 1,10,11
 453 362 453 362 463 362 c 1,12,13
 442 333 442 333 442 300 c 0,14,15
 442 282 442 282 447 263 c 1,16,17
 427 256 427 256 391 240 c 1,18,19
 396 235 396 235 412 223 c 0,20,21
 422 215 422 215 422 206 c 1,22,23
 384 201 384 201 384 181 c 0,24,25
 384 172 384 172 391 160 c 1,26,27
 387 156 387 156 375 152 c 0,28,29
 356 147 356 147 351 145 c 1,30,31
 379 142 379 142 427 128 c 1,32,33
 438 91 438 91 495 91 c 1,34,35
 493 86 493 86 493 81 c 0,36,37
 493 66 493 66 508 56 c 0,38,39
 520 48 520 48 532 39 c 1,40,41
 533 31 533 31 542 -0.5 c 128,-1,42
 551 -32 551 -32 551 -43 c 0,43,44
 551 -81 551 -81 528 -114 c 0,45,46
 522 -122 522 -122 483 -163 c 1,47,48
 482 -162 482 -162 472 -148 c 0,49,50
 466 -139 466 -139 461 -139 c 0,51,52
 454 -146 454 -146 454 -170 c 1,53,54
 302 -195 302 -195 295 -195 c 0,55,56
 287 -195 287 -195 287 -191 c 0,57,58
 287 -190 287 -190 287 -187 c 0,59,60
 288 -185 288 -185 288 -184 c 0,61,62
 288 -179 288 -179 279 -179 c 0,63,64
 272 -179 272 -179 255 -187 c 128,-1,65
 238 -195 238 -195 227 -195 c 0,66,67
 209 -195 209 -195 174 -187 c 0,68,69
 131 -176 131 -176 107 -161 c 0,70,71
 96 -154 96 -154 79 -133 c 128,-1,72
 62 -112 62 -112 58 -97 c 0,73,74
 56 -91 56 -91 52 -61 c 0,75,76
 49 -39 49 -39 40 -24 c 1,77,78
 40 -16 40 -16 47 -5.5 c 128,-1,79
 54 5 54 5 67 5 c 0,80,81
 79 5 79 5 80 4 c 0,82,83
 83 -3 83 -3 83 -3 c 1,84,-1
 95 10 l 1,85,86
 91 30 91 30 76 73 c 1,87,88
 87 95 87 95 100 145 c 0,89,90
 103 169 103 169 96 210 c 0,91,92
 87 256 87 256 87 261 c 0,93,94
 87 269 87 269 92 324 c 0,95,96
 97 385 97 385 98 410 c 1,97,98
 129 438 129 438 139 464 c 1,99,100
 177 479 177 479 185 516 c 1,101,102
 194 516 194 516 224.5 520.5 c 128,-1,103
 255 525 255 525 267 525 c 0,104,105
 303 525 303 525 316 522 c 0,106,107
 322 520 322 520 335 510.5 c 128,-1,108
 348 501 348 501 359 501 c 0,109,110
 369 501 369 501 399 505 c 128,-1,111
 429 509 429 509 439 509 c 128,-1,112
 449 509 449 509 457 521 c 128,-1,113
 465 533 465 533 475 533 c 0,114,115
 486 533 486 533 506.5 528 c 128,-1,116
 527 523 527 523 535 523 c 1,117,118
 532 513 532 513 549 490 c 128,-1,119
 566 467 566 467 583 459 c 1,4,5
383 329 m 0,120,121
 383 340 383 340 375 359 c 0,122,123
 364 381 364 381 364 384 c 0,124,125
 296 437 296 437 283 437 c 0,126,127
 258 437 258 437 219.5 400 c 128,-1,128
 181 363 181 363 176 334 c 1,129,130
 199 330 199 330 204 290 c 0,131,132
 209 245 209 245 218 237 c 1,133,-1
 324 237 l 2,134,135
 331 238 331 238 357 277.5 c 128,-1,136
 383 317 383 317 383 329 c 0,120,121
283 193 m 1,137,-1
 283 193 l 1,138,-1
 283 193 l 1,139,-1
 283 193 l 1,137,-1
286 156 m 1,140,141
 278 156 278 156 252.5 162 c 128,-1,142
 227 168 227 168 219 168 c 0,143,144
 207 168 207 168 207 161 c 0,145,146
 207 130 207 130 235 93 c 1,147,148
 286 144 286 144 286 156 c 1,140,141
503 -48 m 1,149,150
 489 -28 489 -28 480 1 c 0,151,152
 474 26 474 26 468 50 c 0,153,154
 462 60 462 60 441 60 c 1,155,156
 427 27 427 27 422 28 c 0,157,158
 395 69 395 69 283 69 c 0,159,160
 271 69 271 69 267 60 c 0,161,162
 259 45 259 45 259 45 c 1,163,164
 255 50 255 50 249.5 55.5 c 128,-1,165
 244 61 244 61 231 61 c 0,166,167
 220 61 220 61 194 37 c 0,168,169
 159 6 159 6 154 3 c 1,170,171
 155 -8 155 -8 147 -27 c 1,172,173
 145 -25 145 -25 138 -13 c 0,174,175
 133 -4 133 -4 129 -4 c 1,176,177
 129 -18 129 -18 133.5 -41 c 128,-1,178
 138 -64 138 -64 138 -73 c 256,179,180
 138 -82 138 -82 136 -89 c 1,181,182
 137 -89 137 -89 190 -120 c 0,183,184
 223 -139 223 -139 235 -139 c 0,185,186
 242 -139 242 -139 262 -136 c 0,187,188
 275 -133 275 -133 283 -137 c 1,189,190
 283 -132 283 -132 282 -128 c 0,191,192
 283 -123 283 -123 295 -123 c 0,193,194
 305 -123 305 -123 305 -131 c 128,-1,195
 305 -139 305 -139 315 -139 c 0,196,197
 359 -139 359 -139 380 -115 c 1,198,199
 403 -138 403 -138 406 -138 c 0,200,201
 409 -122 409 -122 428 -113.5 c 128,-1,202
 447 -105 447 -105 467 -96 c 1,203,204
 481 -76 481 -76 503 -48 c 1,149,150
EndSplineSet
Validated: 1
EndChar

StartChar: h
Encoding: 104 104 65
Width: 712
GlyphClass: 2
Flags: W
LayerCount: 2
Fore
SplineSet
659 21 m 1,0,1
 639 4 639 4 623 4 c 0,2,3
 613 4 613 4 549 0 c 128,-1,4
 485 -4 485 -4 475 -4 c 0,5,6
 439 -4 439 -4 412 21 c 1,7,-1
 412 57 l 1,8,9
 419 91 419 91 493 91 c 1,10,11
 497 102 497 102 497 119 c 0,12,13
 497 131 497 131 496 150.5 c 128,-1,14
 495 170 495 170 495 175 c 0,15,16
 495 188 495 188 491 205.5 c 128,-1,17
 487 223 487 223 487 228 c 0,18,19
 487 242 487 242 500 255 c 1,20,21
 474 266 474 266 469 280 c 0,22,23
 465 289 465 289 467.5 309 c 128,-1,24
 470 329 470 329 465 341 c 0,25,26
 464 342 464 342 415 380 c 0,27,28
 394 396 394 396 371 396 c 0,29,30
 356 396 356 396 353 394 c 0,31,32
 347 391 347 391 338 373 c 0,33,34
 335 372 335 372 328 382 c 0,35,36
 318 397 318 397 311 404 c 1,37,38
 301 395 301 395 295 367 c 1,39,40
 289 366 289 366 261 349 c 1,41,42
 262 320 262 320 256 270 c 0,43,44
 253 261 253 261 239 235 c 0,45,46
 227 215 227 215 227 204 c 0,47,48
 227 191 227 191 236 186 c 0,49,50
 242 184 242 184 248 182 c 1,51,52
 227 148 227 148 237 98 c 1,53,54
 254 84 254 84 310 68 c 1,55,-1
 328 84 l 1,56,57
 338 75 338 75 347 14 c 1,58,59
 293 -4 293 -4 275 -4 c 0,60,61
 274 -4 274 -4 226.5 -2 c 128,-1,62
 179 0 179 0 144 0 c 0,63,64
 92 0 92 0 60 -3 c 1,65,-1
 60 33 l 1,66,67
 76 46 76 46 103 80 c 0,68,69
 111 84 111 84 119 88 c 0,70,71
 132 94 132 94 142 93 c 1,72,73
 146 100 146 100 158 126 c 0,74,75
 166 144 166 144 180 154 c 1,76,-1
 180 406 l 1,77,78
 158 417 158 417 158 433 c 0,79,80
 158 445 158 445 171 456 c 1,81,82
 148 478 148 478 137 558 c 1,83,84
 110 570 110 570 52 606 c 1,85,-1
 59 663 l 2,86,87
 59 656 59 656 67 656 c 0,88,89
 71 656 71 656 81.5 659 c 128,-1,90
 92 662 92 662 96 662 c 0,91,92
 104 661 104 661 127 664.5 c 128,-1,93
 150 668 150 668 159 668 c 0,94,95
 170 668 170 668 191 657 c 0,96,97
 209 648 209 648 227 639 c 1,98,99
 224 619 224 619 251 591 c 1,100,101
 219 568 219 568 219 536 c 0,102,103
 219 496 219 496 238 489.5 c 128,-1,104
 257 483 257 483 259 441 c 1,105,106
 265 436 265 436 283 436 c 0,107,108
 313 436 313 436 319 452 c 0,109,110
 328 477 328 477 337 483 c 1,111,112
 337 460 337 460 359 460 c 0,113,114
 368 460 368 460 384 469 c 0,115,116
 396 476 396 476 408 484 c 1,117,118
 438 443 438 443 489 435 c 1,119,120
 507 417 507 417 495 405 c 1,121,122
 551 328 551 328 558 290 c 1,123,124
 560 233 560 233 563 176 c 1,125,126
 559 172 559 172 558.5 162 c 128,-1,127
 558 152 558 152 554 148 c 1,128,129
 557 143 557 143 557 138 c 0,130,131
 557 132 557 132 551 122 c 0,132,133
 543 109 543 109 541 105 c 1,134,135
 566 92 566 92 649 75 c 1,136,-1
 659 66 l 1,137,-1
 659 21 l 1,0,1
EndSplineSet
Validated: 1
EndChar

StartChar: i
Encoding: 105 105 66
Width: 534
GlyphClass: 2
Flags: W
LayerCount: 2
Fore
SplineSet
367 634 m 0,0,1
 367 603 367 603 343 568.5 c 128,-1,2
 319 534 319 534 299 534 c 0,3,4
 289 534 289 534 263 557 c 0,5,6
 230 587 230 587 224 591 c 1,7,8
 224 702 224 702 260 702 c 2,9,-1
 342 702 l 1,10,11
 367 649 367 649 367 634 c 0,0,1
495 51 m 1,12,13
 466 6 466 6 463 4 c 0,14,15
 456 -2 456 -2 419 -2 c 0,16,17
 379 -2 379 -2 359 14 c 1,18,-1
 339 -2 l 1,19,-1
 316 22 l 1,20,21
 300 2 300 2 297 0 c 128,-1,22
 294 -2 294 -2 275 -2 c 0,23,24
 274 -2 274 -2 235.5 -3.5 c 128,-1,25
 197 -5 197 -5 169 -4 c 0,26,27
 129 -4 129 -4 104 0 c 1,28,29
 105 9 105 9 88 60 c 1,30,31
 132 75 132 75 171 62 c 1,32,33
 179 70 179 70 185.5 85.5 c 128,-1,34
 192 101 192 101 195 106 c 0,35,36
 241 127 241 127 234 155 c 1,37,38
 245 159 245 159 264 172 c 1,39,-1
 264 281 l 1,40,41
 249 295 249 295 233 295 c 1,42,43
 233 298 233 298 236 308.5 c 128,-1,44
 239 319 239 319 239 330 c 0,45,46
 239 340 239 340 234.5 351.5 c 128,-1,47
 230 363 230 363 229 369 c 0,48,49
 222 377 222 377 209 383 c 0,50,51
 187 391 187 391 186 392 c 0,52,53
 184 430 184 430 167 430 c 0,54,55
 144 430 144 430 132 421 c 0,56,57
 124 414 124 414 117 406 c 1,58,59
 107 405 107 405 64 449 c 1,60,61
 64 458 64 458 79 476 c 0,62,63
 103 505 103 505 106 510 c 1,64,65
 123 494 123 494 163 470 c 1,66,67
 181 477 181 477 195 510 c 1,68,69
 199 506 199 506 204 498 c 128,-1,70
 209 490 209 490 213 486 c 0,71,72
 220 484 220 484 233 518 c 1,73,-1
 258 518 l 2,74,75
 268 518 268 518 278.5 506 c 128,-1,76
 289 494 289 494 299 494 c 0,77,78
 317 494 317 494 333 510 c 1,79,80
 350 440 350 440 350 351 c 0,81,82
 350 328 350 328 348.5 283.5 c 128,-1,83
 347 239 347 239 347 217 c 0,84,85
 347 165 347 165 353 124 c 1,86,87
 374 99 374 99 417 98 c 0,88,89
 473 96 473 96 487 89 c 1,90,91
 472 89 472 89 463 80 c 1,92,93
 462 63 462 63 495 51 c 1,12,13
EndSplineSet
Validated: 1
EndChar

StartChar: j
Encoding: 106 106 67
Width: 573
GlyphClass: 2
Flags: W
LayerCount: 2
Fore
SplineSet
531 682 m 0,0,1
 531 671 531 671 517 635 c 0,2,3
 500 592 500 592 497 579 c 0,4,5
 494 579 494 579 471 602 c 1,6,7
 457 589 457 589 457 580 c 1,8,9
 438 578 438 578 422 610 c 1,10,11
 418 606 418 606 413.5 594 c 128,-1,12
 409 582 409 582 405 578 c 1,13,14
 402 591 402 591 385 637 c 0,15,16
 371 675 371 675 371 686 c 0,17,18
 371 719 371 719 406 743 c 0,19,20
 436 762 436 762 459 762 c 0,21,22
 472 762 472 762 490.5 750.5 c 128,-1,23
 509 739 509 739 516 727 c 1,24,25
 515 719 515 719 523 705.5 c 128,-1,26
 531 692 531 692 531 682 c 0,0,1
531 306 m 0,27,28
 531 298 531 298 522.5 284 c 128,-1,29
 514 270 514 270 516 263 c 0,30,31
 519 242 519 242 527 206 c 0,32,33
 525 201 525 201 516 189 c 1,34,35
 509 161 509 161 527 127 c 1,36,37
 522 99 522 99 517 24 c 0,38,39
 513 -45 513 -45 503 -83 c 0,40,41
 501 -93 501 -93 485 -108 c 0,42,43
 464 -129 464 -129 462 -131 c 0,44,45
 393 -167 393 -167 364 -175 c 0,46,47
 340 -182 340 -182 291 -182 c 0,48,49
 231 -182 231 -182 197 -172 c 0,50,51
 188 -169 188 -169 177 -153 c 0,52,53
 163 -133 163 -133 157 -128 c 1,54,55
 148 -127 148 -127 132 -123 c 1,56,57
 122 -107 122 -107 112 -90 c 0,58,59
 99 -69 99 -69 85 -66 c 0,60,61
 85 -62 85 -62 80 -45.5 c 128,-1,62
 75 -29 75 -29 75 -18 c 256,63,64
 75 -7 75 -7 79 9 c 128,-1,65
 83 25 83 25 83 32 c 1,66,67
 115 50 115 50 147 50 c 0,68,69
 177 50 177 50 183 17 c 0,70,71
 186 -7 186 -7 188 -32 c 1,72,73
 212 -56 212 -56 245 -79 c 0,74,75
 290 -110 290 -110 315 -110 c 0,76,77
 324 -110 324 -110 362 -89 c 0,78,79
 410 -64 410 -64 432 -55 c 1,80,81
 439 -24 439 -24 442 53 c 0,82,83
 445 117 445 117 448 181 c 0,84,85
 445 189 445 189 437 205 c 1,86,87
 434 334 434 334 467 366 c 1,88,89
 442 386 442 386 428 427 c 1,90,91
 418 427 418 427 417 416 c 0,92,93
 417 410 417 410 417 403 c 2,94,-1
 417 394 l 1,95,96
 404 404 404 404 389 428 c 0,97,98
 386 434 386 434 343 434 c 0,99,100
 333 434 333 434 299 422 c 128,-1,101
 265 410 265 410 255 410 c 0,102,103
 223 410 223 410 179 453 c 1,104,105
 197 487 197 487 196 521 c 1,106,-1
 325 521 l 1,107,108
 332 529 332 529 333 554 c 1,109,110
 340 548 340 548 388 542 c 0,111,112
 426 538 426 538 425 513 c 1,113,114
 428 513 428 513 431.5 525.5 c 128,-1,115
 435 538 435 538 447 538 c 0,116,117
 458 538 458 538 462 530 c 128,-1,118
 466 522 466 522 469 522 c 0,119,120
 484 537 484 537 484 554 c 1,121,122
 493 550 493 550 504 531 c 0,123,124
 520 505 520 505 527 496 c 0,125,126
 528 492 528 492 521.5 479.5 c 128,-1,127
 515 467 515 467 516 463 c 0,128,129
 520 452 520 452 514 374 c 0,130,131
 512 341 512 341 516 327 c 0,132,133
 519 318 519 318 525 314.5 c 128,-1,134
 531 311 531 311 531 306 c 0,27,28
EndSplineSet
Validated: 1
EndChar

StartChar: k
Encoding: 107 107 68
Width: 668
GlyphClass: 2
Flags: W
LayerCount: 2
Fore
SplineSet
619 86 m 1,0,1
 620 58 620 58 595.5 38 c 128,-1,2
 571 18 571 18 547 -1 c 1,3,4
 537 -2 537 -2 522.5 11 c 128,-1,5
 508 24 508 24 496 36 c 1,6,7
 447 38 447 38 350 48 c 1,8,9
 352 58 352 58 374.5 80.5 c 128,-1,10
 397 103 397 103 397 115 c 0,11,12
 397 124 397 124 384 145 c 128,-1,13
 371 166 371 166 370 177 c 0,14,15
 368 180 368 180 353 192 c 0,16,17
 343 200 343 200 343 210 c 256,18,19
 343 220 343 220 349 234 c 1,20,21
 344 239 344 239 321 239 c 0,22,23
 296 239 296 239 268 208 c 0,24,25
 240 174 240 174 213 139 c 1,26,27
 220 135 220 135 242 105 c 0,28,29
 258 82 258 82 278 82 c 0,30,31
 288 82 288 82 299 86 c 1,32,33
 299 83 299 83 304 76.5 c 128,-1,34
 309 70 309 70 309 59 c 0,35,36
 309 46 309 46 300.5 34.5 c 128,-1,37
 292 23 292 23 281 23 c 0,38,39
 271 23 271 23 271 27 c 128,-1,40
 271 31 271 31 261 31 c 256,41,42
 251 31 251 31 251 23 c 128,-1,43
 251 15 251 15 241 15 c 256,44,45
 231 15 231 15 231 23 c 128,-1,46
 231 31 231 31 221 31 c 256,47,48
 211 31 211 31 207 19 c 128,-1,49
 203 7 203 7 193 7 c 0,50,51
 161 7 161 7 129 39 c 1,52,53
 114 24 114 24 114 7 c 1,54,55
 98 19 98 19 81 32 c 0,56,57
 57 51 57 51 54 69 c 1,58,59
 67 71 67 71 96 96 c 128,-1,60
 125 121 125 121 143 126 c 1,61,62
 147 134 147 134 150 158 c 0,63,64
 152 174 152 174 173 187 c 1,65,66
 143 209 143 209 141 339 c 0,67,68
 139 430 139 430 137 520 c 0,69,70
 136 577 136 577 141 593 c 1,71,72
 123 597 123 597 90 618 c 0,73,74
 44 645 44 645 38 649 c 1,75,-1
 38 709 l 1,76,77
 55 719 55 719 89 719 c 0,78,79
 163 719 163 719 200 693 c 0,80,81
 245 662 245 662 245 587 c 0,82,83
 245 552 245 552 221 538 c 1,84,85
 225 535 225 535 233 525 c 0,86,87
 243 506 243 506 226 482 c 1,88,89
 234 459 234 459 234 457 c 0,90,91
 227 453 227 453 215 442 c 1,92,-1
 215 435 l 1,93,94
 228 416 228 416 226 409 c 0,95,96
 221 406 221 406 217 402.5 c 128,-1,97
 213 399 213 399 213 387 c 0,98,99
 213 381 213 381 217.5 376 c 128,-1,100
 222 371 222 371 222 365 c 0,101,102
 222 356 222 356 215 338 c 1,103,-1
 215 331 l 1,104,105
 229 317 229 317 257 287 c 1,106,107
 286 314 286 314 315 341 c 0,108,109
 349 374 349 374 349 387 c 0,110,111
 349 395 349 395 342 406.5 c 128,-1,112
 335 418 335 418 338 427 c 1,113,114
 334 437 334 437 314.5 448 c 128,-1,115
 295 459 295 459 277 463 c 1,116,117
 289 466 289 466 303.5 482 c 128,-1,118
 318 498 318 498 318 510 c 1,119,120
 321 510 321 510 327 498.5 c 128,-1,121
 333 487 333 487 344 487 c 128,-1,122
 355 487 355 487 371 483 c 128,-1,123
 387 479 387 479 397 479 c 256,124,125
 407 479 407 479 409 487 c 128,-1,126
 411 495 411 495 421 495 c 256,127,128
 431 495 431 495 485 487 c 128,-1,129
 539 479 539 479 549 479 c 0,130,131
 560 479 560 479 568.5 486.5 c 128,-1,132
 577 494 577 494 580 494 c 1,133,134
 580 485 580 485 597 468 c 1,135,136
 597 455 597 455 578 441 c 1,137,138
 534 441 534 441 509 423 c 1,139,-1
 489 439 l 1,140,141
 417 379 417 379 341 290 c 1,142,143
 346 274 346 274 376 267 c 0,144,145
 378 264 378 264 382 229 c 1,146,147
 401 218 401 218 432 182 c 0,148,149
 466 141 466 141 483 128 c 0,150,151
 491 122 491 122 542 112 c 0,152,153
 586 103 586 103 598 78 c 1,154,-1
 619 86 l 1,0,1
EndSplineSet
Validated: 1
EndChar

StartChar: l
Encoding: 108 108 69
Width: 587
GlyphClass: 2
Flags: W
LayerCount: 2
Fore
SplineSet
512 17 m 1,0,1
 490 17 490 17 445 8 c 128,-1,2
 400 -1 400 -1 393 -1 c 0,3,4
 183 -1 183 -1 75 8 c 1,5,-1
 65 17 l 1,6,-1
 65 70 l 1,7,8
 75 84 75 84 114 85 c 0,9,10
 150 86 150 86 163 119 c 1,11,12
 183 112 183 112 252 95 c 0,13,14
 255 98 255 98 255 102 c 1,15,16
 255 100 255 100 246 124 c 1,17,18
 265 160 265 160 265 181 c 0,19,20
 265 197 265 197 253 205 c 128,-1,21
 241 213 241 213 241 215 c 0,22,23
 241 234 241 234 249 235.5 c 128,-1,24
 257 237 257 237 257 246 c 0,25,26
 257 261 257 261 246 308 c 1,27,28
 255 315 255 315 273 330 c 1,29,30
 240 343 240 343 240 403 c 0,31,32
 240 420 240 420 242 444 c 0,33,34
 246 474 246 474 246 476 c 0,35,36
 247 497 247 497 235 527 c 0,37,38
 226 542 226 542 228 547 c 0,39,40
 235 550 235 550 249 565 c 1,41,42
 251 576 251 576 227 600 c 1,43,44
 214 600 214 600 214 584 c 1,45,46
 208 593 208 593 202 602 c 0,47,48
 193 615 193 615 181 615 c 0,49,50
 171 615 171 615 171 611 c 128,-1,51
 171 607 171 607 161 607 c 0,52,53
 128 607 128 607 68 625 c 0,54,55
 58 628 58 628 39 650 c 0,56,57
 15 678 15 678 9 683 c 1,58,59
 40 719 40 719 69 719 c 0,60,61
 71 719 71 719 167.5 706.5 c 128,-1,62
 264 694 264 694 312 694 c 1,63,64
 312 670 312 670 316 607 c 128,-1,65
 320 544 320 544 320 512 c 0,66,67
 320 470 320 470 315 443 c 0,68,69
 314 440 314 440 320 426.5 c 128,-1,70
 326 413 326 413 326 403 c 0,71,72
 326 301 326 301 334 268 c 0,73,74
 339 246 339 246 339 232 c 0,75,76
 339 216 339 216 330 209.5 c 128,-1,77
 321 203 321 203 321 196 c 2,78,-1
 321 141 l 1,79,80
 325 136 325 136 336 139 c 0,81,82
 350 143 350 143 351 143 c 0,83,84
 359 129 359 129 379 111 c 0,85,86
 405 87 405 87 421 87 c 0,87,88
 428 87 428 87 460.5 87 c 128,-1,89
 493 87 493 87 511 87 c 1,90,91
 513 83 513 83 513 75 c 0,92,93
 513 70 513 70 511.5 56 c 128,-1,94
 510 42 510 42 510 34 c 0,95,96
 510 24 510 24 512 17 c 1,0,1
560 62 m 1,97,98
 554 41 554 41 547.5 21 c 128,-1,99
 541 1 541 1 531 -8 c 1,100,101
 529 53 529 53 540 71 c 1,102,103
 553 62 553 62 560 62 c 1,97,98
EndSplineSet
Validated: 1
EndChar

StartChar: m
Encoding: 109 109 70
Width: 700
GlyphClass: 2
Flags: W
LayerCount: 2
Fore
SplineSet
658 10 m 1,0,1
 614 -1 614 -1 558 -1 c 0,2,3
 541 -1 541 -1 520 20 c 0,4,5
 495 43 495 43 498 69 c 1,6,7
 511 73 511 73 536 94 c 1,8,9
 562 129 562 129 562 147 c 0,10,11
 562 169 562 169 540 194 c 1,12,13
 557 243 557 243 552 313 c 1,14,15
 524 324 524 324 518 359 c 0,16,17
 517 388 517 388 515 416 c 1,18,19
 509 416 509 416 493 419.5 c 128,-1,20
 477 423 477 423 466 423 c 0,21,22
 458 423 458 423 419 401 c 1,23,24
 394 239 394 239 394 207 c 0,25,26
 394 202 394 202 393 190.5 c 128,-1,27
 392 179 392 179 392 173 c 0,28,29
 392 113 392 113 481 61 c 1,30,-1
 481 16 l 1,31,32
 477 16 477 16 454 39 c 1,33,34
 419 -1 419 -1 386 -1 c 2,35,-1
 134 -1 l 2,36,37
 123 -1 123 -1 99 9 c 0,38,39
 60 24 60 24 59 25 c 2,40,-1
 59 86 l 1,41,42
 108 99 108 99 108 189 c 0,43,44
 108 203 108 203 107 224.5 c 128,-1,45
 106 246 106 246 106 251 c 0,46,47
 106 324 106 324 103 362 c 1,48,49
 98 374 98 374 69 395 c 1,50,51
 66 409 66 409 64 417 c 0,52,53
 59 431 59 431 51 439 c 1,54,-1
 51 447 l 2,55,56
 51 458 51 458 55 472.5 c 128,-1,57
 59 487 59 487 59 494 c 1,58,59
 107 494 107 494 203 502.5 c 128,-1,60
 299 511 299 511 302 511 c 0,61,62
 312 511 312 511 362 495 c 128,-1,63
 412 479 412 479 422 479 c 0,64,65
 427 479 427 479 455 491 c 128,-1,66
 483 503 483 503 502 503 c 0,67,68
 536 503 536 503 549 498 c 0,69,70
 574 488 574 488 598 453 c 1,71,72
 600 440 600 440 604 413 c 1,73,74
 610 407 610 407 617 401 c 0,75,76
 626 392 626 392 626 380 c 2,77,-1
 626 74 l 2,78,79
 626 63 626 63 631 64 c 128,-1,80
 636 65 636 65 639 61 c 0,81,82
 642 51 642 51 626 35 c 1,83,84
 629 32 629 32 641.5 23 c 128,-1,85
 654 14 654 14 658 10 c 1,0,1
370 277 m 1,86,87
 358 277 358 277 339 301 c 1,88,89
 335 336 335 336 331 372 c 0,90,91
 323 423 323 423 286 423 c 0,92,93
 270 423 270 423 231.5 405 c 128,-1,94
 193 387 193 387 180 372 c 1,95,96
 182 334 182 334 176 261 c 0,97,98
 170 182 170 182 170 183 c 1,99,100
 170 149 170 149 190 114 c 0,101,102
 216 71 216 71 258 71 c 0,103,104
 269 71 269 71 293 98.5 c 128,-1,105
 317 126 317 126 326 131 c 1,106,107
 338 175 338 175 340 250 c 1,108,109
 351 259 351 259 370 277 c 1,86,87
EndSplineSet
Validated: 1
EndChar

StartChar: n
Encoding: 110 110 71
Width: 704
GlyphClass: 2
Flags: W
LayerCount: 2
Fore
SplineSet
650 70 m 1,0,1
 649 60 649 60 625 11 c 1,2,3
 615 10 615 10 582 5 c 0,4,5
 553 0 553 0 542 0 c 0,6,7
 534 0 534 0 494 4.5 c 128,-1,8
 454 9 454 9 436 9 c 1,9,10
 431 28 431 28 419 61 c 1,11,12
 484 92 484 92 499 124 c 0,13,14
 506 140 506 140 506 200 c 0,15,16
 506 206 506 206 498 266 c 0,17,18
 489 331 489 331 488 362 c 1,19,20
 466 374 466 374 428 406 c 0,21,22
 422 408 422 408 402 408 c 0,23,24
 379 408 379 408 377 402 c 0,25,26
 371 385 371 385 366 379 c 0,27,28
 344 358 344 358 322 337 c 0,29,30
 293 309 293 309 284.5 291.5 c 128,-1,31
 276 274 276 274 274 249 c 0,32,33
 272 231 272 231 273 207 c 0,34,35
 274 171 274 171 274 176 c 1,36,37
 274 140 274 140 295 115 c 0,38,39
 299 111 299 111 362 52 c 1,40,41
 358 49 358 49 338 27 c 0,42,43
 322 8 322 8 310 8 c 1,44,45
 311 8 311 8 262.5 6.5 c 128,-1,46
 214 5 214 5 177 5 c 0,47,48
 125 6 125 6 91 9 c 0,49,50
 91 12 91 12 86.5 18.5 c 128,-1,51
 82 25 82 25 82 36 c 256,52,53
 82 47 82 47 113.5 76.5 c 128,-1,54
 145 106 145 106 168 119 c 1,55,56
 166 130 166 130 165 158 c 1,57,58
 186 176 186 176 191 205 c 0,59,60
 193 212 193 212 188 226.5 c 128,-1,61
 183 241 183 241 183 247 c 0,62,63
 183 251 183 251 184 254 c 2,64,-1
 194 254 l 1,65,66
 194 261 194 261 191 282 c 0,67,68
 189 298 189 298 191 307 c 1,69,70
 163 346 163 346 83 427 c 1,71,72
 88 451 88 451 127 469.5 c 128,-1,73
 166 488 166 488 206 488 c 0,74,75
 226 488 226 488 286 448 c 1,76,77
 358 496 358 496 422 496 c 0,78,79
 470 496 470 496 543 446 c 1,80,81
 546 410 546 410 556 365 c 1,82,83
 564 352 564 352 575 325 c 1,84,85
 581 293 581 293 582 224 c 0,86,87
 583 152 583 152 588 117 c 0,88,89
 590 103 590 103 610.5 91.5 c 128,-1,90
 631 80 631 80 650 70 c 1,0,1
EndSplineSet
Validated: 1
EndChar

StartChar: o
Encoding: 111 111 72
Width: 522
GlyphClass: 2
Flags: W
LayerCount: 2
Fore
SplineSet
503 275 m 0,0,1
 503 230 503 230 483 142 c 0,2,3
 476 109 476 109 400.5 56 c 128,-1,4
 325 3 325 3 299 3 c 0,5,6
 290 3 290 3 271.5 -1 c 128,-1,7
 253 -5 253 -5 243 -5 c 0,8,9
 228 -5 228 -5 184 12 c 128,-1,10
 140 29 140 29 114 46 c 0,11,12
 82 66 82 66 73 94 c 0,13,14
 39 192 39 192 39 239 c 0,15,16
 39 331 39 331 57 377 c 0,17,18
 85 448 85 448 120 471 c 0,19,20
 134 480 134 480 170 488 c 0,21,22
 219 499 219 499 225 501 c 128,-1,23
 231 503 231 503 247 514 c 0,24,25
 259 523 259 523 271 523 c 0,26,27
 308 523 308 523 357 492 c 0,28,29
 360 490 360 490 393 480 c 0,30,31
 423 471 423 471 430 463 c 0,32,33
 453 434 453 434 475 383 c 0,34,35
 503 321 503 321 503 275 c 0,0,1
415 243 m 0,36,37
 415 255 415 255 411 261 c 128,-1,38
 407 267 407 267 403 271 c 1,39,40
 408 294 408 294 384 335 c 0,41,42
 364 372 364 372 349 383 c 0,43,44
 312 411 312 411 279 411 c 0,45,46
 255 411 255 411 177 383 c 1,47,48
 176 375 176 375 164 358 c 0,49,50
 149 336 149 336 146 330 c 128,-1,51
 143 324 143 324 143 279 c 0,52,53
 143 224 143 224 148 204 c 0,54,55
 156 173 156 173 194 118 c 0,56,57
 199 117 199 117 223 107 c 0,58,59
 244 99 244 99 255 99 c 0,60,61
 265 99 265 99 271 103 c 128,-1,62
 277 107 277 107 287 107 c 0,63,64
 299 107 299 107 303 103.5 c 128,-1,65
 307 100 307 100 311 95 c 1,66,67
 293 83 293 83 293 62 c 0,68,69
 293 53 293 53 296 44 c 1,70,-1
 339 44 l 1,71,72
 373 59 373 59 373 92 c 0,73,74
 373 112 373 112 360 143 c 1,75,76
 415 220 415 220 415 243 c 0,36,37
EndSplineSet
Validated: 1
EndChar

StartChar: p
Encoding: 112 112 73
Width: 591
GlyphClass: 2
Flags: W
LayerCount: 2
Fore
SplineSet
544 272 m 0,0,1
 544 206 544 206 525 147 c 0,2,3
 517 122 517 122 488 92 c 128,-1,4
 459 62 459 62 431.5 51.5 c 128,-1,5
 404 41 404 41 351 46 c 0,6,7
 292 52 292 52 269 48 c 0,8,9
 226 40 226 40 200 -4 c 1,10,11
 203 -13 203 -13 220 -21 c 0,12,13
 243 -33 243 -33 245 -34 c 0,14,15
 246 -45 246 -45 257 -73 c 1,16,17
 253 -75 253 -75 253 -77 c 0,18,19
 253 -80 253 -80 263.5 -80 c 128,-1,20
 274 -80 274 -80 298.5 -84.5 c 128,-1,21
 323 -89 323 -89 335 -89 c 1,22,23
 339 -112 339 -112 335 -151 c 1,24,25
 205 -162 205 -162 121 -162 c 0,26,27
 70 -162 70 -162 26 -158 c 0,28,29
 26 -156 26 -156 21 -151.5 c 128,-1,30
 16 -147 16 -147 16 -136 c 0,31,32
 16 -106 16 -106 41 -90 c 0,33,34
 56 -80 56 -80 89 -72 c 128,-1,35
 122 -64 122 -64 129 -58 c 1,36,37
 123 93 123 93 123 122 c 0,38,39
 123 152 123 152 129 157 c 1,40,41
 124 183 124 183 119 306 c 0,42,43
 115 390 115 390 91 422 c 1,44,45
 51 427 51 427 37 435 c 0,46,47
 13 450 13 450 1 493 c 1,48,49
 14 514 14 514 76 528 c 0,50,51
 86 528 86 528 160 520 c 128,-1,52
 234 512 234 512 244 512 c 0,53,54
 256 512 256 512 256 518 c 128,-1,55
 256 524 256 524 257 525 c 0,56,57
 278 522 278 522 316 524 c 0,58,59
 366 528 366 528 364 528 c 1,60,61
 374 528 374 528 461 499 c 1,62,63
 460 492 460 492 472 479 c 128,-1,64
 484 466 484 466 500 460 c 1,65,66
 511 450 511 450 525 421 c 1,67,68
 544 337 544 337 544 272 c 0,0,1
488 169 m 1,69,-1
 488 333 l 2,70,71
 488 344 488 344 483 358 c 0,72,73
 478 376 478 376 477 379 c 0,74,75
 467 389 467 389 427 426 c 0,76,77
 403 448 403 448 391 468 c 1,78,79
 381 472 381 472 360 472 c 0,80,81
 340 472 340 472 331 469 c 0,82,83
 329 468 329 468 322.5 454 c 128,-1,84
 316 440 316 440 304 440 c 0,85,86
 294 440 294 440 294 448 c 128,-1,87
 294 456 294 456 284 456 c 0,88,89
 267 456 267 456 235 414 c 1,90,91
 229 393 229 393 233 349 c 0,92,93
 236 302 236 302 232 282 c 0,94,95
 225 248 225 248 193 232 c 1,96,-1
 193 210 l 1,97,98
 220 187 220 187 254 145 c 0,99,100
 296 95 296 95 310 81 c 1,101,102
 310 87 310 87 317.5 96 c 128,-1,103
 325 105 325 105 331 105 c 1,104,-1
 349 88 l 1,105,106
 358 112 358 112 385 120 c 0,107,108
 413 125 413 125 440 130 c 1,109,110
 440 156 440 156 461 176 c 1,111,-1
 488 169 l 1,69,-1
EndSplineSet
Validated: 1
EndChar

StartChar: q
Encoding: 113 113 74
Width: 573
GlyphClass: 2
Flags: W
LayerCount: 2
Fore
SplineSet
590 -171 m 1,0,1
 445 -177 445 -177 296 -170 c 1,2,-1
 296 -138 l 1,3,4
 333 -105 333 -105 373 -96 c 128,-1,5
 413 -87 413 -87 417 -83 c 0,6,7
 431 -71 431 -71 431 -20 c 0,8,9
 431 32 431 32 387 32 c 0,10,11
 377 32 377 32 349 24 c 128,-1,12
 321 16 321 16 311 16 c 0,13,14
 297 16 297 16 244 30 c 0,15,16
 185 45 185 45 153 59 c 0,17,18
 136 66 136 66 113 91 c 128,-1,19
 90 116 90 116 81 139 c 0,20,21
 77 149 77 149 77.5 175 c 128,-1,22
 78 201 78 201 76 211 c 0,23,24
 47 336 47 336 47 348 c 0,25,26
 47 366 47 366 67 416 c 0,27,28
 91 472 91 472 115 492.5 c 128,-1,29
 139 513 139 513 193 530 c 0,30,31
 238 544 238 544 259 544 c 0,32,33
 269 544 269 544 273 536 c 128,-1,34
 277 528 277 528 287 528 c 256,35,36
 297 528 297 528 301 532 c 128,-1,37
 305 536 305 536 315 536 c 256,38,39
 325 536 325 536 359 520 c 128,-1,40
 393 504 393 504 403 504 c 0,41,42
 412 504 412 504 427 508 c 128,-1,43
 442 512 442 512 451 512 c 0,44,45
 465 512 465 512 507 486 c 1,46,47
 505 467 505 467 505 356 c 0,48,49
 505 348 505 348 512 330.5 c 128,-1,50
 519 313 519 313 519 304 c 0,51,52
 519 297 519 297 510 274 c 128,-1,53
 501 251 501 251 500 244 c 0,54,55
 504 228 504 228 504 213 c 0,56,57
 504 204 504 204 492 149 c 1,58,59
 501 125 501 125 499 123 c 0,60,61
 493 118 493 118 478 106 c 1,62,63
 477 100 477 100 510 87 c 1,64,65
 510 56 510 56 495 56 c 0,66,67
 493 56 493 56 484 59 c 0,68,69
 479 61 479 61 479 56 c 0,70,71
 479 48 479 48 486 35 c 128,-1,72
 493 22 493 22 492 14 c 1,73,74
 508 1 508 1 508 -18 c 0,75,76
 508 -24 508 -24 505.5 -38 c 128,-1,77
 503 -52 503 -52 503 -60 c 256,78,79
 503 -68 503 -68 505 -75 c 0,80,81
 511 -102 511 -102 543 -111 c 0,82,83
 579 -121 579 -121 590 -139 c 1,84,-1
 590 -171 l 1,0,1
415 240 m 0,85,86
 415 251 415 251 405 267 c 128,-1,87
 395 283 395 283 393 293 c 0,88,89
 391 305 391 305 394.5 329.5 c 128,-1,90
 398 354 398 354 396 365 c 0,91,92
 394 375 394 375 363 398.5 c 128,-1,93
 332 422 332 422 322 424 c 1,94,95
 318 420 318 420 314.5 412 c 128,-1,96
 311 404 311 404 307 400 c 1,97,98
 305 402 305 402 301 415 c 0,99,100
 299 424 299 424 287 424 c 0,101,102
 277 424 277 424 277 416 c 128,-1,103
 277 408 277 408 267 408 c 0,104,105
 255 408 255 408 245 420 c 128,-1,106
 235 432 235 432 233 432 c 0,107,108
 226 418 226 418 177 366 c 0,109,110
 135 320 135 320 135 304 c 0,111,112
 135 292 135 292 144 281 c 128,-1,113
 153 270 153 270 161 259 c 1,114,115
 157 228 157 228 169 203 c 0,116,117
 174 193 174 193 189 182.5 c 128,-1,118
 204 172 204 172 204 171 c 0,119,120
 228 96 228 96 287 96 c 2,121,-1
 327 96 l 2,122,123
 339 96 339 96 367 130 c 128,-1,124
 395 164 395 164 404 187 c 0,125,126
 405 191 405 191 398.5 203 c 128,-1,127
 392 215 392 215 392 219 c 0,128,129
 394 220 394 220 406 225 c 0,130,131
 415 228 415 228 415 240 c 0,85,86
EndSplineSet
Validated: 1
EndChar

StartChar: r
Encoding: 114 114 75
Width: 623
GlyphClass: 2
Flags: W
LayerCount: 2
Fore
SplineSet
568 388 m 0,0,1
 568 353 568 353 542 338 c 0,2,3
 517 327 517 327 492 316 c 1,4,5
 474 336 474 336 473 364 c 0,6,7
 473 389 473 389 473 414 c 1,8,9
 467 420 467 420 448 420 c 0,10,11
 419 420 419 420 403 388 c 1,12,13
 403 398 403 398 389 412 c 1,14,15
 376 390 376 390 347 363 c 0,16,17
 323 341 323 341 298 319 c 1,18,19
 300 312 300 312 300 303 c 0,20,21
 300 286 300 286 294 256.5 c 128,-1,22
 288 227 288 227 288 220 c 0,23,24
 288 208 288 208 293 202 c 0,25,26
 298 193 298 193 298 192 c 0,27,28
 294 179 294 179 294 163 c 0,29,30
 294 100 294 100 344 100 c 0,31,32
 353 100 353 100 353 102 c 0,33,34
 353 103 353 103 352 104 c 0,35,36
 352 105 352 105 352 106 c 0,37,38
 353 108 353 108 360 108 c 0,39,40
 379 108 379 108 404 86 c 0,41,42
 417 72 417 72 431 58 c 1,43,-1
 431 -3 l 1,44,45
 411 2 411 2 371 0 c 0,46,47
 311 -4 311 -4 320 -4 c 1,48,49
 289 -4 289 -4 259 29 c 1,50,51
 247 29 247 29 236 7 c 1,52,53
 216 -4 216 -4 144 -4 c 0,54,55
 92 -4 92 -4 65 6 c 1,56,-1
 65 50 l 1,57,58
 74 63 74 63 99 84 c 0,59,60
 102 84 102 84 126 60 c 1,61,-1
 162 60 l 1,62,63
 169 73 169 73 169 107 c 1,64,65
 200 112 200 112 210 126 c 0,66,67
 217 134 217 134 218 154.5 c 128,-1,68
 219 175 219 175 224 184 c 1,69,70
 218 190 218 190 193 190 c 1,71,72
 216 226 216 226 216 280 c 0,73,74
 216 299 216 299 200 321 c 128,-1,75
 184 343 184 343 184 351 c 256,76,77
 184 359 184 359 192 368 c 1,78,79
 128 409 128 409 91 404 c 1,80,-1
 57 439 l 1,81,-1
 66 508 l 1,82,-1
 155 508 l 2,83,84
 165 508 165 508 191.5 484 c 128,-1,85
 218 460 218 460 228 460 c 0,86,87
 237 460 237 460 252 468 c 128,-1,88
 267 476 267 476 276 476 c 0,89,90
 286 476 286 476 306 468 c 128,-1,91
 326 460 326 460 336 460 c 0,92,93
 348 460 348 460 353.5 470.5 c 128,-1,94
 359 481 359 481 364 492 c 1,95,96
 368 488 368 488 372.5 476 c 128,-1,97
 377 464 377 464 381 460 c 1,98,99
 404 471 404 471 414 471 c 0,100,101
 421 471 421 471 428 468 c 0,102,103
 431 471 431 471 431 476 c 0,104,105
 431 479 431 479 428 487 c 128,-1,106
 425 495 425 495 425 498 c 0,107,108
 436 508 436 508 460 508 c 0,109,110
 476 508 476 508 487 504 c 1,111,112
 499 481 499 481 500 479 c 0,113,114
 510 463 510 463 523 454 c 1,115,116
 533 452 533 452 549 442 c 1,117,118
 568 416 568 416 568 388 c 0,0,1
EndSplineSet
Validated: 1
EndChar

StartChar: s
Encoding: 115 115 76
Width: 555
GlyphClass: 2
Flags: W
LayerCount: 2
Fore
SplineSet
478 147 m 0,0,1
 478 71 478 71 444 39 c 0,2,3
 414 11 414 11 350 11 c 0,4,5
 343 11 343 11 326 14 c 128,-1,6
 309 17 309 17 299 17 c 0,7,8
 290 17 290 17 282 16 c 2,9,10
 282 16 282 16 269.5 9.5 c 128,-1,11
 257 3 257 3 246 3 c 0,12,13
 236 3 236 3 204 15 c 128,-1,14
 172 27 172 27 162 27 c 0,15,16
 148 27 148 27 97 11 c 1,17,18
 78 30 78 30 78 91 c 0,19,20
 78 195 78 195 118 195 c 0,21,22
 130 195 130 195 161 175 c 0,23,24
 189 157 189 157 204 142 c 0,25,26
 205 141 205 141 235 99 c 0,27,28
 258 67 258 67 270 67 c 0,29,30
 300 67 300 67 358 96 c 1,31,32
 349 108 349 108 347 133 c 0,33,34
 345 163 345 163 342 172 c 1,35,36
 278 206 278 206 173 245 c 0,37,38
 111 268 111 268 96 294 c 0,39,40
 78 325 78 325 78 423 c 0,41,42
 78 456 78 456 135 484 c 0,43,44
 181 507 181 507 202 507 c 0,45,46
 204 507 204 507 300 502.5 c 128,-1,47
 396 498 396 498 444 498 c 1,48,49
 462 428 462 428 462 403 c 0,50,51
 462 394 462 394 452.5 355 c 128,-1,52
 443 316 443 316 443 299 c 1,53,54
 436 310 436 310 408 324 c 0,55,56
 375 342 375 342 359 358 c 0,57,58
 351 371 351 371 343 384 c 0,59,60
 328 407 328 407 311.5 416 c 128,-1,61
 295 425 295 425 267 428 c 0,62,63
 228 433 228 433 219 435 c 1,64,65
 206 413 206 413 206 383 c 0,66,67
 206 371 206 371 210.5 362 c 128,-1,68
 215 353 215 353 215 352 c 0,69,70
 222 344 222 344 240 338 c 0,71,72
 262 330 262 330 267 327 c 128,-1,73
 272 324 272 324 275.5 313.5 c 128,-1,74
 279 303 279 303 283 300 c 0,75,76
 367 296 367 296 419 261 c 0,77,78
 478 220 478 220 478 147 c 0,0,1
EndSplineSet
Validated: 1
EndChar

StartChar: t
Encoding: 116 116 77
Width: 553
GlyphClass: 2
Flags: W
LayerCount: 2
Fore
SplineSet
488 117 m 2,0,1
 488 108 488 108 486 108 c 0,2,3
 485 108 485 108 482.5 110 c 128,-1,4
 480 112 480 112 478 112 c 256,5,6
 476 112 476 112 475 110 c 0,7,8
 479 104 479 104 479 94 c 0,9,10
 479 66 479 66 450 30 c 128,-1,11
 421 -6 421 -6 401 -6 c 0,12,13
 391 -6 391 -6 389 2 c 128,-1,14
 387 10 387 10 377 10 c 256,15,16
 367 10 367 10 365 2 c 128,-1,17
 363 -6 363 -6 353 -6 c 0,18,19
 341 -6 341 -6 330 6 c 128,-1,20
 319 18 319 18 316 18 c 0,21,22
 308 20 308 20 294 -14 c 1,23,24
 274 -10 274 -10 242 5 c 1,25,26
 222 26 222 26 199.5 65 c 128,-1,27
 177 104 177 104 177 119 c 2,28,-1
 177 397 l 1,29,30
 156 420 156 420 113 424 c 0,31,32
 78 426 78 426 42 428 c 1,33,34
 42 440 42 440 57 456 c 0,35,36
 57 461 57 461 33 486 c 1,37,38
 47 513 47 513 82 515 c 0,39,40
 133 519 133 519 142 522 c 1,41,-1
 165 498 l 1,42,43
 189 529 189 529 189 573 c 0,44,45
 189 582 189 582 188 596.5 c 128,-1,46
 187 611 187 611 187 616 c 0,47,48
 187 658 187 658 241 658 c 0,49,50
 252 658 252 658 264.5 653.5 c 128,-1,51
 277 649 277 649 279 649 c 0,52,53
 296 569 296 569 296 569 c 1,54,55
 316 506 316 506 353 506 c 0,56,57
 363 506 363 506 385 515 c 0,58,59
 421 529 421 529 423 530 c 1,60,61
 428 500 428 500 449 438 c 1,62,63
 436 424 436 424 408 424 c 0,64,65
 399 424 399 424 380 425.5 c 128,-1,66
 361 427 361 427 352 427 c 0,67,68
 304 427 304 427 291 389 c 0,69,70
 274 342 274 342 272 251 c 1,71,72
 273 285 273 285 273 154 c 0,73,74
 273 144 273 144 304 115 c 128,-1,75
 335 86 335 86 358 76 c 1,76,77
 357 76 357 76 356 75 c 0,78,79
 357 75 l 0,80,81
 360 74 360 74 369 74 c 0,82,83
 391 74 391 74 430 104 c 1,84,85
 434 131 434 131 438 145 c 0,86,87
 446 176 446 176 460 185 c 1,88,-1
 488 185 l 1,89,-1
 488 117 l 2,0,1
EndSplineSet
Validated: 1
EndChar

StartChar: u
Encoding: 117 117 78
Width: 671
GlyphClass: 2
Flags: W
LayerCount: 2
Fore
SplineSet
637 48 m 1,0,1
 622 14 622 14 549 14 c 0,2,3
 539 14 539 14 497 26 c 128,-1,4
 455 38 455 38 445 38 c 256,5,6
 435 38 435 38 369 18 c 128,-1,7
 303 -2 303 -2 293 -2 c 0,8,9
 185 -2 185 -2 141 55 c 0,10,11
 107 98 107 98 102 192 c 0,12,13
 100 277 100 277 98 361 c 0,14,15
 95 370 95 370 83 392 c 0,16,17
 79 398 79 398 61.5 407.5 c 128,-1,18
 44 417 44 417 37 424 c 1,19,-1
 37 494 l 1,20,21
 77 518 77 518 121 518 c 0,22,23
 133 518 133 518 166 509 c 0,24,25
 217 494 217 494 220 493 c 0,26,27
 220 480 220 480 221.5 446.5 c 128,-1,28
 223 413 223 413 223 394 c 0,29,30
 223 326 223 326 207 282 c 1,31,-1
 207 275 l 1,32,33
 219 253 219 253 219 240 c 0,34,35
 219 231 219 231 212 225 c 128,-1,36
 205 219 205 219 205 218 c 2,37,-1
 213 211 l 1,38,39
 209 187 209 187 209 170 c 0,40,41
 209 124 209 124 235 112 c 0,42,43
 273 94 273 94 341 94 c 0,44,45
 382 94 382 94 386 133 c 0,46,47
 389 137 389 137 409 155 c 0,48,49
 425 170 425 170 426 179 c 0,50,51
 437 254 437 254 437 282 c 0,52,53
 437 290 437 290 429 326 c 0,54,55
 421 367 421 367 418 393 c 1,56,57
 394 404 394 404 345 438 c 1,58,-1
 320 415 l 1,59,60
 316 423 316 423 302 444.5 c 128,-1,61
 288 466 288 466 285 475 c 1,62,63
 305 510 305 510 409 510 c 0,64,65
 503 510 503 510 522 484 c 1,66,67
 524 470 524 470 522 442 c 0,68,69
 519 404 519 404 519 394 c 0,70,71
 519 381 519 381 530.5 349.5 c 128,-1,72
 542 318 542 318 542 298 c 0,73,74
 542 280 542 280 538 240.5 c 128,-1,75
 534 201 534 201 534 183 c 0,76,77
 534 127 534 127 563 112 c 1,78,79
 587 106 587 106 637 85 c 1,80,-1
 637 48 l 1,0,1
EndSplineSet
Validated: 1
EndChar

StartChar: v
Encoding: 118 118 79
Width: 605
GlyphClass: 2
Flags: W
LayerCount: 2
Fore
SplineSet
546 432 m 1,0,1
 500 428 500 428 500 402 c 0,2,3
 500 396 500 396 503 383 c 128,-1,4
 506 370 506 370 506 364 c 0,5,6
 506 357 506 357 503 352 c 0,7,8
 488 344 488 344 467 316 c 0,9,10
 443 283 443 283 432 274 c 1,11,12
 436 263 436 263 436 251 c 0,13,14
 436 212 436 212 389 137 c 0,15,16
 386 126 386 126 389 114 c 1,17,18
 377 81 377 81 365 47 c 0,19,20
 344 1 344 1 311 -18 c 1,21,22
 294 -9 294 -9 281 25 c 0,23,24
 265 69 265 69 257 80 c 0,25,26
 238 105 238 105 205 154 c 1,27,28
 219 197 219 197 219 212 c 256,29,30
 219 227 219 227 213 239 c 1,31,32
 192 239 192 239 192 214 c 1,33,34
 171 265 171 265 129 376 c 1,35,36
 100 396 100 396 71 416 c 0,37,38
 27 451 27 451 27 490 c 0,39,40
 27 502 27 502 31.5 508.5 c 128,-1,41
 36 515 36 515 36 518 c 2,42,-1
 62 518 l 2,43,44
 77 518 77 518 109.5 503 c 128,-1,45
 142 488 142 488 166 470 c 1,46,47
 175 490 175 490 195 494 c 0,48,49
 230 500 230 500 234 502 c 1,50,-1
 234 431 l 1,51,-1
 209 431 l 1,52,53
 202 401 202 401 202 324 c 1,54,55
 233 326 233 326 244 279 c 0,56,57
 248 246 248 246 252 213 c 1,58,59
 273 193 273 193 326 158 c 1,60,61
 329 161 329 161 336 172 c 1,62,63
 342 200 342 200 366 275 c 0,64,65
 387 341 387 341 387 350 c 0,66,67
 387 402 387 402 363 427 c 128,-1,68
 339 452 339 452 339 466 c 0,69,70
 339 488 339 488 358 499 c 0,71,72
 366 500 366 500 400 510 c 0,73,74
 429 518 429 518 440 518 c 2,75,-1
 546 518 l 1,76,-1
 546 432 l 1,0,1
422 360 m 1,77,-1
 422 381 l 1,78,-1
 408 381 l 1,79,-1
 408 360 l 1,80,-1
 422 360 l 1,77,-1
EndSplineSet
Validated: 1
EndChar

StartChar: w
Encoding: 119 119 80
Width: 683
GlyphClass: 2
Flags: W
LayerCount: 2
Fore
SplineSet
646 463 m 1,0,1
 649 426 649 426 626 387 c 1,2,3
 616 387 616 387 600 379 c 1,4,5
 595 363 595 363 594 317 c 128,-1,6
 593 271 593 271 587 251 c 0,7,8
 571 210 571 210 536 123 c 0,9,10
 519 79 519 79 501 1 c 1,11,12
 494 2 494 2 440 2 c 1,13,14
 441 56 441 56 422 118 c 0,15,16
 404 175 404 175 377 217 c 1,17,18
 341 199 341 199 329 137 c 0,19,20
 328 130 328 130 320 30 c 0,21,22
 323 22 323 22 334 6 c 1,23,-1
 334 -21 l 1,24,25
 324 -32 324 -32 298 -32 c 0,26,27
 269 -32 269 -32 241 -13 c 1,28,29
 241 15 241 15 236 43 c 1,30,31
 225 51 225 51 209 67 c 1,32,33
 184 166 184 166 188 195 c 1,34,35
 152 224 152 224 140 323 c 1,36,37
 134 333 134 333 114 339 c 1,38,39
 108 359 108 359 92 394 c 1,40,41
 81 399 81 399 55 419 c 1,42,-1
 55 479 l 1,43,44
 91 496 91 496 106 496 c 0,45,46
 115 496 115 496 123.5 488 c 128,-1,47
 132 480 132 480 142 480 c 256,48,49
 152 480 152 480 168 488 c 128,-1,50
 184 496 184 496 194 496 c 0,51,52
 207 496 207 496 231 487 c 0,53,54
 250 479 250 479 270 470 c 1,55,-1
 259 425 l 1,56,-1
 242 440 l 1,57,58
 234 433 234 433 229 413 c 0,59,60
 221 379 221 379 221 377 c 1,61,62
 218 377 218 377 208 381.5 c 128,-1,63
 198 386 198 386 189 386 c 1,64,65
 189 383 189 383 185.5 371.5 c 128,-1,66
 182 360 182 360 182 350 c 1,67,68
 235 334 235 334 235 242 c 0,69,70
 235 215 235 215 230 182 c 1,71,72
 224 176 224 176 242 176 c 0,73,74
 256 176 256 176 288 243.5 c 128,-1,75
 320 311 320 311 320 340 c 0,76,77
 320 440 320 440 320 447 c 1,78,79
 328 447 328 447 345 464 c 1,80,81
 376 463 376 463 396 418 c 0,82,83
 414 379 414 379 414 332 c 0,84,85
 414 315 414 315 411 302 c 1,86,87
 447 264 447 264 474 192 c 1,88,89
 482 233 482 233 516 254 c 1,90,91
 512 304 512 304 524 493 c 1,92,-1
 539 500 l 1,93,94
 564 494 564 494 589 487 c 0,95,96
 627 477 627 477 646 463 c 1,0,1
370 416 m 1,97,98
 363 409 363 409 359 394 c 1,99,100
 375 394 375 394 375 407 c 0,101,102
 375 412 375 412 370 416 c 1,97,98
EndSplineSet
Validated: 1
EndChar

StartChar: x
Encoding: 120 120 81
Width: 711
GlyphClass: 2
Flags: W
LayerCount: 2
Fore
SplineSet
668 3 m 1,0,1
 563 -3 563 -3 422 -3 c 1,2,3
 418 2 418 2 418 16 c 0,4,5
 418 21 418 21 419 33 c 0,6,7
 419 45 419 45 419 52 c 0,8,9
 419 112 419 112 367 112 c 0,10,11
 356 112 356 112 350 97.5 c 128,-1,12
 344 83 344 83 333 83 c 0,13,14
 323 83 323 83 323 86 c 0,15,16
 323 87 323 87 323 88 c 1,17,18
 324 88 324 88 324 90 c 256,19,20
 324 92 324 92 314 92 c 0,21,22
 291 92 291 92 291 44 c 0,23,24
 291 33 291 33 292 16.5 c 128,-1,25
 293 0 293 0 293 -2 c 1,26,27
 278 -2 278 -2 235.5 -7 c 128,-1,28
 193 -12 193 -12 171 -12 c 0,29,30
 157 -12 157 -12 146.5 -11 c 128,-1,31
 136 -10 136 -10 110.5 -0.5 c 128,-1,32
 85 9 85 9 74 9 c 1,33,34
 129 48 129 48 183 88 c 0,35,36
 275 158 275 158 275 208 c 0,37,38
 275 271 275 271 229 327 c 0,39,40
 208 352 208 352 135 413 c 0,41,42
 78 461 78 461 65 493 c 1,43,44
 162 515 162 515 208 515 c 0,45,46
 220 515 220 515 281 473 c 128,-1,47
 342 431 342 431 354 431 c 0,48,49
 368 431 368 431 448 477.5 c 128,-1,50
 528 524 528 524 539 524 c 0,51,52
 562 524 562 524 591.5 504 c 128,-1,53
 621 484 621 484 621 462 c 0,54,55
 621 437 621 437 583 415 c 0,56,57
 526 381 526 381 517 374 c 1,58,59
 517 332 517 332 488 298 c 0,60,61
 463 269 463 269 439 241 c 1,62,63
 448 217 448 217 487 166 c 0,64,65
 530 109 530 109 543 84 c 1,66,67
 573 73 573 73 603 63 c 0,68,69
 651 44 651 44 668 3 c 1,0,1
EndSplineSet
Validated: 1
EndChar

StartChar: y
Encoding: 121 121 82
Width: 621
GlyphClass: 2
Flags: W
LayerCount: 2
Fore
SplineSet
200 -81 m 1,0,-1
 200 -81 l 1,1,-1
 200 -81 l 1,2,-1
 200 -81 l 1,0,-1
588 471 m 0,3,4
 588 435 588 435 553 420 c 0,5,6
 526 411 526 411 498 402 c 1,7,8
 494 393 494 393 449 271 c 1,9,10
 458 245 458 245 455 238 c 1,11,12
 448 237 448 237 441 236 c 0,13,14
 430 232 430 232 421 222 c 1,15,16
 405 144 405 144 400 70 c 1,17,18
 386 63 386 63 365 38 c 1,19,20
 365 38 365 38 345 -44 c 1,21,-1
 326 -28 l 1,22,-1
 306 -28 l 1,23,24
 306 -44 306 -44 306 -79 c 0,25,26
 307 -115 307 -115 307 -131 c 1,27,28
 291 -138 291 -138 256 -164 c 0,29,30
 233 -181 233 -181 204 -181 c 0,31,32
 163 -181 163 -181 123.5 -143.5 c 128,-1,33
 84 -106 84 -106 84 -73 c 0,34,35
 84 -60 84 -60 104.5 -44.5 c 128,-1,36
 125 -29 125 -29 140 -29 c 0,37,38
 150 -29 150 -29 170 -45 c 128,-1,39
 190 -61 190 -61 200 -61 c 0,40,41
 226 -61 226 -61 265 -30 c 1,42,43
 268 -21 268 -21 268 27 c 0,44,45
 268 71 268 71 265 86 c 1,46,47
 254 98 254 98 238 118 c 1,48,49
 233 154 233 154 225 229 c 1,50,51
 209 240 209 240 194 270 c 0,52,53
 171 315 171 315 169 317 c 0,54,55
 133 371 133 371 46 429 c 0,56,57
 43 435 43 435 39.5 443 c 128,-1,58
 36 451 36 451 36 463 c 256,59,60
 36 475 36 475 40.5 485.5 c 128,-1,61
 45 496 45 496 45 498 c 1,62,63
 57 498 57 498 91.5 506.5 c 128,-1,64
 126 515 126 515 136 515 c 0,65,66
 144 515 144 515 154.5 507 c 128,-1,67
 165 499 165 499 176 499 c 0,68,69
 186 499 186 499 188 507 c 128,-1,70
 190 515 190 515 200 515 c 0,71,72
 211 515 211 515 209 511 c 0,73,74
 206 503 206 503 209 501 c 0,75,76
 216 500 216 500 242 496 c 0,77,78
 264 491 264 491 276 491 c 0,79,80
 286 491 286 491 310 503 c 128,-1,81
 334 515 334 515 344 515 c 256,82,83
 354 515 354 515 356 507 c 128,-1,84
 358 499 358 499 368 499 c 0,85,86
 383 499 383 499 391 519 c 1,87,88
 411 523 411 523 496 523 c 0,89,90
 506 523 506 523 518 507 c 128,-1,91
 530 491 530 491 540 491 c 2,92,-1
 577 499 l 1,93,94
 588 488 588 488 588 471 c 0,3,4
371 310 m 1,95,96
 355 323 355 323 355 334 c 0,97,98
 355 340 355 340 363.5 359 c 128,-1,99
 372 378 372 378 372 396 c 0,100,101
 372 407 372 407 370 419 c 1,102,103
 337 416 337 416 305 413 c 0,104,105
 268 408 268 408 244 376 c 0,106,107
 244 375 244 375 259 333 c 0,108,109
 270 299 270 299 288 299 c 0,110,111
 298 299 298 299 302 304 c 0,112,113
 304 306 304 306 308 302 c 1,114,115
 308 287 308 287 276 274 c 1,116,-1
 276 220 l 1,117,-1
 330 220 l 1,118,119
 333 249 333 249 338 278.5 c 128,-1,120
 343 308 343 308 371 310 c 1,95,96
EndSplineSet
Validated: 1
EndChar

StartChar: z
Encoding: 122 122 83
Width: 571
GlyphClass: 2
Flags: W
LayerCount: 2
Fore
SplineSet
531 -3 m 1,0,1
 462 -21 462 -21 372 -21 c 0,2,3
 361 -21 361 -21 288.5 -22.5 c 128,-1,4
 216 -24 216 -24 206 -24 c 0,5,6
 193 -24 193 -24 163.5 -19 c 128,-1,7
 134 -14 134 -14 123 -14 c 2,8,-1
 43 -14 l 1,9,-1
 43 22 l 1,10,11
 69 36 69 36 80 63 c 0,12,13
 86 77 86 77 93 117 c 1,14,15
 108 122 108 122 135 147 c 1,16,17
 139 162 139 162 152 197 c 1,18,19
 162 187 162 187 179 187 c 0,20,21
 180 189 180 189 187 223 c 0,22,23
 191 245 191 245 206 245 c 0,24,25
 216 245 216 245 216 242 c 0,26,27
 215 241 215 241 214 238 c 0,28,29
 214 235 214 235 225 235 c 0,30,31
 241 235 241 235 266.5 278 c 128,-1,32
 292 321 292 321 292 341 c 0,33,34
 292 353 292 353 272 387 c 0,35,36
 243 436 243 436 238 447 c 1,37,38
 221 427 221 427 212 376 c 0,39,40
 204 331 204 331 201 331 c 0,41,42
 158 331 158 331 141 326 c 0,43,44
 105 313 105 313 106 274 c 1,45,46
 92 299 92 299 77 325 c 0,47,48
 59 355 59 355 42 365 c 1,49,50
 53 373 53 373 68 449 c 0,51,52
 81 514 81 514 114 514 c 0,53,54
 127 514 127 514 140 507 c 0,55,56
 157 498 157 498 163 497 c 0,57,58
 177 494 177 494 207 502.5 c 128,-1,59
 237 511 237 511 249 510 c 0,60,61
 320 504 320 504 471 504 c 1,62,-1
 483 492 l 1,63,-1
 483 418 l 1,64,65
 450 412 450 412 439 393 c 0,66,67
 432 382 432 382 430.5 357 c 128,-1,68
 429 332 429 332 422 322 c 1,69,70
 402 342 402 342 395 342 c 1,71,72
 390 332 390 332 385 307 c 0,73,74
 379 276 379 276 375 264 c 1,75,76
 364 274 364 274 347 274 c 1,77,78
 344 267 344 267 344 259 c 0,79,80
 344 249 344 249 359 219 c 1,81,82
 332 213 332 213 307 187.5 c 128,-1,83
 282 162 282 162 242 159 c 1,84,85
 215 88 215 88 215 67 c 0,86,87
 215 53 215 53 226 52 c 1,88,89
 218 53 218 53 253 53 c 0,90,91
 265 53 265 53 311 47 c 128,-1,92
 357 41 357 41 369 41 c 256,93,94
 381 41 381 41 408 64 c 0,95,96
 442 93 442 93 452 99 c 1,97,98
 458 148 458 148 460 156 c 0,99,100
 466 188 466 188 479 206 c 1,101,102
 485 192 485 192 501 158 c 1,103,104
 507 158 507 158 515 169 c 0,105,106
 527 186 527 186 529 187 c 1,107,108
 545 86 545 86 531 -3 c 1,0,1
EndSplineSet
Validated: 1
EndChar

StartChar: exclamdown
Encoding: 161 161 85
Width: 239
GlyphClass: 2
Flags: W
LayerCount: 2
Fore
SplineSet
-64 19 m 0,0,1
 -64 29 -64 29 -58.5 42.5 c 128,-1,2
 -53 56 -53 56 -52 61 c 1,3,4
 -34 69 -34 69 -1 86 c 1,5,6
 6 112 6 112 22 164 c 0,7,8
 25 171 25 171 17 193 c 128,-1,9
 9 215 9 215 9 222 c 1,10,11
 34 222 34 222 40 228 c 0,12,13
 40 231 40 231 42 235.5 c 128,-1,14
 44 240 44 240 44 241 c 0,15,16
 44 247 44 247 32 247 c 256,17,18
 20 247 20 247 16 243.5 c 128,-1,19
 12 240 12 240 10 240 c 2,20,-1
 10 319 l 1,21,22
 15 304 15 304 32 271 c 1,23,24
 41 284 41 284 41 307 c 0,25,26
 41 329 41 329 32 348 c 1,27,28
 58 374 58 374 63 374 c 1,29,30
 73 277 73 277 83 181 c 1,31,32
 99 89 99 89 159 29 c 1,33,-1
 159 0 l 1,34,35
 38 -12 38 -12 -54 0 c 0,36,37
 -64 0 -64 0 -64 19 c 0,0,1
-40 628 m 1,38,-1
 -21 647 l 1,39,-1
 125 647 l 1,40,-1
 136 637 l 1,41,-1
 136 584 l 1,42,43
 113 568 113 568 91.5 550.5 c 128,-1,44
 70 533 70 533 63 488 c 1,45,-1
 27 488 l 1,46,47
 6 503 6 503 -29 569 c 1,48,49
 -30 590 -30 590 -40 628 c 1,38,-1
29 126 m 1,50,-1
 29 96 l 1,51,-1
 43 96 l 1,52,-1
 43 126 l 1,53,-1
 29 126 l 1,50,-1
EndSplineSet
Validated: 1
EndChar

StartChar: cent
Encoding: 162 162 86
Width: 572
GlyphClass: 2
Flags: W
LayerCount: 2
Fore
SplineSet
525 727 m 1,0,1
 531 712 531 712 476 607 c 128,-1,2
 421 502 421 502 421 498 c 0,3,4
 421 493 421 493 429 480 c 0,5,6
 439 464 439 464 442 458 c 0,7,8
 448 441 448 441 448 425 c 0,9,10
 448 417 448 417 437.5 394.5 c 128,-1,11
 427 372 427 372 419 365 c 128,-1,12
 411 358 411 358 374 344 c 0,13,14
 345 333 345 333 335 310 c 0,15,16
 310 255 310 255 284 189 c 1,17,-1
 284 171 l 2,18,19
 287 168 287 168 298 168 c 0,20,21
 323 168 323 168 367 204.5 c 128,-1,22
 411 241 411 241 428 241 c 0,23,24
 462 241 462 241 462 216 c 0,25,26
 462 189 462 189 420 152 c 0,27,28
 371 108 371 108 296 92 c 0,29,30
 282 92 282 92 255 89 c 0,31,32
 241 86 241 86 235 78 c 0,33,34
 224 64 224 64 192 -19 c 0,35,36
 170 -77 170 -77 134 -77 c 0,37,38
 114 -77 114 -77 94 -63 c 1,39,40
 90 -42 90 -42 126 23 c 128,-1,41
 162 88 162 88 162 100 c 0,42,43
 162 104 162 104 138 128 c 0,44,45
 110 156 110 156 99 174 c 0,46,47
 75 215 75 215 75 291 c 0,48,49
 75 302 75 302 82 334 c 0,50,51
 90 372 90 372 99 394 c 0,52,53
 117 433 117 433 154 479 c 0,54,55
 169 498 169 498 196 513 c 128,-1,56
 223 528 223 528 241 530 c 0,57,58
 250 531 250 531 298 530 c 0,59,60
 333 530 333 530 354 537 c 0,61,62
 362 540 362 540 373 568 c 0,63,64
 382 590 382 590 390 612 c 0,65,66
 405 650 405 650 440 722 c 0,67,68
 452 741 452 741 484 741 c 0,69,70
 502 741 502 741 525 727 c 1,0,1
298 448 m 0,71,72
 298 454 298 454 295.5 457.5 c 128,-1,73
 293 461 293 461 292 462 c 128,-1,74
 291 463 291 463 285.5 465.5 c 128,-1,75
 280 468 280 468 273 468 c 0,76,77
 245 468 245 468 200 428 c 0,78,79
 152 385 152 385 149 348 c 0,80,81
 148 338 148 338 143.5 315.5 c 128,-1,82
 139 293 139 293 139 289 c 0,83,84
 139 279 139 279 150 249.5 c 128,-1,85
 161 220 161 220 172 201 c 0,86,87
 175 196 175 196 185 191.5 c 128,-1,88
 195 187 195 187 196 186 c 0,89,90
 216 204 216 204 219 210 c 0,91,92
 252 279 252 279 286 348 c 0,93,94
 298 380 298 380 298 448 c 0,71,72
EndSplineSet
Validated: 1
EndChar

StartChar: copyright
Encoding: 169 169 87
Width: 1688
GlyphClass: 2
Flags: W
LayerCount: 2
Fore
SplineSet
1607 598 m 0,0,1
 1607 561 1607 561 1578 548 c 0,2,3
 1561 540 1561 540 1516 536 c 128,-1,4
 1471 532 1471 532 1455 524 c 0,5,6
 1303 442 1303 442 1232 152 c 1,7,8
 1224 92 1224 92 1216 32 c 1,9,10
 1203 -28 1203 -28 1143 -22 c 1,11,12
 1136 -17 1136 -17 1123 -6 c 1,13,14
 1123 46 1123 46 1118 152 c 0,15,16
 1109 264 1109 264 1026 359 c 0,17,18
 940 457 940 457 840 457 c 0,19,20
 769 457 769 457 683 376 c 1,21,22
 606 294 606 294 528 212 c 0,23,24
 482 164 482 164 435 116 c 0,25,26
 377 57 377 57 347 36 c 1,27,28
 349 32 349 32 351.5 29 c 128,-1,29
 354 26 354 26 364 26 c 0,30,31
 415 26 415 26 480 69 c 0,32,33
 528 102 528 102 595 167 c 0,34,35
 646 218 646 218 697 269 c 0,36,37
 709 280 709 280 730 290 c 128,-1,38
 751 300 751 300 761 300 c 0,39,40
 791 300 791 300 807 274 c 0,41,42
 819 253 819 253 819 221 c 0,43,44
 819 124 819 124 702 55 c 0,45,46
 613 3 613 3 468 -27 c 0,47,48
 361 -49 361 -49 296 -49 c 0,49,50
 207 -49 207 -49 147 -18 c 0,51,52
 66 23 66 23 66 112 c 0,53,54
 66 128 66 128 77 152 c 0,55,56
 92 182 92 182 112 183 c 1,57,58
 120 172 120 172 124 144 c 128,-1,59
 128 116 128 116 129 113 c 0,60,61
 146 71 146 71 168 57 c 0,62,63
 184 47 184 47 213 47 c 0,64,65
 319 47 319 47 401 224 c 1,66,67
 444 333 444 333 486 442 c 1,68,69
 504 471 504 471 521 476 c 0,70,71
 527 478 527 478 563 478 c 0,72,73
 594 478 594 478 603 475 c 0,74,75
 626 465 626 465 652 423 c 1,76,77
 751 534 751 534 938 527 c 1,78,79
 952 550 952 550 986 601 c 1,80,-1
 1024 601 l 1,81,82
 1033 554 1033 554 1076 479 c 0,83,84
 1133 378 1133 378 1139 366 c 0,85,86
 1153 335 1153 335 1187 177 c 1,87,88
 1193 183 1193 183 1201 195 c 1,89,90
 1195 233 1195 233 1231 344 c 0,91,92
 1274 474 1274 474 1336 560 c 0,93,94
 1416 670 1416 670 1508 670 c 0,95,96
 1607 670 1607 670 1607 598 c 0,0,1
EndSplineSet
Validated: 1
EndChar

StartChar: logicalnot
Encoding: 172 172 88
Width: 698
GlyphClass: 2
Flags: W
LayerCount: 2
Fore
SplineSet
380 423 m 1,0,1
 377 414 377 414 368 395.5 c 128,-1,2
 359 377 359 377 356 368 c 1,3,4
 360 382 360 382 364 396 c 0,5,6
 370 414 370 414 380 423 c 1,0,1
659 598 m 2,7,8
 656 592 656 592 640 594 c 0,9,10
 614 597 614 597 619 597 c 1,11,12
 607 597 607 597 599 591 c 1,13,14
 606 585 606 585 606 579 c 256,15,16
 606 573 606 573 595 562 c 0,17,18
 596 559 596 559 593 536 c 0,19,20
 592 531 592 531 596 511 c 0,21,22
 594 505 594 505 589 497 c 0,23,24
 588 495 588 495 582 494 c 1,25,26
 577 487 577 487 569 473 c 0,27,28
 566 468 566 468 560 468 c 0,29,30
 557 468 557 468 543.5 472.5 c 128,-1,31
 530 477 530 477 528 477 c 0,32,33
 525 477 525 477 521.5 476 c 128,-1,34
 518 475 518 475 516 474 c 128,-1,35
 514 473 514 473 514 470 c 0,36,37
 514 468 514 468 518 459 c 128,-1,38
 522 450 522 450 522 445 c 0,39,40
 522 428 522 428 528 396 c 0,41,42
 535 380 535 380 557 345 c 1,43,44
 568 336 568 336 589 318 c 0,45,46
 597 309 597 309 605 298 c 0,47,48
 610 290 610 290 618 276 c 0,49,50
 628 250 628 250 628 230 c 0,51,52
 628 224 628 224 623.5 207 c 128,-1,53
 619 190 619 190 620 182 c 0,54,55
 621 156 621 156 590 128 c 0,56,57
 562 105 562 105 534 82 c 1,58,59
 558 56 558 56 562 56 c 0,60,61
 564 56 564 56 567 57 c 128,-1,62
 570 58 570 58 573 58 c 0,63,64
 584 58 584 58 593.5 46.5 c 128,-1,65
 603 35 603 35 603 26 c 0,66,67
 603 8 603 8 590 -10 c 1,68,69
 590 -29 590 -29 589 -47 c 0,70,71
 585 -82 585 -82 563 -82 c 0,72,73
 561 -82 561 -82 553 -80 c 128,-1,74
 545 -78 545 -78 542 -78 c 0,75,76
 540 -78 540 -78 535.5 -80 c 128,-1,77
 531 -82 531 -82 528 -82 c 0,78,79
 520 -82 520 -82 514 -73.5 c 128,-1,80
 508 -65 508 -65 508 -57 c 0,81,82
 508 -52 508 -52 511 -46 c 128,-1,83
 514 -40 514 -40 514 -38 c 2,84,-1
 514 -28 l 1,85,86
 491 -23 491 -23 468 -19 c 0,87,88
 440 -11 440 -11 410 14 c 0,89,90
 405 15 405 15 386 -35 c 0,91,92
 383 -50 383 -50 375 -81 c 0,93,94
 374 -84 374 -84 367.5 -96 c 128,-1,95
 361 -108 361 -108 361 -111 c 1,96,97
 361 -105 361 -105 366.5 -122 c 128,-1,98
 372 -139 372 -139 372 -153 c 1,99,100
 357 -162 357 -162 348 -162 c 0,101,102
 346 -162 346 -162 336.5 -161 c 128,-1,103
 327 -160 327 -160 324 -160 c 128,-1,104
 321 -160 321 -160 312.5 -155.5 c 128,-1,105
 304 -151 304 -151 302 -151 c 0,106,107
 299 -151 299 -151 286 -156.5 c 128,-1,108
 273 -162 273 -162 271 -162 c 1,109,110
 273 -162 273 -162 252 -154 c 0,111,112
 247 -154 247 -154 235 -153 c 0,113,114
 229 -151 229 -151 221.5 -143 c 128,-1,115
 214 -135 214 -135 214 -131 c 0,116,117
 214 -121 214 -121 232 -114 c 0,118,119
 238 -114 238 -114 250.5 -109.5 c 128,-1,120
 263 -105 263 -105 282 -87 c 0,121,122
 285 -82 285 -82 282 -71 c 0,123,124
 277 -55 277 -55 277 -52 c 0,125,126
 275 -33 275 -33 280 -5 c 0,127,128
 280 6 280 6 281 28 c 0,129,130
 285 34 285 34 289 44 c 1,131,132
 288 57 288 57 290 80 c 0,133,134
 302 125 302 125 326 167 c 0,135,136
 328 172 328 172 340 183.5 c 128,-1,137
 352 195 352 195 352 197 c 256,138,139
 352 199 352 199 342.5 224 c 128,-1,140
 333 249 333 249 330 262 c 0,141,142
 326 282 326 282 327 296 c 0,143,144
 328 299 328 299 332 324 c 0,145,146
 335 342 335 342 333 353 c 0,147,148
 331 367 331 367 312 399 c 1,149,150
 303 395 303 395 284 391 c 0,151,152
 278 389 278 389 278 382 c 0,153,154
 278 334 278 334 288 273 c 1,155,156
 288 273 288 273 300 249 c 0,157,158
 302 239 302 239 309 214 c 1,159,-1
 301 214 l 1,160,161
 293 222 293 222 290 228 c 0,162,163
 289 238 289 238 280 255 c 1,164,165
 268 265 268 265 234 280 c 0,166,167
 197 296 197 296 183 307 c 0,168,169
 158 327 158 327 155 358 c 0,170,171
 154 364 154 364 136 377 c 128,-1,172
 118 390 118 390 118 399 c 1,173,174
 105 395 105 395 77 378 c 0,175,176
 75 374 75 374 71 366 c 1,177,178
 40 357 40 357 41 357 c 2,179,-1
 31 357 l 2,180,181
 31 358 31 358 30 362.5 c 128,-1,182
 29 367 29 367 29 370 c 0,183,184
 32 371 32 371 40.5 380.5 c 128,-1,185
 49 390 49 390 52 390 c 256,186,187
 55 390 55 390 56 389 c 128,-1,188
 57 388 57 388 60 388 c 0,189,190
 71 388 71 388 120 420 c 1,191,-1
 120 427 l 1,192,193
 101 442 101 442 96 456 c 0,194,195
 94 463 94 463 94 485 c 256,196,197
 94 507 94 507 98.5 518 c 128,-1,198
 103 529 103 529 108 541 c 0,199,200
 124 576 124 576 115 616 c 0,201,202
 112 628 112 628 114 637 c 1,203,204
 124 625 124 625 143 603 c 0,205,206
 157 589 157 589 191 555.5 c 128,-1,207
 225 522 225 522 242 504 c 0,208,209
 244 504 244 504 247 504 c 0,210,211
 252 504 252 504 259 510.5 c 128,-1,212
 266 517 266 517 274 517 c 0,213,214
 280 517 280 517 293 508 c 0,215,216
 294 507 294 507 296 509 c 0,217,218
 283 524 283 524 270 539 c 0,219,220
 253 559 253 559 253 574 c 0,221,222
 253 580 253 580 254.5 584 c 128,-1,223
 256 588 256 588 256 600 c 1,224,225
 207 608 207 608 207 646 c 0,226,227
 207 661 207 661 233 688 c 0,228,229
 237 695 237 695 247.5 707.5 c 128,-1,230
 258 720 258 720 270 730 c 0,231,232
 280 736 280 736 301 749 c 0,233,234
 326 766 326 766 333 766 c 0,235,236
 353 766 353 766 382 757 c 128,-1,237
 411 748 411 748 417 741 c 0,238,239
 434 730 434 730 471 697 c 0,240,241
 480 687 480 687 481 663 c 0,242,243
 483 640 483 640 476 632 c 1,244,245
 483 619 483 619 496 622 c 0,246,247
 497 620 497 620 500 617 c 0,248,249
 500 615 500 615 498 612 c 128,-1,250
 496 609 496 609 496 608 c 0,251,252
 495 606 495 606 500 606 c 0,253,254
 502 606 502 606 510 612.5 c 128,-1,255
 518 619 518 619 522 621 c 0,256,257
 569 635 569 635 589 635 c 0,258,259
 659 635 659 635 659 607 c 2,260,-1
 659 598 l 2,7,8
456 689 m 1,261,262
 446 702 446 702 430 710 c 1,263,264
 440 702 440 702 456 689 c 1,261,262
373 750 m 1,265,-1
 373 750 l 1,266,-1
 373 750 l 1,267,-1
 373 750 l 1,265,-1
454 665 m 0,268,269
 454 662 454 662 452.5 660 c 128,-1,270
 451 658 451 658 451 657 c 1,271,272
 443 673 443 673 439 686 c 1,273,274
 454 676 454 676 454 665 c 0,268,269
407 727 m 1,275,276
 406 727 406 727 399 725.5 c 128,-1,277
 392 724 392 724 389 724 c 0,278,279
 380 724 380 724 361 734 c 1,280,281
 366 740 366 740 373 740 c 0,282,283
 376 740 376 740 390.5 734.5 c 128,-1,284
 405 729 405 729 407 727 c 1,275,276
556 589 m 1,285,286
 551 581 551 581 536 567 c 0,287,288
 536 564 536 564 539.5 559.5 c 128,-1,289
 543 555 543 555 543 553 c 0,290,291
 540 550 540 550 535 550 c 256,292,293
 530 550 530 550 522 560 c 0,294,295
 524 562 524 562 525 566 c 0,296,297
 519 570 519 570 519 577 c 0,298,299
 519 583 519 583 530 590 c 128,-1,300
 541 597 541 597 547 597 c 2,301,-1
 556 597 l 1,302,-1
 556 589 l 1,285,286
405 709 m 2,303,-1
 392 713 l 2,304,305
 393 709 393 709 405 709 c 2,303,-1
430 676 m 1,306,307
 431 683 431 683 420 693 c 0,308,309
 413 701 413 701 406 708 c 1,310,-1
 406 701 l 1,311,-1
 401 700 l 1,312,313
 401 692 401 692 424 671 c 1,314,-1
 430 676 l 1,306,307
455 629 m 1,315,-1
 455 639 l 1,316,-1
 451 639 l 1,317,-1
 451 629 l 1,318,-1
 455 629 l 1,315,-1
388 642 m 1,319,320
 390 645 390 645 384 664 c 1,321,322
 384 654 384 654 388 642 c 1,319,320
559 510 m 1,323,324
 523 510 523 510 517 509 c 1,325,326
 517 503 517 503 529.5 496.5 c 128,-1,327
 542 490 542 490 548 490 c 0,328,329
 553 490 553 490 557 495 c 1,330,331
 551 496 551 496 543 502 c 1,332,333
 549 504 549 504 559 510 c 1,323,324
485 551 m 0,334,335
 481 561 481 561 481 566 c 1,336,337
 464 561 464 561 454 551 c 1,338,339
 463 549 463 549 478 541 c 1,340,341
 479 543 479 543 481.5 546.5 c 128,-1,342
 484 550 484 550 485 551 c 0,334,335
354 649 m 1,343,344
 350 655 350 655 344 668 c 1,345,346
 349 654 349 654 354 649 c 1,343,344
430 610 m 1,347,348
 424 617 424 617 418 629 c 1,349,350
 421 638 421 638 420 641 c 0,351,352
 411 663 411 663 383 701 c 0,353,354
 379 702 379 702 373 704 c 0,355,356
 367 712 367 712 353 723 c 0,357,358
 341 728 341 728 317 737 c 1,359,360
 317 736 317 736 323 721 c 1,361,362
 290 721 290 721 294 722 c 0,363,364
 297 719 297 719 299 715 c 0,365,366
 302 709 302 709 299 702 c 0,367,368
 297 702 297 702 292 704 c 128,-1,369
 287 706 287 706 285 706 c 0,370,371
 274 706 274 706 264 698 c 1,372,373
 271 698 271 698 279 699 c 0,374,375
 287 698 287 698 287 690 c 1,376,377
 256 671 256 671 256 644 c 0,378,379
 256 632 256 632 264 617 c 1,380,-1
 269 623 l 1,381,382
 266 628 266 628 269 635 c 0,383,384
 270 635 270 635 270 636 c 128,-1,385
 270 637 270 637 273 637 c 0,386,387
 279 637 279 637 288 632 c 1,388,389
 296 621 296 621 296 610 c 0,390,391
 296 588 296 588 281 588 c 0,392,393
 277 588 277 588 268 599 c 1,394,395
 263 578 263 578 263 572 c 0,396,397
 263 561 263 561 272 552.5 c 128,-1,398
 281 544 281 544 291 535 c 1,399,400
 283 552 283 552 283 550 c 1,401,402
 283 554 283 554 284 555.5 c 128,-1,403
 285 557 285 557 285 558 c 2,404,-1
 292 558 l 1,405,406
 281 569 281 569 281 575 c 0,407,408
 281 578 281 578 284 582 c 0,409,410
 287 581 287 581 294.5 575.5 c 128,-1,411
 302 570 302 570 305 570 c 256,412,413
 308 570 308 570 311 573.5 c 128,-1,414
 314 577 314 577 315 577 c 2,415,-1
 318 573 l 1,416,-1
 318 565 l 1,417,418
 314 562 314 562 307 555 c 1,419,420
 321 557 321 557 323 547 c 1,421,422
 310 536 310 536 301 522 c 1,423,424
 311 517 311 517 317 517 c 0,425,426
 326 517 326 517 337.5 525 c 128,-1,427
 349 533 349 533 360 541 c 0,428,429
 370 545 370 545 386 554 c 1,430,431
 392 565 392 565 392 564 c 1,432,433
 392 567 392 567 390 568.5 c 128,-1,434
 388 570 388 570 388 571 c 0,435,436
 392 593 392 593 386 599 c 0,437,438
 365 619 365 619 344 639 c 0,439,440
 316 667 316 667 316 684 c 0,441,442
 316 692 316 692 320 695 c 1,443,444
 320 694 320 694 320 691 c 0,445,446
 321 688 321 688 324 688 c 256,447,448
 327 688 327 688 334.5 689.5 c 128,-1,449
 342 691 342 691 344 691 c 0,450,451
 352 697 352 697 352 697 c 2,452,453
 358 697 358 697 374.5 685.5 c 128,-1,454
 391 674 391 674 396 662 c 0,455,456
 399 645 399 645 410 616 c 0,457,458
 413 613 413 613 430 610 c 1,347,348
352 593 m 1,459,-1
 352 603 l 1,460,461
 341 613 341 613 340 623 c 0,462,463
 337 625 337 625 328.5 627 c 128,-1,464
 320 629 320 629 317 630 c 0,465,466
 314 627 314 627 314 625 c 0,467,468
 314 622 314 622 316 619.5 c 128,-1,469
 318 617 318 617 318 616 c 0,470,471
 315 603 315 603 319 591 c 0,472,473
 322 583 322 583 334 584 c 1,474,475
 337 595 337 595 352 593 c 1,459,-1
240 670 m 1,476,477
 234 669 234 669 226 662 c 128,-1,478
 218 655 218 655 219 648 c 1,479,480
 226 656 226 656 240 670 c 1,476,477
243 618 m 1,481,-1
 243 626 l 1,482,-1
 240 626 l 1,483,-1
 240 618 l 1,484,-1
 243 618 l 1,481,-1
294 492 m 1,485,486
 281 508 281 508 275 508 c 2,487,-1
 265 508 l 1,488,489
 261 498 261 498 261 490 c 1,490,491
 266 494 266 494 275 499 c 1,492,493
 280 495 280 495 289 488 c 0,494,495
 291 490 291 490 294 492 c 1,485,486
363 419 m 1,496,-1
 351 419 l 2,497,498
 347 419 347 419 330 407 c 1,499,500
 333 388 333 388 342 374 c 1,501,502
 349 390 349 390 363 419 c 1,496,-1
369 273 m 1,503,-1
 369 283 l 1,504,-1
 357 283 l 1,505,506
 353 276 353 276 354 266 c 1,507,-1
 362 266 l 1,508,-1
 369 273 l 1,503,-1
615 235 m 0,509,510
 615 260 615 260 589 294.5 c 128,-1,511
 563 329 563 329 540 335 c 0,512,513
 537 337 537 337 535 340 c 0,514,515
 536 344 536 344 536 349 c 0,516,517
 536 358 536 358 529 369.5 c 128,-1,518
 522 381 522 381 515 392 c 1,519,520
 515 404 515 404 513 427 c 0,521,522
 512 439 512 439 507 458 c 0,523,524
 500 471 500 471 489 496 c 0,525,526
 476 534 476 534 461.5 537 c 128,-1,527
 447 540 447 540 424 542 c 0,528,529
 422 542 422 542 418.5 544 c 128,-1,530
 415 546 415 546 412 546 c 0,531,532
 388 546 388 546 317 496 c 0,533,534
 311 490 311 490 301 482 c 1,535,536
 279 477 279 477 234 463 c 0,537,538
 226 459 226 459 219 452 c 0,539,540
 218 447 218 447 214 443 c 0,541,542
 198 438 198 438 196 438 c 1,543,544
 201 435 201 435 199 428 c 1,545,-1
 191 428 l 2,546,547
 175 428 175 428 147 430 c 1,548,549
 143 417 143 417 136 395 c 1,550,551
 165 377 165 377 168 377 c 0,552,553
 178 377 178 377 193 386 c 0,554,555
 196 388 196 388 201.5 394.5 c 128,-1,556
 207 401 207 401 209 401 c 0,557,558
 212 401 212 401 217.5 400 c 128,-1,559
 223 399 223 399 226 399 c 0,560,561
 228 399 228 399 246 402.5 c 128,-1,562
 264 406 264 406 273.5 406.5 c 128,-1,563
 283 407 283 407 298 408 c 1,564,565
 311 416 311 416 333 427 c 1,566,567
 351 429 351 429 378 435 c 0,568,569
 425 452 425 452 430 452 c 0,570,571
 450 452 450 452 450 422 c 0,572,573
 450 413 450 413 442 410 c 1,574,575
 438 413 438 413 435 427 c 0,576,577
 433 437 433 437 420 437 c 0,578,579
 399 437 399 437 389 415 c 128,-1,580
 379 393 379 393 370 372 c 0,581,582
 366 364 366 364 364 353 c 1,583,584
 367 347 367 347 367 347 c 1,585,586
 345 324 345 324 345 315 c 2,587,-1
 345 256 l 2,588,589
 345 250 345 250 354 228 c 128,-1,590
 363 206 363 206 373 195 c 0,591,592
 378 189 378 189 390 182.5 c 128,-1,593
 402 176 402 176 407 176 c 2,594,-1
 414 176 l 1,595,596
 415 189 415 189 448 219.5 c 128,-1,597
 481 250 481 250 491 250 c 256,598,599
 501 250 501 250 508 240 c 1,600,601
 499 237 499 237 486 231 c 0,602,603
 448 213 448 213 437 194 c 0,604,605
 401 132 401 132 401 92 c 0,606,607
 401 62 401 62 413 41 c 0,608,609
 420 28 420 28 435 24.5 c 128,-1,610
 450 21 450 21 452 15 c 1,611,612
 445 13 445 13 437 13 c 1,613,614
 457 -11 457 -11 508 -11 c 0,615,616
 529 -11 529 -11 533.5 -4 c 128,-1,617
 538 3 538 3 544 3 c 0,618,619
 549 3 549 3 550 1 c 2,620,-1
 550 -5 l 1,621,622
 523 -22 523 -22 523 -50 c 0,623,624
 523 -53 523 -53 524.5 -60 c 128,-1,625
 526 -67 526 -67 526 -68 c 1,626,627
 533 -64 533 -64 544 -57 c 0,628,629
 546 -59 546 -59 552 -63.5 c 128,-1,630
 558 -68 558 -68 560 -69 c 0,631,632
 571 -64 571 -64 576 -56.5 c 128,-1,633
 581 -49 581 -49 578 -29 c 0,634,635
 576 -17 576 -17 575 -19 c 1,636,637
 592 15 592 15 592 18 c 0,638,639
 592 41 592 41 566 47 c 1,640,641
 564 42 564 42 560 36 c 1,642,-1
 554 36 l 1,643,644
 546 48 546 48 539 60 c 0,645,646
 529 72 529 72 515 72 c 0,647,648
 513 72 513 72 508.5 70.5 c 128,-1,649
 504 69 504 69 501 69 c 0,650,651
 493 69 493 69 490 73 c 0,652,653
 490 74 490 74 491 77 c 128,-1,654
 492 80 492 80 492 81 c 1,655,656
 516 80 516 80 552 110 c 0,657,658
 568 127 568 127 591 148 c 0,659,660
 596 151 596 151 605.5 184.5 c 128,-1,661
 615 218 615 218 615 235 c 0,509,510
136 445 m 0,662,663
 136 444 136 444 134.5 441 c 128,-1,664
 133 438 133 438 133 437 c 2,665,-1
 123 437 l 2,666,667
 120 438 120 438 111.5 451 c 128,-1,668
 103 464 103 464 103 469 c 2,669,-1
 103 499 l 2,670,671
 106 481 106 481 111 472 c 0,672,673
 119 455 119 455 136 445 c 0,662,663
278 281 m 1,674,-1
 269 390 l 1,675,-1
 249 390 l 2,676,677
 231 390 231 390 212 380 c 0,678,679
 200 374 200 374 187 368 c 1,680,681
 187 357 187 357 190 342 c 0,682,683
 203 315 203 315 228 302 c 0,684,685
 236 297 236 297 278 281 c 1,674,-1
187 322 m 0,686,687
 182 331 182 331 172 363 c 1,688,689
 172 363 172 363 170.5 361 c 128,-1,690
 169 359 169 359 169 356 c 0,691,692
 169 344 169 344 177 328 c 0,693,694
 178 325 178 325 182.5 323 c 128,-1,695
 187 321 187 321 187 322 c 0,686,687
403 153 m 0,696,697
 403 162 403 162 398 164 c 128,-1,698
 393 166 393 166 377 177 c 0,699,700
 363 185 363 185 361 185 c 0,701,702
 352 185 352 185 335.5 156.5 c 128,-1,703
 319 128 319 128 317 120 c 0,704,705
 311 105 311 105 303 80 c 1,706,707
 304 65 304 65 302 40 c 0,708,709
 298 35 298 35 293 19 c 0,710,711
 294 10 294 10 293 -7 c 1,712,713
 287 -23 287 -23 287 -32 c 0,714,715
 287 -50 287 -50 295 -75 c 0,716,717
 296 -78 296 -78 301.5 -87 c 128,-1,718
 307 -96 307 -96 307 -99 c 0,719,720
 307 -101 307 -101 304 -104 c 0,721,722
 298 -102 298 -102 293 -102 c 0,723,724
 285 -102 285 -102 245 -125 c 1,725,-1
 245 -142 l 2,726,727
 243 -142 243 -142 274 -142 c 0,728,729
 277 -142 277 -142 292.5 -136.5 c 128,-1,730
 308 -131 308 -131 311 -131 c 0,731,732
 315 -131 315 -131 319 -139 c 1,733,734
 342 -144 342 -144 345 -144 c 256,735,736
 348 -144 348 -144 351.5 -143 c 128,-1,737
 355 -142 355 -142 356 -142 c 2,738,-1
 356 -125 l 2,739,740
 356 -123 356 -123 350 -114.5 c 128,-1,741
 344 -106 344 -106 343 -103 c 0,742,743
 372 -76 372 -76 372 -41 c 0,744,745
 372 -32 372 -32 370 -25 c 1,746,747
 370 -25 370 -25 377.5 -17.5 c 128,-1,748
 385 -10 385 -10 385 -5 c 256,749,750
 385 0 385 0 382 3 c 2,751,752
 382 3 382 3 379 4 c 128,-1,753
 376 5 376 5 373 5 c 0,754,755
 362 5 362 5 358 12 c 1,756,-1
 362 16 l 1,757,758
 366 14 366 14 374 14 c 0,759,760
 401 14 401 14 401 30 c 0,761,762
 401 32 401 32 393 52 c 128,-1,763
 385 72 385 72 385 75 c 256,764,765
 385 78 385 78 394 114 c 128,-1,766
 403 150 403 150 403 153 c 0,696,697
643 604 m 2,767,-1
 643 614 l 1,768,769
 632 624 632 624 593 624 c 0,770,771
 564 624 564 624 547.5 618.5 c 128,-1,772
 531 613 531 613 495 592 c 0,773,774
 492 588 492 588 488 583 c 1,775,-1
 488 531 l 1,776,777
 495 523 495 523 499.5 506.5 c 128,-1,778
 504 490 504 490 509 484 c 0,779,780
 512 486 512 486 522 486 c 0,781,782
 525 486 525 486 538 482.5 c 128,-1,783
 551 479 551 479 553 479 c 0,784,785
 565 479 565 479 567 485 c 0,786,787
 567 492 567 492 567 499 c 0,788,789
 569 508 569 508 583 510 c 1,790,791
 586 523 586 523 574.5 529.5 c 128,-1,792
 563 536 563 536 563 540 c 0,793,794
 570 546 570 546 585 551 c 1,795,796
 584 554 584 554 579 560 c 128,-1,797
 574 566 574 566 574 569 c 0,798,799
 574 571 574 571 578 575 c 1,800,-1
 592 575 l 1,801,802
 583 594 583 594 583 590 c 1,803,804
 583 597 583 597 592 601 c 0,805,806
 609 608 609 608 630 608 c 0,807,808
 633 608 633 608 637 606 c 128,-1,809
 641 604 641 604 643 604 c 2,767,-1
489 604 m 0,810,811
 487 604 487 604 483 601 c 0,812,813
 485 598 485 598 486 595 c 1,814,815
 495 604 495 604 489 604 c 0,810,811
550 541 m 1,816,817
 545 546 545 546 525 546 c 0,818,819
 514 546 514 546 514 535 c 0,820,821
 514 532 514 532 515.5 528.5 c 128,-1,822
 517 525 517 525 517 524 c 2,823,-1
 547 524 l 1,824,-1
 550 541 l 1,816,817
414 570 m 0,825,826
 409 575 409 575 406 575 c 1,827,828
 407 575 407 575 399 567 c 1,829,830
 401 567 401 567 404 564 c 2,831,-1
 410 564 l 2,832,833
 414 564 414 564 415 567 c 0,834,835
 417 570 417 570 414 570 c 0,825,826
229 496 m 1,836,837
 229 510 229 510 136 590 c 1,838,839
 136 570 136 570 131 543 c 0,840,841
 129 534 129 534 122.5 517 c 128,-1,842
 116 500 116 500 116 498 c 0,843,844
 116 484 116 484 128 466 c 0,845,846
 141 443 141 443 158 443 c 0,847,848
 181 443 181 443 226 473 c 1,849,850
 229 499 229 499 229 496 c 1,836,837
EndSplineSet
Validated: 5
EndChar

StartChar: questiondown
Encoding: 191 191 89
Width: 472
GlyphClass: 2
Flags: W
LayerCount: 2
Fore
SplineSet
190 511 m 0,0,1
 194 527 194 527 197 541 c 1,2,3
 237 545 237 545 237 487 c 0,4,5
 237 446 237 446 225 425 c 0,6,7
 222 420 222 420 219 398 c 0,8,9
 217 373 217 373 211 360 c 1,10,11
 195 354 195 354 179 348 c 0,12,13
 157 338 157 338 145 321 c 0,14,15
 127 297 127 297 110.5 256 c 128,-1,16
 94 215 94 215 94 199 c 0,17,18
 94 151 94 151 142 117 c 0,19,20
 184 87 184 87 230 87 c 0,21,22
 326 87 326 87 326 139 c 0,23,24
 326 149 326 149 298 177 c 128,-1,25
 270 205 270 205 270 215 c 0,26,27
 270 244 270 244 290.5 265.5 c 128,-1,28
 311 287 311 287 334 287 c 0,29,30
 383 287 383 287 398 236 c 0,31,32
 406 210 406 210 406 155 c 0,33,34
 406 49 406 49 321 12 c 0,35,36
 272 -9 272 -9 170 -9 c 0,37,38
 153 -9 153 -9 58 57 c 1,39,40
 37 92 37 92 18 113 c 1,41,42
 6 133 6 133 6 187 c 0,43,44
 6 248 6 248 52 304 c 0,45,46
 95 351 95 351 138 398 c 0,47,48
 186 454 186 454 190 511 c 0,0,1
205 572 m 1,49,50
 205 581 205 581 177.5 599.5 c 128,-1,51
 150 618 150 618 150 627 c 0,52,53
 150 649 150 649 177 677 c 0,54,55
 200 703 200 703 210 703 c 0,56,57
 224 703 224 703 247 682.5 c 128,-1,58
 270 662 270 662 270 647 c 0,59,60
 270 635 270 635 265.5 629 c 128,-1,61
 261 623 261 623 257 618 c 0,62,63
 254 595 254 595 232 586 c 0,64,65
 206 576 206 576 205 572 c 1,49,50
EndSplineSet
Validated: 1
EndChar

